<?xml version="1.0" encoding="utf-8"?>
<!-- Generator: Adobe Illustrator 24.2.1, SVG Export Plug-In . SVG Version: 6.00 Build 0)  -->
<svg version="1.1" id="Capa_1" xmlns="http://www.w3.org/2000/svg" xmlns:xlink="http://www.w3.org/1999/xlink" x="0px" y="0px"
	 viewBox="0 0 210.6 224" style="enable-background:new 0 0 210.6 224;" xml:space="preserve">
<style type="text/css">
	.st0{fill:#89D5E0;}
	.st1{fill:#8B57CE;}
	.st2{fill:#333333;}
	.st3{fill:#F7DEB0;}
	.st4{fill:#FFFFFF;}
	.st5{fill:#FFFFFF;stroke:#1D1D1B;stroke-miterlimit:10;}
	.st6{fill:#0038BB;}
	.st7{fill:#EA8350;}
	.st8{fill:#3849D8;}
	.st9{fill:#C6C6C6;}
</style>
<g>
	<g>
		<circle class="st0" cx="105.3" cy="118.3" r="104.5"/>
	</g>
	<g>
		<g>
			<path class="st1" d="M122.6,11.1c0,0-3.8-10.7,4.3-8.6s15.4,13.8,12,19.9c-3.3,6.1-3.7,14.4-0.9,15.5c2.8,1.2,4.3,2.4,4.3,2.4
				s-9.2,1.5-10.3-6s-1.1-14.9-2.5-16.9S122.6,11.1,122.6,11.1z"/>
			<path class="st2" d="M140.6,41c-1.7,0-4.3-0.3-6.2-1.7c-1.5-1.1-2.5-2.7-2.8-4.8c-0.4-2.8-0.7-5.7-0.9-8.2
				c-0.4-3.9-0.7-7.3-1.5-8.4c-1.4-1.8-6.8-6.4-6.8-6.4c-0.1-0.1-0.1-0.1-0.1-0.2c-0.1-0.2-2.1-6,0.1-8.5c1-1.1,2.6-1.3,4.7-0.7
				c4.7,1.3,9.7,5.9,12,11.3c1.5,3.6,1.7,6.9,0.4,9.3c-2.6,4.8-3.2,10.7-2.3,13.4c0.2,0.5,0.5,1.2,1.1,1.5c2.8,1.2,4.4,2.4,4.5,2.5
				c0.2,0.1,0.2,0.3,0.2,0.5c-0.1,0.2-0.2,0.3-0.4,0.4C142.4,40.9,141.6,41,140.6,41z M123,10.8c0.8,0.7,5.5,4.7,6.9,6.5
				c1,1.3,1.3,4.7,1.7,8.9c0.2,2.5,0.5,5.4,0.9,8.2c0.4,2.8,2.2,4.6,5.2,5.3c1.2,0.3,2.3,0.3,3.2,0.3c-0.7-0.4-1.7-1-3.1-1.6
				c-0.8-0.3-1.3-1-1.7-2.1c-1.2-3.3-0.1-9.6,2.3-14.2c1.2-2.1,1-5.1-0.4-8.4c-2.2-5.1-6.9-9.6-11.3-10.8c-1.8-0.5-3-0.3-3.8,0.4
				C121.5,5,122.5,9.1,123,10.8z"/>
		</g>
		<g>
			<path class="st0" d="M120.6,2.1c0,0,1.6-1.1,1.7-0.7c0.1,0.4,0.1,2.2,0.9,2.3c0.8,0.1,3-0.4,2.6,1c-0.4,1.3,0.1,2.3,0.7,2.7
				s1,1.6,0.7,2.1c-0.3,0.5-1.5,1.1-2.5,0.6s-3.8-3.9-4.6-4.2c-0.8-0.3-3.6-1.5-3.7-2.3c-0.1-0.8,2.4-2.9,3.3-2.1
				S120.6,2.1,120.6,2.1z"/>
			<path class="st2" d="M125.5,10.7c-0.4,0-0.7-0.1-1.1-0.3c-0.5-0.3-1.5-1.3-2.5-2.3c-0.7-0.8-1.8-1.8-2.1-1.9l-0.1,0
				c-2.7-1.2-3.8-1.9-3.9-2.7c-0.1-0.8,1.2-2,2.2-2.5c1.1-0.6,1.7-0.2,2,0l0.6,0.6c1.3-0.8,1.6-0.7,1.8-0.6c0.2,0.1,0.3,0.3,0.4,0.4
				c0,0.1,0,0.2,0.1,0.4c0.1,1.2,0.3,1.4,0.4,1.5c0.1,0,0.4,0,0.7,0c0.8,0,1.7-0.1,2.2,0.5c0.2,0.2,0.3,0.5,0.1,1.1
				c-0.3,1.1,0,1.8,0.5,2.1c0.9,0.5,1.3,2,0.9,2.8c-0.2,0.4-0.7,0.7-1.2,0.9C126.1,10.7,125.8,10.7,125.5,10.7z M119.2,1.6
				c-0.1,0-0.3,0-0.4,0.1c-0.9,0.3-1.9,1.4-1.9,1.7c0,0.1,0.4,0.6,3.3,1.9l0.1,0c0.5,0.2,1.2,1,2.4,2.2c0.8,0.8,1.8,1.9,2.2,2.1
				c0.3,0.2,0.7,0.2,1.2,0.1c0.4-0.1,0.6-0.3,0.7-0.4c0.1-0.3-0.1-1.3-0.5-1.5c-0.8-0.4-1.4-1.6-0.9-3.2c0-0.1,0-0.2,0-0.2
				c-0.1-0.2-1-0.1-1.4-0.1c-0.3,0-0.6,0-0.9,0c-0.9-0.2-1.1-1.4-1.2-2.2c-0.3,0.1-0.6,0.4-1,0.6c-0.2,0.1-0.4,0.1-0.6,0l-0.9-0.8
				C119.3,1.7,119.3,1.6,119.2,1.6z"/>
		</g>
		<g>
			<path class="st1" d="M85.3,32.1c0,0-2.1,4.8-1,9.7c1,4.8,4.1,6.1,2.2,6.5c-1.9,0.4,0.4,5.7,0.4,5.7s-2.3-2.3,0-2.8
				c2.3-0.5,1.8-3.4,0.9-4.9c-0.9-1.4-2.6-6.7-1.7-8.3s3.3-3.1,3.3-3.1"/>
			<path class="st2" d="M86.8,54.5c-0.1,0-0.3,0-0.3-0.1c-0.2-0.2-1.5-1.5-1.1-2.6c0-0.1,0.1-0.2,0.1-0.3c-0.3-1.1-0.4-2.2,0-2.9
				c0.2-0.4,0.5-0.6,0.9-0.7c0.1,0,0.2,0,0.2-0.1c-0.1-0.2-0.3-0.5-0.5-0.8c-0.7-1-1.7-2.6-2.3-5.1c-1-4.9,1-9.8,1.1-10
				c0.1-0.3,0.4-0.4,0.7-0.3c0.3,0.1,0.4,0.4,0.3,0.7c0,0-2,4.8-1,9.4c0.5,2.3,1.5,3.8,2.1,4.7c0.5,0.7,0.8,1.2,0.6,1.7
				c-0.2,0.4-0.6,0.6-0.9,0.6c-0.1,0-0.2,0.1-0.3,0.2c-0.2,0.4-0.1,1,0,1.8c0.1,0,0.3-0.1,0.4-0.1c0.6-0.1,0.9-0.4,1.1-0.9
				c0.4-0.9,0-2.4-0.5-3.2c-0.9-1.4-2.8-6.9-1.7-8.8c1-1.6,3.3-3.2,3.4-3.3c0.2-0.2,0.5-0.1,0.7,0.1c0.2,0.2,0.1,0.5-0.1,0.7
				c0,0-2.3,1.5-3.1,3c-0.7,1.3,0.7,6.2,1.7,7.7c0.7,1.1,1.1,2.9,0.6,4.2c-0.3,0.8-0.9,1.3-1.8,1.4c-0.1,0-0.2,0.1-0.4,0.1
				c0.2,0.7,0.5,1.5,0.7,2c0.1,0.2,0,0.5-0.2,0.6C87,54.5,86.9,54.5,86.8,54.5z"/>
		</g>
		<g>
			<path class="st1" d="M127.6,18.3c-1.2,5.4,2.3,10.2,0,13.2c-2.3,3-3.2,5.5-3.2,5.5s-2.5,2.3-4.3,2.2c-1.8-0.1-5.7-6.1-11.2-9.6
				c-5.5-3.4-21.1,12.9-23.9,4.4C80.7,21,81.9,16.9,86,9.7c2.8-5,16-8.6,26.5-7.6s11,4.4,13,6.8C130.3,14.4,127.6,18.3,127.6,18.3z"
				/>
			<path class="st2" d="M120.2,39.8C120.1,39.8,120.1,39.8,120.2,39.8c-1.1,0-2.4-1.3-4.3-3.3c-2-2-4.4-4.5-7.2-6.3
				c-2.2-1.4-6.6,1-10.8,3.2c-4.4,2.3-8.5,4.5-11.2,3.4c-1-0.4-1.7-1.3-2.2-2.6c-4.3-13.3-3.1-17.5,1-24.8c2.9-5.1,16-8.9,26.9-7.8
				c9,0.9,10.8,3.5,12.4,5.7c0.3,0.4,0.6,0.8,0.9,1.2c4.7,5.4,2.6,9.4,2.2,10c-0.5,2.4-0.1,4.8,0.3,6.8c0.5,2.4,0.9,4.7-0.4,6.5
				c-2.2,2.9-3.1,5.4-3.1,5.4c0,0.1-0.1,0.1-0.1,0.2C124.4,37.7,122.1,39.8,120.2,39.8z M107,28.7c0.8,0,1.5,0.2,2.2,0.6
				c3,1.9,5.4,4.4,7.4,6.5c1.4,1.5,2.9,3,3.5,3c1.3,0,3.1-1.4,3.8-2c0.2-0.5,1.2-2.8,3.2-5.5c1.1-1.4,0.7-3.4,0.2-5.7
				c-0.4-2.2-0.9-4.7-0.3-7.3c0-0.1,0-0.1,0.1-0.2l0,0c0.1-0.1,2.4-3.7-2.1-8.9c-0.4-0.4-0.7-0.8-1-1.3c-1.5-2.1-3.2-4.5-11.7-5.3
				c-10.4-1-23.3,2.6-26,7.3c-4.1,7.1-5.2,11-1,24c0.3,1,0.8,1.6,1.6,1.9c2.3,0.9,6.4-1.3,10.3-3.4C101,30.5,104.4,28.7,107,28.7z
				 M124.4,37L124.4,37L124.4,37z"/>
		</g>
		<g>
			<path class="st3" d="M28.1,90c0,0,3.3-0.9,5.1,0.4c1.9,1.3,2.3-2.7,2.7-3.6c0.4-0.9-0.4-1.8-0.4-1.8s1.2-0.4,1.3-1.3
				c0.1-0.9-1.9-2.9-1.9-2.9s1.8-1.3,2.1-3.3s-1.7-3.3-1.7-3.3s0.9,0.1,1.1-1.3c0.1-1.4-0.8-1-1.2-2.7s-3.4-2.9-9.6-2.1
				c-6.3,0.9-3.8,8.1-2.6,17.1c1,7.7,8,8.3,8.6,8.4c0.5,0.1,22.8,32.4,26.6,33.1c3.8,0.7,10.6-9.1,15.9-13.5
				c5.3-4.3,6.1-6.1,6.1-6.1L69.3,92.1l-11.7,15.5c0,0-11.8-14.1-13-16.5s-2.4-3.8-1.5-7.4c0.6-2.6-0.4-6.7-0.5-10.6
				c-0.1-4.1,0.2-8.1-0.8-9.4c-1.8-2.6-5.2-1.4-4.6,1.3c0.6,2.7,1.3,8.7,1.3,9.6s-3.2-4.3-3.2-4.3"/>
			<path class="st2" d="M58.7,127.4c-0.2,0-0.3,0-0.5,0c-2.8-0.5-13.1-14.5-22.6-27.5c-2-2.7-3.7-5.1-4.1-5.6c0,0,0,0-0.1,0
				c-5-0.9-8.2-4-8.8-8.8c-0.2-1.6-0.4-3.1-0.7-4.5c-0.8-5.1-1.5-9.1,0.3-11.4c0.7-1,1.9-1.6,3.4-1.8c5.8-0.8,9.6,0.1,10.2,2.4
				c0.7,1.2,1.5,2.4,2.1,3.3c-0.2-2.1-0.7-6.3-1.2-8.3c-0.3-1.4,0.3-2.6,1.4-3.1c1.1-0.5,2.9-0.3,4,1.4C43,64.4,43,66.9,43,70
				c0,1,0,2,0,3c0,1.4,0.2,2.9,0.4,4.4c0.3,2.4,0.5,4.7,0.1,6.4c-0.7,3,0,4.3,1,6.1c0.2,0.3,0.3,0.6,0.5,1c1,2.1,10.5,13.5,12.6,16
				l11.7-15.5l11.5,15.9l-0.1,0.3c0,0.1-0.9,1.9-6.2,6.3c-1.8,1.5-3.8,3.7-5.8,5.8C64.9,123.5,61.4,127.4,58.7,127.4z M29.5,68.4
				c-1.1,0-2.3,0.1-3.7,0.3c-1.3,0.2-2.2,0.6-2.8,1.4c-1.5,2-0.8,6-0.1,10.6c0.2,1.5,0.5,3,0.7,4.5c0.7,5.6,4.7,7.4,8,8
				c0.1,0,0.2,0,0.2,0c0.3,0.1,0.3,0.1,4.6,5.9c5.8,8,19.4,26.6,22,27.1c2.2,0.4,6.1-3.8,9.6-7.5c2-2.1,4-4.3,5.9-5.9
				c4-3.3,5.4-5.1,5.8-5.7L69.3,93l-11.7,15.5l-0.4-0.5c-0.5-0.6-11.9-14.2-13.1-16.6c-0.2-0.3-0.3-0.6-0.5-0.9
				c-1-1.9-1.8-3.5-1.1-6.8c0.4-1.5,0.1-3.7-0.2-6.1c-0.2-1.5-0.3-3-0.4-4.4c0-1,0-2.1,0-3.1c0-2.7,0-5.2-0.6-6.1
				c-0.9-1.2-2-1.4-2.8-1.1c-0.6,0.3-1.1,0.9-0.9,1.9c0.6,2.7,1.3,8.8,1.3,9.7c0,0.4-0.2,0.5-0.4,0.6c-0.3,0.1-0.5,0.1-1.7-1.5
				c-0.1,0.3-0.3,0.6-0.5,0.8c0.6,0.6,1.4,1.8,1.2,3.2c-0.2,1.6-1.3,2.7-1.9,3.3c0.7,0.7,1.7,2.1,1.6,3c-0.1,0.7-0.6,1.2-1.1,1.4
				c0.2,0.4,0.4,1.1,0.1,1.8c-0.1,0.2-0.2,0.5-0.2,0.9c-0.3,1.3-0.7,2.9-1.8,3.3c-0.3,0.1-0.8,0.2-1.4-0.3c-1.6-1.2-4.7-0.4-4.7-0.4
				l-0.3-1c0.1,0,3.5-0.9,5.6,0.5c0.2,0.1,0.4,0.2,0.5,0.2c0.5-0.2,0.9-1.7,1.1-2.6c0.1-0.4,0.2-0.8,0.3-1c0.3-0.6-0.3-1.2-0.3-1.2
				l-0.5-0.6l0.7-0.2c0,0,0.9-0.3,1-0.9c0.1-0.4-0.9-1.6-1.7-2.5l-0.4-0.4l0.5-0.3c0,0,1.7-1.2,1.9-3c0.2-1.7-1.5-2.8-1.5-2.8
				l-1.8-1.2l2.2,0.3c0.2,0,0.4-0.2,0.5-0.8c0-0.5-0.1-0.6-0.3-0.9c-0.3-0.3-0.6-0.7-0.9-1.7C34.6,69.3,33,68.4,29.5,68.4z"/>
		</g>
		<g>
			<path class="st4" d="M90.1,59.5c0,0-3.6,0.7-9.9,3.9c-6.3,3.2-8.7,9.5-11.9,23.1c-0.6,2.6-5.4,11.1-5.4,11.1s4.9,4.3,7.6,9
				c3.1,5.5,3.6,6.8,3.6,6.8s13.1-11.4,15.8-19.1C97.1,73.3,90.1,59.5,90.1,59.5z"/>
			<path class="st2" d="M74,114.2l-0.3-0.6c0,0-0.6-1.3-3.6-6.8c-2.6-4.6-7.4-8.9-7.5-8.9l-0.3-0.3l0.2-0.4c0-0.1,4.8-8.5,5.3-10.9
				C71,72.8,73.6,66.2,80,62.9c6.3-3.2,9.9-3.9,10-3.9l0.4-0.1l0.2,0.3c0.1,0.1,7,14.2-0.2,35.1c-2.7,7.7-15.4,18.9-15.9,19.3
				L74,114.2z M63.6,97.4c1.1,1,5.1,4.8,7.4,8.9c2,3.6,3,5.4,3.4,6.2c2.4-2.2,12.9-11.8,15.1-18.5c6.4-18.7,1.4-31.7,0.4-34
				c-1.1,0.3-4.4,1.2-9.4,3.7c-6.1,3.1-8.5,9.5-11.7,22.7C68.3,88.9,64.5,95.8,63.6,97.4z"/>
		</g>
		<g>
			<path class="st4" d="M83.7,62.4c6.4-4.4,7.6-2.7,21.6-3.8c14.1-1.1,20.7-1.9,35.2,4c15,6.1,14.2,32.6,7.7,40.4
				c-16.4,19.8-10,12.4-11.5,23.8c-0.7,5.6,1.5,8.4-0.6,10.3c-3.5,3.1-7.8,4.7-7.8,4.7s-44.6-1.7-47.5-3.3c-2.1-1.2-4.3-3.6-5.4-4.9
				c-1-1.3,0.4-0.8,2.4-9.4c2-8.7-4.8-25-5.9-29.5c-2-7.6,3.2-15.1,5.3-20.4"/>
			<path class="st2" d="M128.3,142.4l-0.1,0c-4.6-0.2-44.8-1.7-47.7-3.4c-2.3-1.3-4.6-3.9-5.5-5c-0.7-0.9-0.5-1.3,0-2.4
				c0.5-1.1,1.3-3.1,2.4-7.5c1.6-6.7-2.3-18.2-4.6-25c-0.6-1.8-1.1-3.2-1.3-4.2c-1.6-6.1,1.3-12,3.5-16.9c0.7-1.4,1.3-2.7,1.7-3.9
				l0.9,0.4c-0.5,1.2-1.1,2.6-1.8,4c-2.2,4.7-5,10.5-3.5,16.2c0.2,0.9,0.7,2.3,1.3,4.1c2.3,6.9,6.3,18.6,4.6,25.6
				c-1.1,4.5-2,6.5-2.4,7.6c-0.4,1-0.4,1-0.1,1.4c1,1.3,3.2,3.6,5.2,4.8c2,1.2,29.3,2.6,47.2,3.3c0.6-0.3,4.5-1.9,7.6-4.6
				c0.9-0.8,0.9-1.9,0.6-3.9c-0.2-1.6-0.5-3.5-0.2-6.1c0.4-3.1,0.2-4.8,0.1-6c-0.4-3.5-0.2-3.8,11.5-18c3.6-4.4,5.8-15.7,3.3-25.6
				c-1.2-4.9-4.1-11.4-10.7-14C126.5,57.5,120,58,107.1,59l-1.7,0.1c-4,0.3-7,0.4-9.4,0.5c-5.8,0.2-7.5,0.2-12,3.3L83.4,62
				c4.7-3.2,6.7-3.3,12.6-3.4c2.4-0.1,5.3-0.1,9.3-0.4L107,58c13.1-1,19.7-1.5,33.7,4.2c7,2.8,10,9.6,11.3,14.7
				c2.4,9.4,0.8,21.3-3.5,26.5c-11.7,14.1-11.7,14.2-11.3,17.3c0.1,1.3,0.4,3-0.1,6.2c-0.3,2.4,0,4.3,0.2,5.8c0.3,2,0.5,3.6-0.9,4.8
				C132.9,140.6,128.6,142.3,128.3,142.4L128.3,142.4z"/>
		</g>
		<g>
			<path class="st5" d="M62.9,202.3"/>
		</g>
		<g>
			<path class="st3" d="M94.2,59.8c0,0,0.8,9,3.1,11.2s3.8,8.8,3.8,8.8s1.9-7.5,9.6-11.7c9.7-5.3,10.6-5.4,12.1-9.3c0,0-4-2.3-5.3-4
				c-1.3-1.8-0.2-11.1-0.2-11.1H99.4c0,0-0.5,4-1.9,11.7C96.7,60.1,94.2,59.8,94.2,59.8z"/>
			<path class="st2" d="M101,81.9l-0.5-2c0-0.1-1.6-6.5-3.7-8.5c-2.4-2.3-3.2-11.1-3.2-11.5l-0.1-0.6l0.6,0.1c0.1,0,2.1,0.1,2.8-4
				c1.3-7.7,1.9-11.7,1.9-11.7l0.1-0.4h18.8l-0.1,0.6c-0.4,3.5-0.7,9.5,0.1,10.7c1.2,1.7,5.1,3.9,5.1,3.9l0.4,0.2l-0.1,0.4
				c-1.4,3.6-2.4,4.2-9.3,7.9c-0.9,0.5-1.9,1-3,1.6c-7.4,4-9.3,11.3-9.4,11.4L101,81.9z M94.7,60.3c0.3,2.8,1.2,8.8,2.9,10.4
				c1.7,1.6,2.9,5.3,3.5,7.5c1-2.5,3.6-7.3,9.3-10.4c1.1-0.6,2.1-1.1,3-1.6c6.6-3.6,7.6-4.1,8.7-7c-1-0.6-4-2.4-5.1-4
				c-1.2-1.7-0.6-8.7-0.4-10.9H99.8c-0.2,1.2-0.7,5.1-1.8,11.3C97.4,59.2,95.6,60.1,94.7,60.3z"/>
		</g>
		<g>
			<g>
				<path class="st3" d="M121.3,41.7c-1.9,4.4-10.1,10.7-14.2,12.5c-9.7,4.3-13.1,2-18.6-5.7c-3.6-5.1-11-25,2.6-35.9
					c10.9-8.7,29.1-5.2,32.3,6.3C125.9,27.6,122.7,38.5,121.3,41.7z"/>
				<path class="st2" d="M99.2,56.8c-4.3,0-7.3-2.7-11.1-8c-3.5-4.8-11.3-25.4,2.7-36.6c5.9-4.8,14.6-6.3,22.1-3.9
					c5.6,1.8,9.7,5.6,11,10.4c2.4,8.5-0.4,19.3-2.1,23.2c-2,4.5-10.1,10.8-14.5,12.7C104,56.1,101.4,56.8,99.2,56.8z M105.6,8.2
					c-5.1,0-10.3,1.7-14.1,4.8C78,23.7,85.6,43.5,88.9,48.2c5.6,7.8,8.8,9.6,18,5.5c4.2-1.9,12.1-8.1,14-12.2h0
					C122,39,125.5,28,123,18.9c-1.2-4.4-5-8-10.3-9.7C110.4,8.5,108,8.2,105.6,8.2z"/>
			</g>
			<g>
				<path class="st3" d="M97.9,37.4c-0.2,0.8-1.3,2.1-2.2,2.4c-1.1,0.4-0.2,1.5,0.1,1.9c0.5,0.5,2,0.9,2.5,0.4"/>
				<path class="st2" d="M97.7,42.8C97.6,42.8,97.6,42.8,97.7,42.8c-0.7,0-1.7-0.3-2.1-0.8c-0.6-0.7-0.9-1.4-0.8-1.9
					c0.1-0.3,0.3-0.6,0.8-0.8c0.7-0.2,1.7-1.4,1.9-2.1l1,0.3c-0.3,0.9-1.5,2.4-2.5,2.7c-0.1,0-0.2,0.1-0.2,0.1c0,0-0.1,0.3,0.5,1
					c0.2,0.2,0.8,0.4,1.3,0.5c0.3,0,0.4,0,0.5-0.1l0.7,0.7C98.5,42.7,98.1,42.8,97.7,42.8z"/>
			</g>
			<g>
				<path class="st2" d="M113.1,26c-0.4,0-1.5-0.6-4-1.2c-2.5-0.6-3.8-0.2-4.3-0.2c-0.3,0-0.6-0.1-0.1-0.5c0.4-0.3,1.8-0.3,3.2-0.2
					c1.5,0.1,3.4,0.9,4.5,1.4C113.3,25.8,113.5,26,113.1,26z"/>
				<path class="st2" d="M113.1,26.5c-0.2,0-0.5-0.1-1-0.3c-0.6-0.2-1.6-0.5-3.1-0.9c-1.9-0.4-3.1-0.3-3.7-0.2c-0.2,0-0.4,0-0.5,0
					c-0.6,0-0.8-0.3-0.8-0.5c-0.1-0.5,0.3-0.8,0.5-0.9c0.7-0.5,2.7-0.3,3.5-0.3c1.7,0.2,3.9,1.1,4.7,1.5c0.7,0.3,1.3,0.6,1.1,1.1
					C113.8,26.2,113.6,26.5,113.1,26.5L113.1,26.5C113.1,26.5,113.1,26.5,113.1,26.5z M113.1,25.5l0,0.5L113.1,25.5z M113.1,25.5
					l0,0.5L113.1,25.5C113.1,25.5,113.1,25.5,113.1,25.5z"/>
			</g>
			<g>
				<path class="st2" d="M86.6,25.7c0.4-0.2,1.1-0.6,3.6-1.3c1.8-0.5,3.4,0.3,3.6,0.2s0.1-0.4-1-0.8c-0.5-0.2-1.5-0.3-2.6-0.1
					c-1.6,0.4-3.1,1.1-3.6,1.6C86.4,25.5,86.3,25.8,86.6,25.7z"/>
				<path class="st2" d="M86.5,26.2c-0.2,0-0.4-0.1-0.5-0.3c-0.1-0.2-0.1-0.6,0.3-1c0.7-0.5,2.2-1.3,3.8-1.7
					c1.1-0.3,2.2-0.1,2.8,0.1c1,0.3,1.3,0.6,1.4,1c0,0.3-0.1,0.5-0.3,0.6c-0.3,0.2-0.5,0.1-1,0c-0.6-0.1-1.7-0.4-2.8-0.1
					c-1.9,0.5-2.7,0.9-3.1,1.1c-0.2,0.1-0.3,0.1-0.4,0.2C86.7,26.2,86.6,26.2,86.5,26.2z M86.4,25.2C86.4,25.2,86.4,25.2,86.4,25.2
					l0.2,0.5L86.4,25.2z"/>
			</g>
			<g>
				<g>
					<path class="st2" d="M109.6,34.1c-0.4,1.2-1.8,1.7-2.9,1.3s-1.7-1.3-1.2-2.7c0.5-1.4,1-2,2.9-1.4
						C109.8,31.8,109.8,33.6,109.6,34.1z"/>
					<path class="st2" d="M107.4,36c-0.3,0-0.6,0-0.9-0.1c-0.7-0.2-1.2-0.7-1.5-1.3c-0.3-0.6-0.3-1.3,0-2.1c0.6-1.6,1.4-2.4,3.6-1.7
						c0.6,0.2,1,0.6,1.3,1.1c0.4,0.8,0.4,1.9,0.2,2.3l0,0l0,0c-0.2,0.6-0.7,1.1-1.3,1.4C108.4,35.9,107.9,36,107.4,36z M107.2,31.6
						c-0.7,0-0.9,0.4-1.3,1.3c-0.2,0.5-0.2,1,0,1.3c0.2,0.3,0.5,0.6,0.9,0.7c0.5,0.2,1,0.1,1.5-0.1c0.3-0.1,0.6-0.4,0.8-0.9l0,0
						c0.1-0.3,0.1-1-0.1-1.6c-0.2-0.3-0.4-0.5-0.7-0.6C107.8,31.7,107.5,31.6,107.2,31.6z"/>
				</g>
				<g>
					<path class="st6" d="M106.9,32.3c0.1-0.2,0.5-0.2,0.6-0.1s0.3,0.5,0.1,0.7c-0.2,0.2-0.3,0.4-0.7,0.3S106.7,32.6,106.9,32.3z"/>
					<path class="st4" d="M107.1,33.7c-0.1,0-0.3,0-0.4-0.1c-0.2-0.1-0.4-0.3-0.5-0.5c-0.1-0.3,0-0.7,0.2-1.1l0,0
						c0.2-0.2,0.5-0.4,0.8-0.4c0.3,0,0.5,0.1,0.6,0.3c0.2,0.2,0.4,0.8,0.1,1.3C107.8,33.4,107.6,33.7,107.1,33.7z M107.3,32.6
						C107.3,32.6,107.3,32.6,107.3,32.6L107.3,32.6z"/>
				</g>
			</g>
			<g>
				<g>
					<path class="st2" d="M89.5,32.6c-0.3,0.6-0.4,2.6,0.9,2.9c1,0.2,2.1-0.6,2.4-1.2c0.3-0.6-0.3-2.7-1.4-2.7
						C90.2,31.5,89.7,32.2,89.5,32.6z"/>
					<path class="st2" d="M90.6,35.9c-0.1,0-0.3,0-0.4,0c-0.5-0.1-1-0.4-1.2-1c-0.4-0.8-0.3-2.1,0-2.6l0,0c0.3-0.5,0.9-1.3,2.3-1.3
						c0.6,0,1.1,0.3,1.4,0.9c0.4,0.7,0.7,1.9,0.4,2.5C92.8,35.2,91.7,35.9,90.6,35.9z M91.3,32c-0.8,0-1.2,0.4-1.4,0.8l0,0
						c-0.1,0.3-0.2,1.1,0,1.7c0.2,0.3,0.3,0.4,0.5,0.4c0.7,0.1,1.6-0.5,1.8-0.9c0.1-0.2,0-1-0.4-1.5C91.8,32.3,91.5,32,91.3,32z"/>
				</g>
				<g>
					<path class="st6" d="M90.3,32.6c0.1-0.2,0.4-0.2,0.5-0.1c0.1,0.1,0.3,0.4,0.2,0.6c-0.1,0.2-0.4,0.3-0.7,0.2
						C90,33.3,90.2,32.8,90.3,32.6z"/>
					<path class="st4" d="M90.5,33.9c-0.1,0-0.2,0-0.3,0c-0.2,0-0.4-0.2-0.5-0.4c-0.2-0.5,0.2-1,0.2-1.1l0,0
						c0.2-0.2,0.4-0.4,0.7-0.4c0.2,0,0.4,0,0.6,0.2c0.2,0.2,0.5,0.7,0.3,1.2C91.3,33.7,90.9,33.9,90.5,33.9z"/>
				</g>
			</g>
			<g>
				<g>
					<path class="st7" d="M95.3,45.9c0.3,0.4,1.2,1.4,1.2,3.7c0,1.3,1.1,2.8,2.4,2.8c0.9,0,1.9-1.1,2.4-2c1.4-2.2,2.4-4.4,2.4-4.4
						s-3.1-0.3-5-0.3C97.1,45.7,95.3,45.9,95.3,45.9z"/>
					<path class="st2" d="M98.9,52.9c-1.6,0-2.8-1.8-2.9-3.3c-0.1-1.9-0.7-2.8-1-3.3c-0.1-0.1-0.1-0.1-0.1-0.2l-0.4-0.7l0.8-0.1
						c0.1,0,1.9-0.2,3.4-0.2c1.9,0,5,0.3,5.1,0.3l0.7,0.1l-0.3,0.6c0,0.1-1,2.3-2.4,4.5C101.4,51.2,100.2,52.9,98.9,52.9
						C98.9,52.9,98.9,52.9,98.9,52.9z M96.2,46.3c0.4,0.6,0.8,1.6,0.8,3.3c0,1,0.9,2.4,1.9,2.4c0,0,0,0,0,0c0.5,0,1.4-0.8,2-1.8
						c0.9-1.4,1.6-2.9,2-3.7c-1-0.1-2.9-0.3-4.3-0.3c0,0,0,0,0,0C97.8,46.2,96.8,46.3,96.2,46.3z"/>
				</g>
				<g>
					<path class="st4" d="M95.3,45.9c0,0,0.8,1,1,2c0,0,0.6,0.4,2.7,0.4s3.5,0.1,3.5-0.2c0.3-0.9,1.1-2.1,1.1-2.1s-3.1-0.3-5-0.3
						C97.1,45.7,95.3,45.9,95.3,45.9z"/>
					<path class="st2" d="M100.9,48.8c-0.5,0-1.1,0-1.9-0.1c-2.2-0.1-2.8-0.4-3-0.5l-0.2-0.1l0-0.2c-0.2-0.8-0.9-1.7-0.9-1.7
						l-0.6-0.7l0.9-0.1c0.1,0,1.9-0.2,3.4-0.2c1.9,0,5,0.3,5.1,0.3l0.9,0.1l-0.5,0.7c0,0-0.8,1.1-1,2
						C102.9,48.6,102.8,48.8,100.9,48.8z M96.7,47.5c0.3,0.1,1,0.3,2.3,0.3c2.1,0.1,2.8,0,3.1,0c0.2-0.5,0.4-0.9,0.7-1.3
						c-1-0.1-2.9-0.2-4.2-0.2c-0.8,0-1.8,0.1-2.4,0.1C96.4,46.6,96.6,47,96.7,47.5z"/>
				</g>
			</g>
		</g>
		<g>
			<path class="st1" d="M94.2,5.2c-2.2,2.3-3.9,7.1,3,7.8c3.3,0.3,9.8-1.4,13.8-1.1c4.3,0.3,9.1,4.9,9.1,8.2s-2.4,6.1-1.7,7.1
				c0.6,0.9,1.6,6.8,1.6,7.3c0,0.5,4.4-1.8,4.4-1.8s0.6-3,1.2-7.7c0.6-4.6-0.1-11.6-3-13.9c-5.9-4.7-11-11-16.7-8.2
				C100.2,5.6,96.4,2.9,94.2,5.2z"/>
		</g>
		<g>
			<path class="st2" d="M128.7,36c-0.1,0-0.1,0-0.2,0c-0.3-0.1-0.4-0.4-0.3-0.6c0.3-0.7-0.3-1.4-0.7-1.8c-0.9-0.9-2.2-1.3-2.7-1.1
				c-1.1,0.4-3.6,2.6-4.5,3.4c-0.1,0.1-0.4,0.2-0.5,0.1c-0.2-0.1-0.3-0.3-0.3-0.5c0,0,0.1-4.1-1.2-6.5c-0.9-1.6-0.3-3.2,0.3-5
				c0.5-1.4,1-2.9,0.8-4.4c-0.3-1.9-1.1-3.4-2.3-4.3c-2-1.4-4.5-1-4.5-1c-0.2,0-0.4,0-0.5-0.2c0,0-0.2-0.2-0.9-1.1
				c-0.2-0.2-0.2-0.5,0-0.7c0.2-0.2,0.5-0.2,0.7,0c0.4,0.5,0.7,0.8,0.9,0.9c0.8-0.1,3-0.2,4.9,1.2c1.5,1,2.4,2.7,2.8,4.9
				c0.3,1.8-0.3,3.4-0.8,4.9c-0.6,1.6-1,3-0.4,4.2c1,1.8,1.2,4.4,1.3,5.9c1.1-1,3-2.5,4-2.9c1.1-0.4,2.8,0.4,3.8,1.3
				c0.9,0.9,1.2,1.9,0.9,2.8C129.1,35.8,128.9,36,128.7,36z"/>
		</g>
		<g>
			<g>
				<path class="st3" d="M122.3,33.2c1.8-2.1,6.7-2.3,7,1.3c0.4,3.6-1.6,6.5-3.9,7.4c-3,1.2-4.3-0.7-4.2-2.1"/>
				<path class="st2" d="M123.7,42.8c-0.9,0-1.5-0.3-1.8-0.6c-0.8-0.6-1.2-1.5-1.1-2.5l1,0.1c0,0.5,0.2,1.2,0.7,1.6
					c0.7,0.5,1.6,0.5,2.8,0c2-0.8,3.9-3.5,3.6-6.9c-0.1-1.4-1-1.9-1.7-2.1c-1.5-0.5-3.5,0.1-4.4,1.1l-0.8-0.7c1.2-1.4,3.6-2,5.5-1.4
					c1.4,0.4,2.3,1.5,2.4,3c0.4,3.9-1.8,7-4.2,7.9C124.9,42.7,124.2,42.8,123.7,42.8z"/>
			</g>
			<g>
				<path class="st3" d="M127.6,35.5c-0.3-1.3-1.6-1.8-2.8-1.2c-1.7,0.8-1.4,4,0,4.2c1.1,0.2,2.3-0.9,1.2-1.7"/>
				<path class="st2" d="M125,39.1c-0.1,0-0.2,0-0.3,0c-0.8-0.1-1.3-0.8-1.5-1.9c-0.2-1.1,0.2-2.7,1.4-3.3c0.7-0.4,1.5-0.4,2.2-0.1
					c0.6,0.3,1.1,0.9,1.3,1.7l-1,0.3c-0.1-0.5-0.4-0.8-0.8-1c-0.4-0.2-0.9-0.1-1.3,0.1c-0.7,0.4-1,1.4-0.9,2.2c0.1,0.6,0.4,1,0.7,1
					c0.5,0.1,0.9-0.2,1-0.4c0-0.1,0.1-0.2-0.2-0.4l0.6-0.8c0.6,0.4,0.8,1,0.5,1.6C126.5,38.6,125.7,39.1,125,39.1z"/>
			</g>
			<g>
				<path class="st8" d="M123.3,39.9c0.4,0.1,0.5,0.1,0.6,0.5c0.1,0.3-0.1,0.5-0.3,0.7s-0.5,0-0.6-0.3
					C122.9,40.4,122.9,39.8,123.3,39.9z"/>
				<path class="st8" d="M123.4,41.6c-0.1,0-0.3,0-0.4-0.1c-0.2-0.1-0.4-0.3-0.5-0.6c-0.1-0.4-0.1-0.9,0.2-1.2
					c0.2-0.2,0.4-0.3,0.7-0.2l0,0c0.5,0.1,0.9,0.2,1,0.9c0.1,0.5-0.1,1-0.6,1.2C123.7,41.5,123.5,41.6,123.4,41.6z"/>
			</g>
		</g>
		<g>
			<path class="st1" d="M93.5,9.1c-2.4,1.3-3.2,2.9-4.2,5.3c-1,2.4-1.5,5.2-1.5,5.2l4.6,0.9l1-4.3l0.4,4.8l5.4-0.1l1-4.7l0.5,4.7
				l7.3,0V16l1.8,4.4l6,0c0,0,0.9-2.4,0.6-5.4c-0.2-1.7-2.2-5.4-6.6-7.1"/>
			<path class="st2" d="M93.7,21.5c-0.3,0-0.5-0.2-0.5-0.5l-0.1-1.6l-0.3,1.1c-0.1,0.3-0.3,0.4-0.6,0.4l-4.6-0.9
				c-0.3-0.1-0.4-0.3-0.4-0.6c0-0.1,0.5-2.8,1.6-5.3c1.1-2.6,2-4.2,4.4-5.5c0.2-0.1,0.5,0,0.7,0.2c0.1,0.2,0,0.5-0.2,0.7
				c-2.2,1.2-2.9,2.6-4,5.1c-0.8,1.8-1.2,3.7-1.4,4.6l3.6,0.7l0.9-3.8c0.1-0.2,0.3-0.4,0.5-0.4c0.2,0,0.4,0.2,0.5,0.5l0.3,4.3
				l4.6-0.1l0.9-4.3c0-0.2,0.2-0.4,0.5-0.4c0.2,0,0.4,0.2,0.5,0.4l0.5,4.3l6.3,0V16c0-0.2,0.2-0.4,0.4-0.5c0.2,0,0.5,0.1,0.6,0.3
				l1.7,4l5.3,0c0.2-0.7,0.7-2.6,0.5-4.8c-0.2-1.4-1.9-5-6.3-6.7c-0.3-0.1-0.4-0.4-0.3-0.6c0.1-0.3,0.4-0.4,0.6-0.3
				c4.6,1.9,6.7,5.6,7,7.6c0.3,3-0.6,5.5-0.6,5.6c-0.1,0.2-0.3,0.3-0.5,0.3l-6,0c0,0,0,0,0,0c-0.2,0-0.4-0.1-0.5-0.3l-0.8-2v2.3
				c0,0.1-0.1,0.3-0.1,0.4s-0.2,0.1-0.4,0.1l0,0l-7.3,0c-0.3,0-0.5-0.2-0.5-0.4l-0.2-1.5L99.6,21c0,0.2-0.2,0.4-0.5,0.4L93.7,21.5
				C93.7,21.5,93.7,21.5,93.7,21.5z"/>
		</g>
		<g>
			<path class="st1" d="M107.6,7.7c0,0-5-1.6-5.8-0.5c-0.8,1.1-0.6-0.2-2.1-0.4s-2.6,1.1-2.6,1.1"/>
			<path class="st2" d="M97.2,8.4c-0.1,0-0.2,0-0.3-0.1c-0.2-0.2-0.2-0.5,0-0.7c0.1-0.1,1.4-1.5,3.1-1.2c0.8,0.1,1.2,0.5,1.5,0.7
				c0,0,0,0,0,0c0,0,0.1-0.1,0.1-0.2c0.9-1.3,4.7-0.2,6.3,0.3c0.3,0.1,0.4,0.4,0.3,0.6c-0.1,0.3-0.4,0.4-0.6,0.3
				c-2.4-0.8-4.9-1.1-5.2-0.7c-0.2,0.3-0.5,0.6-0.9,0.6c-0.4,0-0.6-0.2-0.8-0.4c-0.2-0.2-0.4-0.4-0.9-0.5c-1.2-0.2-2.2,0.9-2.2,0.9
				C97.4,8.3,97.3,8.4,97.2,8.4z"/>
		</g>
		<g>
			<path class="st1" d="M123.9,29.9c-0.7,3.9,4.8,9.4-0.6,11.6c-2.6,1.1-3.1,3.7-1.5,5.5s-2.8,3.7-2.8,3.7s3-1.9,1.1-2.6
				c-1.9-0.7-1.3-1.4-0.8-4.3c0.5-2.9,4.2-5.6,2.8-7.7c-0.9-1.2-1.1-2.5-1.1-2.5"/>
			<path class="st2" d="M119.1,51.2c-0.2,0-0.4-0.1-0.4-0.3c-0.1-0.2,0-0.5,0.2-0.7c0.8-0.5,1.5-1.3,1.5-1.5c0,0-0.1-0.1-0.3-0.2
				c-2-0.7-1.7-1.8-1.4-3.5c0.1-0.4,0.2-0.8,0.3-1.4c0.2-1.3,1-2.5,1.7-3.6c1.1-1.7,1.7-2.8,1.1-3.7c-0.9-1.3-1.2-2.6-1.2-2.6
				c-0.1-0.3,0.1-0.5,0.4-0.6c0.3-0.1,0.5,0.1,0.6,0.4c0,0,0.3,1.2,1.1,2.3c1.1,1.5,0,3.2-1.1,4.8c-0.7,1.1-1.4,2.2-1.6,3.3
				c-0.1,0.5-0.2,1-0.3,1.4c-0.4,1.8-0.4,1.9,0.7,2.4c0.7,0.3,0.9,0.7,1,1c0,0,0,0,0,0.1c0.2-0.2,0.4-0.5,0.4-0.7
				c0-0.1,0-0.4-0.2-0.6c-0.9-1-1.2-2.2-0.9-3.4c0.3-1.3,1.2-2.3,2.6-2.9c2.8-1.2,2.3-3.2,1.2-6.3c-0.6-1.7-1.2-3.4-0.9-4.9
				c0-0.3,0.3-0.5,0.6-0.4c0.3,0,0.5,0.3,0.4,0.6c-0.2,1.3,0.3,2.9,0.9,4.4c1,2.8,2.1,6-1.7,7.6c-1.1,0.5-1.8,1.2-2,2.2
				c-0.2,0.9,0.1,1.8,0.7,2.5c0.5,0.6,0.5,1.1,0.4,1.5c-0.4,1.6-3.1,2.8-3.4,2.9C119.2,51.2,119.1,51.2,119.1,51.2z"/>
		</g>
		<g>
			<g>
				<path class="st1" d="M77.3,136.8c0,0,0.2,4.6,0,6.5s-0.9,5.6-0.9,5.6s13.3,5.6,24.5,5.3s18.3-0.9,20.2,0
					c1.8,0.9,14.1-1.4,14.1-1.4s-0.6-2.5-1.3-7.8c-0.3-2.3,0-5.9,0-5.9s-26.8-1.6-31.2-1.3c-4.4,0.3-15.3-2.6-18.7-2
					C80.7,136.3,77.3,136.8,77.3,136.8z"/>
				<path class="st2" d="M122.8,154.9c-0.9,0-1.5-0.1-1.9-0.2c-1.3-0.6-6.4-0.4-13.3-0.2c-2,0.1-4.2,0.2-6.6,0.2
					c-11.2,0.3-24.6-5.3-24.7-5.3l-0.4-0.2l0.1-0.4c0,0,0.7-3.7,0.8-5.6c0.2-1.8,0-6.4,0-6.4l0-0.5l0.5-0.1c0,0,3.4-0.5,6.8-1
					c1.8-0.3,5.5,0.3,9.3,1c3.6,0.6,7.3,1.2,9.4,1.1c4.4-0.3,30.2,1.3,31.3,1.3l0.5,0l0,0.5c0,0-0.3,3.6,0,5.8
					c0.7,5.2,1.3,7.7,1.3,7.7l0.1,0.5l-0.5,0.1C134.3,153.5,126.6,154.9,122.8,154.9z M116.3,153.2c2.5,0,4.2,0.1,5,0.5
					c1.2,0.6,8.6-0.5,13.3-1.3c-0.2-1-0.7-3.4-1.2-7.3c-0.2-1.8-0.1-4.4,0-5.5c-3.7-0.2-26.6-1.6-30.6-1.3c-2.2,0.2-6-0.5-9.7-1.1
					c-3.6-0.6-7.4-1.2-9-1c-2.7,0.4-5.3,0.8-6.4,1c0,1.2,0.1,4.5,0,6.1c-0.1,1.5-0.6,4.2-0.8,5.3c2.2,0.9,14,5.4,23.9,5.1
					c2.4-0.1,4.6-0.2,6.6-0.2C111.2,153.3,114.1,153.2,116.3,153.2z"/>
			</g>
			<g>
				<path class="st1" d="M77.3,146.6c0,0-5.9,4.3-15.4,34.5c-3.2,10.3-7.9,28.2-7.9,28.2s22.6,12.9,49.2,13.5
					c26.2,0.6,50.7-11.8,50.7-11.8s-1.6-9.1-3.4-18.2c-1.5-7.5-2.6-15.5-6-25.5c-3.1-9.1-9.9-18.6-9.9-18.6s-30.2-1.4-36.6-2.1
					C91.5,146,77.3,146.6,77.3,146.6z"/>
				<path class="st2" d="M104.8,223.3c-0.6,0-1.2,0-1.7,0c-26.4-0.6-49.2-13.4-49.4-13.5l-0.3-0.2l0.1-0.4c0-0.2,4.7-18.1,7.9-28.2
					c9.5-29.9,15.4-34.5,15.6-34.7l0.1-0.1l0.2,0c0.1,0,14.4-0.6,20.7,0c6.3,0.6,36.3,2.1,36.6,2.1l0.2,0l0.1,0.2
					c0.1,0.1,6.9,9.6,9.9,18.7c2.8,8.2,4,14.9,5.2,21.3c0.3,1.4,0.5,2.8,0.8,4.2c1.8,9,3.4,18.1,3.4,18.2l0.1,0.4l-0.3,0.2
					C153.7,211.5,130.2,223.3,104.8,223.3z M54.5,209.1c2.9,1.6,24.2,12.7,48.6,13.2c24.2,0.5,47.1-10.2,50.1-11.6
					c-0.3-1.8-1.7-9.8-3.3-17.8c-0.3-1.4-0.5-2.8-0.8-4.2c-1.2-6.4-2.4-13.1-5.1-21.2c-2.8-8.2-8.7-16.8-9.7-18.2
					c-2.9-0.1-30.4-1.5-36.4-2.1c-5.9-0.6-18.8-0.1-20.4,0c-0.8,0.8-6.5,6.8-15.2,34.1C59.3,190.6,55.2,206.4,54.5,209.1z"/>
			</g>
			<g>
				<path class="st1" d="M92.7,143.8c0,0,0.2,4.9,1.6,7.2s3.1,7.1,3.1,7.1"/>
				<path class="st2" d="M96.9,158.3c0,0-1.7-4.7-3.1-7c-1.5-2.4-1.6-7.2-1.7-7.4l1,0c0,0,0.2,4.8,1.5,7c1.4,2.3,3.1,7,3.2,7.2
					L96.9,158.3z"/>
			</g>
			<g>
				<path class="st1" d="M130.7,146.7c0,0,1.2,4.1,2.5,7.8c1.3,3.7-0.1,9.5-1.3,10.6"/>
				<path class="st2" d="M132.3,165.5l-0.7-0.7c1-0.9,2.4-6.4,1.1-10c-1.3-3.7-2.5-7.8-2.5-7.9l1-0.3c0,0,1.2,4.1,2.5,7.8
					C135.1,158.3,133.6,164.3,132.3,165.5z"/>
			</g>
			<g>
				<path class="st1" d="M82.7,140.7c0,0-4,11.9-6.3,16c-2.2,4.1-3.6,6.1-3.6,6.1"/>
				<path class="st2" d="M73.3,163.1l-0.8-0.6c0,0,1.4-2.1,3.6-6.1c2.2-4,6.2-15.8,6.2-15.9l0.9,0.3c-0.2,0.5-4.1,12-6.3,16.1
					C74.7,161,73.3,163.1,73.3,163.1z"/>
			</g>
		</g>
		<g>
			<path class="st1" d="M116.7,64l3.2,3.8c0,0-1.4-2.6,1.6-5.2s1.2-4.8,1.2-4.8l-4-2l-6.3,11.1L116.7,64z"/>
			<path class="st2" d="M119.9,68.3c-0.1,0-0.3-0.1-0.4-0.2l-2.9-3.4l-3.9,2.6c-0.2,0.1-0.4,0.1-0.6-0.1s-0.2-0.4-0.1-0.6l6.3-11.1
				c0.1-0.2,0.4-0.3,0.7-0.2l4,2c0.1,0,0.1,0.1,0.2,0.1c0,0,2,2.7-1.3,5.5c-2.6,2.2-1.5,4.5-1.5,4.6c0.1,0.2,0,0.5-0.2,0.6
				C120.1,68.3,120,68.3,119.9,68.3z M116.7,63.5c0.1,0,0.3,0.1,0.4,0.2l2,2.4c0.1-1.1,0.5-2.5,2.1-3.8c2.3-2,1.5-3.7,1.2-4.1
				l-3.4-1.7l-5,8.8l2.5-1.7C116.6,63.5,116.7,63.5,116.7,63.5z"/>
		</g>
		<g>
			<path class="st1" d="M93.4,59.2c-1.2,0.9-3.8,6.2-3.8,6.2l3.6-0.3l2.1,2.2l2.8,5.4c0,0-3.1-5.9-2.8-8.7c0.3-2.8,0.8-5.9,0.8-5.9
				S94.5,58.3,93.4,59.2z"/>
			<path class="st2" d="M98.1,73.2c-0.2,0-0.4-0.1-0.4-0.3c0,0,0-0.1-0.1-0.2l-2.7-5.2l-1.9-2l-3.4,0.3c-0.2,0-0.4-0.1-0.5-0.2
				s-0.1-0.3,0-0.5c0.3-0.6,2.7-5.5,4-6.4l0,0c1.3-0.9,2.9-1.1,2.9-1.2c0.2,0,0.3,0,0.4,0.1c0.1,0.1,0.2,0.3,0.1,0.4
				c0,0-0.5,3.1-0.8,5.9c-0.2,2.4,2.3,7.6,2.7,8.3l0,0.1c0.1,0.2,0,0.5-0.2,0.7C98.3,73.2,98.2,73.2,98.1,73.2z M93.2,64.6
				c0.1,0,0.3,0.1,0.4,0.2l1.5,1.6c-0.2-0.8-0.3-1.6-0.2-2.3c0.2-2,0.5-4.1,0.7-5.2c-0.5,0.1-1.2,0.4-1.8,0.8l0,0
				c-0.7,0.5-2.2,3.2-3.3,5.3L93.2,64.6C93.1,64.6,93.2,64.6,93.2,64.6z M93.4,59.2L93.4,59.2L93.4,59.2z"/>
		</g>
		<g>
			<g>
				<circle class="st2" cx="101.8" cy="83.5" r="1.2"/>
			</g>
			<g>
				<circle cx="101.8" cy="94.1" r="1.2"/>
			</g>
			<g>
				<circle cx="101.8" cy="104.1" r="1.2"/>
			</g>
			<g>
				<circle cx="101.8" cy="112.4" r="1.2"/>
			</g>
			<g>
				<circle cx="101.8" cy="123.1" r="1.2"/>
			</g>
			<g>
				<circle class="st2" cx="101.8" cy="133.1" r="1.2"/>
			</g>
		</g>
		<g>
			<g>
				<g>
					<g>
						<g>
							<polygon class="st9" points="107.4,85.1 76.8,81.9 76.8,121.2 106.8,125.3 							"/>
							<path class="st2" d="M107.2,125.9l-30.9-4.2V81.3l31.6,3.4L107.2,125.9z M77.3,120.8l29,4l0.6-39.2l-29.5-3.2V120.8z"/>
						</g>
					</g>
					<g>
						<g>
							<circle class="st2" cx="93.4" cy="97.4" r="1.3"/>
						</g>
						<g>
							<circle class="st2" cx="88.6" cy="96.2" r="1.3"/>
						</g>
						<g>
							<circle class="st2" cx="90.5" cy="95.9" r="1.3"/>
						</g>
						<g>
							<circle class="st2" cx="90" cy="97.2" r="1.3"/>
						</g>
						<g>
							<circle class="st2" cx="91.8" cy="96.5" r="1.3"/>
						</g>
						<g>
							<circle class="st2" cx="94.3" cy="96.2" r="1.3"/>
						</g>
						<g>
							<circle class="st2" cx="91.4" cy="97.8" r="1.3"/>
						</g>
						<g>
							<circle class="st2" cx="92.5" cy="98.7" r="1.3"/>
						</g>
						<g>
							<circle class="st2" cx="89.5" cy="101.3" r="1.3"/>
						</g>
						<g>
							<circle class="st2" cx="89.7" cy="99.1" r="1.3"/>
						</g>
						<g>
							<circle class="st2" cx="91.6" cy="100" r="1.3"/>
						</g>
						<g>
							<path class="st2" d="M91.7,95.8c0,0,0.9-1.1,1-1.7c0.1-0.5-0.2-1.6-0.2-1.6h-1.1c0,0,0.9,0.5,0.7,1.3
								C91.8,94.6,91.7,95.8,91.7,95.8z"/>
						</g>
					</g>
					<g>
						<circle class="st0" cx="79.7" cy="86.2" r="1.5"/>
						<path class="st2" d="M79.7,88.2c-1.1,0-2-0.9-2-2c0-1.1,0.9-2,2-2c1.1,0,2,0.9,2,2C81.7,87.3,80.8,88.2,79.7,88.2z M79.7,85.2
							c-0.6,0-1,0.5-1,1s0.5,1,1,1s1-0.5,1-1S80.2,85.2,79.7,85.2z"/>
					</g>
				</g>
				<g>
					<path class="st3" d="M138,100.4c0,0,1.7,5.3,1.7,13.9c0,3-0.1,4.4-0.1,4.4c-5.9-2.2-24.6-8.5-27.3-11.9
						c-2.2-2.5-5.5-6.4-6.6-6.8c-1.6-0.6-11-0.6-11.7,2.6c-0.7,3.2,0.1,3.1,0.1,3.1s-3.2,0.7-2.7,1.8c0.6,1.1,2.3,2.4,2.3,2.4
						s-4.1,1.6-3.4,2.1s0.9,3.2,2.3,3.4c1.4,0.2,7.7,4.3,11.1,4.4c5.4,0.1,6.1-0.3,6.4-0.2c6.2,3.2,39.3,15,41.3,12.9
						s2.2-32.1,2.2-32.1H138z"/>
					<path class="st2" d="M150.5,133.2c-7,0-35.9-10.7-40.5-13.1c0,0-0.2,0-0.4,0.1c-0.7,0.1-2.3,0.2-5.8,0.2
						c-2.3,0-5.8-1.8-8.4-3.1c-1.2-0.6-2.4-1.2-2.8-1.3c-1.1-0.2-1.6-1.4-2-2.5c-0.2-0.4-0.4-1-0.5-1.1c-0.2-0.2-0.3-0.4-0.3-0.6
						c0-0.2,0.1-0.8,3-2c-0.6-0.5-1.4-1.3-1.8-2c-0.2-0.3-0.2-0.6,0-0.9c0.3-0.7,1.5-1.2,2.3-1.4c-0.1-0.5-0.1-1.3,0.2-2.9
						c0.2-0.8,0.8-1.5,1.7-2c3-1.6,9.2-1.5,10.6-1c0.3,0.1,1.3,0.5,6.8,6.9c2.2,2.9,17.2,8.2,24.3,10.8c0.8,0.3,1.5,0.5,2.1,0.7
						c0-0.7,0.1-1.9,0.1-3.7c0-8.4-1.7-13.7-1.7-13.7l-0.2-0.7h16.9l0,0.5c0,5-0.3,30.3-2.3,32.5C151.7,133,151.2,133.2,150.5,133.2
						z M110,119.1c0.2,0,0.3,0,0.4,0.1c7.5,3.8,38.8,14.5,40.7,12.9c1.4-1.4,2-19.7,2.1-31.3h-14.5c0.5,1.7,1.5,6.4,1.5,13.4
						c0,2.9-0.1,4.4-0.1,4.4l-0.1,0.6l-0.6-0.2c-0.7-0.3-1.6-0.6-2.7-1c-7.8-2.8-22.4-8-24.8-11.1c-4.9-5.7-6.1-6.5-6.4-6.6
						c-1.1-0.4-7.1-0.5-9.8,0.9c-0.7,0.4-1.1,0.8-1.2,1.3c-0.5,2.1-0.2,2.5-0.2,2.6c0,0-0.1-0.1-0.3-0.1l0.2,1
						c-1.2,0.3-2.3,0.8-2.3,1.1c0.4,0.8,1.7,1.9,2.2,2.2l0.7,0.5l-0.8,0.3c-1.2,0.5-2.6,1.1-3.1,1.5c0.3,0.3,0.4,0.8,0.6,1.3
						c0.3,0.8,0.7,1.7,1.2,1.8c0.5,0.1,1.5,0.6,3.1,1.4c2.5,1.2,5.8,3,8,3c3.5,0.1,5-0.1,5.7-0.2C109.7,119.1,109.9,119.1,110,119.1
						z"/>
				</g>
			</g>
			<g>
				<path class="st4" d="M138.9,86.3c0,0-2.4,18.3-1.7,21.3c0.7,3,19.4,2.5,19.4,2.5c-1.5-22.4-0.7-28.6-2.7-33.4
					c-3.5-8.4-3.1-11.6-17.6-16c-3.1-0.9-5.2,1.6-5.2,1.6"/>
				<path class="st2" d="M152.4,110.7c-6.1,0-15.2-0.4-15.8-2.9c-0.7-3.1,1.6-20.7,1.7-21.5l1,0.1c-0.8,6.3-2.3,18.8-1.8,21.1
					c0.3,1.6,9.7,2.3,18.4,2.1c-0.5-8.2-0.8-14.2-1-18.7c-0.3-7.6-0.4-11.1-1.6-14c-0.4-0.9-0.7-1.8-1-2.6
					c-2.5-6.6-3.6-9.3-16.2-13.1c-2.7-0.8-4.7,1.4-4.7,1.4l-0.8-0.6c0.1-0.1,2.4-2.8,5.8-1.8c13.1,4,14.3,7,16.9,13.7
					c0.3,0.8,0.6,1.6,1,2.5c1.3,3.1,1.4,6.6,1.7,14.4c0.2,4.5,0.4,10.7,1,19.2l0,0.5l-0.5,0C155.6,110.6,154.2,110.7,152.4,110.7z"
					/>
			</g>
		</g>
		<g>
			<g>
				<g>
					<path class="st0" d="M130,83.2v-4.3c0-0.7-0.6-1.3-1.3-1.3c-0.3,0-0.5,0.1-0.8,0.2c-0.2-0.5-0.7-0.9-1.3-0.9
						c-0.6,0-1.1,0.4-1.3,0.9c-0.2-0.1-0.5-0.2-0.8-0.2c-0.7,0-1.3,0.6-1.3,1.3v0.9c-0.2-0.1-0.4-0.2-0.7-0.2
						c-0.7,0-1.3,0.6-1.3,1.3v3.2V85v4.6c0,0.8,0,1.1,0.2,1.3c0.2,0.1,0.4,0.1,0.8,0.1h3.7h0h3.4c0.7,0,1.4-0.6,1.4-1.4v-2v-3.4
						C130.7,83.9,130.4,83.4,130,83.2z"/>
				</g>
				<g>
					<g id="Grupo_620_4_" transform="translate(4276 -95)">
						<g id="Rectángulo_140_4_" transform="translate(-4273 96)">
							<g>
								<g>
									<path class="st2" d="M122.6,82.8c-0.2,0-0.3-0.1-0.3-0.3v-4.5c0-0.4-0.3-0.7-0.7-0.7s-0.7,0.3-0.7,0.7v4.5
										c0,0.2-0.1,0.3-0.3,0.3s-0.3-0.1-0.3-0.3v-4.5c0-0.7,0.6-1.3,1.3-1.3s1.3,0.6,1.3,1.3v4.5
										C122.9,82.7,122.8,82.8,122.6,82.8z"/>
									<path class="st2" d="M122.6,82.9c-0.2,0-0.4-0.2-0.4-0.4v-4.5c0-0.3-0.3-0.6-0.6-0.6s-0.6,0.3-0.6,0.6v4.5
										c0,0.2-0.2,0.4-0.4,0.4s-0.4-0.2-0.4-0.4v-4.5c0-0.8,0.7-1.4,1.4-1.4s1.4,0.7,1.4,1.4v4.5c0,0.1,0,0.2-0.1,0.3
										C122.8,82.9,122.7,82.9,122.6,82.9z M121.6,77.2c0.4,0,0.8,0.4,0.8,0.8v4.5c0,0.1,0.1,0.2,0.2,0.2c0.1,0,0.1,0,0.2-0.1
										c0,0,0.1-0.1,0-0.1l0-4.6c0-0.7-0.6-1.2-1.2-1.2c-0.7,0-1.2,0.6-1.2,1.2v4.5c0,0.1,0.1,0.2,0.2,0.2s0.2-0.1,0.2-0.2v-4.5
										C120.8,77.5,121.2,77.2,121.6,77.2z"/>
								</g>
							</g>
						</g>
						<g id="Rectángulo_143_4_" transform="translate(-4276 99)">
							<g>
								<g>
									<path class="st2" d="M121.5,81.4c-0.2,0-0.3-0.1-0.3-0.3V77c0-0.7,0.6-1.3,1.3-1.3s1.3,0.6,1.3,1.3v2
										c0,0.2-0.1,0.3-0.3,0.3s-0.3-0.1-0.3-0.3v-2c0-0.4-0.3-0.7-0.7-0.7s-0.7,0.3-0.7,0.7V81C121.9,81.2,121.7,81.4,121.5,81.4z
										"/>
									<path class="st2" d="M121.5,81.5c-0.2,0-0.4-0.2-0.4-0.4V77c0-0.8,0.7-1.4,1.4-1.4s1.4,0.7,1.4,1.4v2
										c0,0.2-0.2,0.4-0.4,0.4s-0.4-0.2-0.4-0.4v-2c0-0.3-0.3-0.6-0.6-0.6S122,76.7,122,77V81C122,81.3,121.8,81.5,121.5,81.5z
										 M122.6,75.7c-0.7,0-1.2,0.6-1.2,1.2V81c0,0.1,0.1,0.2,0.2,0.2c0.1,0,0.2-0.1,0.2-0.2V77c0-0.4,0.4-0.8,0.8-0.8
										c0.4,0,0.8,0.4,0.8,0.8v2c0,0.1,0.1,0.2,0.2,0.2s0.2-0.1,0.2-0.2v-2C123.8,76.3,123.2,75.7,122.6,75.7z"/>
								</g>
							</g>
						</g>
						<g id="Rectángulo_141_4_" transform="translate(-4270 95)">
							<g>
								<g>
									<path class="st2" d="M121.6,83.9c-0.2,0-0.3-0.1-0.3-0.3v-5.3c0-0.4-0.3-0.7-0.7-0.7c-0.4,0-0.7,0.3-0.7,0.7v5.1
										c0,0.2-0.1,0.3-0.3,0.3c-0.2,0-0.4-0.1-0.4-0.3v-5.1c0-0.7,0.6-1.3,1.3-1.3s1.3,0.6,1.3,1.3v5.3
										C122,83.7,121.8,83.9,121.6,83.9z"/>
									<path class="st2" d="M121.6,84c-0.2,0-0.4-0.2-0.4-0.4v-5.3c0-0.3-0.3-0.6-0.6-0.6S120,78,120,78.3v5.1
										c0,0.2-0.2,0.4-0.4,0.4c-0.2,0-0.5-0.2-0.5-0.4v-5.1c0-0.8,0.7-1.4,1.4-1.4s1.4,0.7,1.4,1.4v5.3c0,0.1,0,0.2-0.1,0.3
										C121.9,83.9,121.8,84,121.6,84z M120.6,77.5c0.4,0,0.8,0.4,0.8,0.8v5.3c0,0.1,0.1,0.2,0.2,0.2c0.1,0,0.1,0,0.2-0.1
										c0,0,0.1-0.1,0-0.2l0-5.3c0-0.7-0.6-1.2-1.2-1.2s-1.2,0.6-1.2,1.2v5.1c0,0.1,0.1,0.2,0.3,0.2c0.1,0,0.2-0.1,0.2-0.2v-5.1
										C119.8,77.8,120.2,77.5,120.6,77.5z"/>
								</g>
							</g>
						</g>
						<g id="Rectángulo_142_4_" transform="translate(-4267 96)">
							<g>
								<g>
									<path class="st2" d="M118.6,82.8c-0.2,0-0.3-0.1-0.3-0.3v-4.5c0-0.7,0.6-1.3,1.3-1.3s1.3,0.6,1.3,1.3v4.3
										c0,0.2-0.1,0.3-0.3,0.3s-0.3-0.1-0.3-0.3v-4.3c0-0.4-0.3-0.7-0.7-0.7s-0.7,0.3-0.7,0.7v4.5C119,82.7,118.8,82.8,118.6,82.8
										z"/>
									<path class="st2" d="M118.6,82.9c-0.2,0-0.4-0.2-0.4-0.4v-4.5c0-0.8,0.7-1.4,1.4-1.4s1.4,0.7,1.4,1.4v4.3
										c0,0.2-0.2,0.4-0.4,0.4c-0.2,0-0.4-0.2-0.4-0.4v-4.3c0-0.3-0.3-0.6-0.6-0.6s-0.6,0.3-0.6,0.6v4.5
										C119.1,82.7,118.9,82.9,118.6,82.9z M119.7,76.7c-0.7,0-1.2,0.6-1.2,1.2v4.5c0,0.1,0.1,0.2,0.2,0.2s0.2-0.1,0.2-0.2v-4.5
										c0-0.4,0.4-0.8,0.8-0.8s0.8,0.4,0.8,0.8v4.3c0,0.1,0.1,0.2,0.2,0.2c0.1,0,0.2-0.1,0.2-0.2v-4.3
										C120.9,77.3,120.3,76.7,119.7,76.7z"/>
								</g>
							</g>
						</g>
						<g id="Unión_4_4_" transform="translate(-4271 104)">
							<g>
								<path class="st2" d="M124.3,81.5c0.4,0,0.7-0.3,0.7-0.7v-2v-3.4c0-0.4-0.3-0.7-0.7-0.7s-0.7,0.3-0.7,0.7v2.9v0.6l-0.6,0.1
									c-0.4,0-0.8,0.1-1.1,0.1c-0.9,0.3-1.2,1.1-1.2,1.2c-0.1,0.5,0,1,0.1,1.2c0.1,0.1,0.1,0.1,0.1,0.1L124.3,81.5 M124.3,82.1
									h-3.4c-0.7,0-1.2-1-0.9-2.1c0,0,0.3-1.4,1.7-1.7c0.3-0.1,0.7-0.1,1.2-0.2v-2.8c0-0.7,0.6-1.4,1.4-1.4c0.7,0,1.4,0.6,1.4,1.4
									v3.4v2C125.7,81.5,125.1,82.1,124.3,82.1z"/>
								<path class="st2" d="M124.3,82.2h-3.4c-0.3,0-0.5-0.1-0.7-0.4c-0.3-0.4-0.4-1.1-0.3-1.9c0-0.1,0.4-1.4,1.8-1.8l0.1,0
									c0.3-0.1,0.6-0.1,1-0.2v-2.7c0-0.8,0.7-1.5,1.5-1.5c0.8,0,1.5,0.7,1.5,1.5v5.4C125.8,81.6,125.1,82.2,124.3,82.2z
									 M124.3,74.1c-0.7,0-1.3,0.6-1.3,1.3v2.9l-0.1,0c-0.4,0.1-0.8,0.1-1.1,0.2l-0.1,0c-1.3,0.3-1.6,1.6-1.6,1.6
									c-0.2,0.6-0.1,1.3,0.2,1.7c0.2,0.2,0.3,0.3,0.6,0.3h3.4c0.7,0,1.2-0.6,1.3-1.3v-5.4C125.6,74.7,125,74.1,124.3,74.1z
									 M121,81.6c-0.1,0-0.1,0-0.2-0.1c-0.1-0.1-0.4-0.6-0.2-1.2c0-0.2,0.4-1,1.3-1.3c0.3-0.1,0.7-0.1,1.1-0.1l0.5-0.1v-3.4
									c0-0.5,0.3-0.8,0.8-0.8c0.5,0,0.8,0.3,0.8,0.8v5.4c0,0.5-0.3,0.8-0.8,0.8L121,81.6z M124.3,74.8c-0.4,0-0.6,0.2-0.6,0.6v3.6
									L123,79c-0.4,0-0.8,0.1-1.1,0.1c-0.8,0.3-1.1,1-1.1,1.1l0,0c-0.1,0.5,0,0.9,0.1,1.1c0,0,0,0,0,0c0,0,0,0,0,0l3.3,0
									c0.4,0,0.6-0.2,0.6-0.6v-5.4C124.9,75,124.7,74.8,124.3,74.8z"/>
							</g>
						</g>
					</g>
					<g>
						<g>
							<path class="st2" d="M126.3,91.1h-4.1c-0.3,0-0.6,0-0.8-0.1c-0.2-0.2-0.2-0.5-0.2-1.3v-5.5h0.7v5.5c0,0.4,0,0.7,0,0.8
								c0.1,0,0.2,0,0.3,0h4.1V91.1z"/>
							<path class="st2" d="M126.4,91.2h-4.2c-0.3,0-0.6,0-0.8-0.2c-0.3-0.2-0.3-0.5-0.3-1.4v-5.6h0.9v5.6c0,0.3,0,0.5,0,0.7h4.4
								V91.2z M121.3,84.3v5.4c0,0.9,0,1.1,0.2,1.2c0.2,0.1,0.4,0.1,0.7,0.1h4v-0.5h-4.4l0-0.1c0-0.1,0-0.4,0-0.8v-5.4H121.3z"/>
						</g>
					</g>
				</g>
			</g>
			<g>
				<g>
					<circle class="st4" cx="120.1" cy="85.6" r="2.6"/>
					<path class="st2" d="M120.1,88.6c-1.6,0-3-1.3-3-3s1.3-3,3-3s3,1.3,3,3S121.7,88.6,120.1,88.6z M120.1,83.4
						c-1.2,0-2.2,1-2.2,2.2s1,2.2,2.2,2.2s2.2-1,2.2-2.2S121.3,83.4,120.1,83.4z"/>
				</g>
				<g>
					<polygon class="st1" points="119.4,84 119.4,87.3 121,85.7 					"/>
					<path class="st1" d="M119.4,87.5C119.4,87.5,119.3,87.5,119.4,87.5c-0.2-0.1-0.3-0.1-0.3-0.3V84c0-0.1,0.1-0.2,0.2-0.2
						c0.1,0,0.2,0,0.3,0.1l1.7,1.7c0,0,0.1,0.1,0.1,0.2c0,0.1,0,0.1-0.1,0.2l-1.7,1.6C119.5,87.5,119.5,87.5,119.4,87.5z
						 M119.6,84.6v2.1l1.1-1L119.6,84.6z"/>
				</g>
			</g>
		</g>
	</g>
</g>
</svg>
