<svg xmlns="http://www.w3.org/2000/svg" width="11.543" height="17.186" viewBox="0 0 11.543 17.186">
  <g id="Grupo_20" data-name="Grupo 20" transform="translate(-945.928 -842.78)">
    <path id="Trazado_36" data-name="Trazado 36" d="M949.375,849.362l-2.65-1.2,3.878-4.778,5.372,2.228-1.35,1.9" fill="#4fe0f5" stroke="#8b57ce" stroke-width="1"/>
    <g id="Grupo_1203" data-name="Grupo 1203" transform="translate(-2957.5 6126.717)">
      <g id="Elipse_71" data-name="Elipse 71" transform="translate(3906.486 -5280.867)" fill="#fff" stroke="#8b57ce" stroke-width="1">
        <circle cx="3.12" cy="3.12" r="3.12" stroke="none"/>
        <circle cx="3.12" cy="3.12" r="2.62" fill="none"/>
      </g>
      <g id="Rectángulo_231" data-name="Rectángulo 231" transform="translate(3904.5 -5274.123)">
        <path id="Trazado_21" data-name="Trazado 21" d="M3.837,1H7.568A2.837,2.837,0,0,1,10.4,3.836v2.9a.567.567,0,0,1-.567.567H1.567A.567.567,0,0,1,1,6.737v-2.9A2.837,2.837,0,0,1,3.837,1Z" transform="translate(-0.433 -0.433)" fill="#4fe0f5" stroke="#8b57ce" stroke-width="1"/>
      </g>
    </g>
  </g>
</svg>
