<svg xmlns="http://www.w3.org/2000/svg" width="14" height="15" viewBox="0 0 14 15">
  <g id="Grupo_578" data-name="Grupo 578" transform="translate(-151 -544)">
    <g id="Trazado_137" data-name="Trazado 137" transform="translate(151 544)">
      <path id="Trazado_37" data-name="Trazado 37" d="M6.5,14.424l-6-.857V.576l6,.857Z" fill="#fff"/>
      <path id="Trazado_38" data-name="Trazado 38" d="M1,1.153v11.98l5,.714V1.867L1,1.153M0,0,7,1V15L0,14Z" fill="#8b57ce"/>
    </g>
    <g id="Trazado_138" data-name="Trazado 138" transform="translate(158 544)">
      <path id="Trazado_39" data-name="Trazado 39" d="M.5,14.424V1.434l6-.857v12.99Z" fill="#fff"/>
      <path id="Trazado_40" data-name="Trazado 40" d="M6,1.153,1,1.867v11.98l5-.714V1.153M7,0V14L0,15V1Z" fill="#8b57ce"/>
    </g>
    <g id="Grupo_560" data-name="Grupo 560">
      <path id="Trazado_139" data-name="Trazado 139" d="M-5611,137.75l3.05.5" transform="translate(5764 409)" fill="none" stroke="#8b57ce" stroke-linecap="round" stroke-width="1"/>
      <path id="Trazado_143" data-name="Trazado 143" d="M-5611,137.75l3.05.5" transform="translate(5764 415)" fill="none" stroke="#8b57ce" stroke-linecap="round" stroke-width="1"/>
      <path id="Trazado_141" data-name="Trazado 141" d="M-5611,137.75l3.05.5" transform="translate(5764 413)" fill="none" stroke="#8b57ce" stroke-linecap="round" stroke-width="1"/>
      <path id="Trazado_142" data-name="Trazado 142" d="M-5611,137.75l3.05.5" transform="translate(5764 417)" fill="none" stroke="#8b57ce" stroke-linecap="round" stroke-width="1"/>
    </g>
    <g id="Grupo_561" data-name="Grupo 561" transform="translate(160 546.75)">
      <path id="Trazado_143-2" data-name="Trazado 143" d="M-5607.95,137.75l-3.05.5" transform="translate(5611 -131.75)" fill="none" stroke="#8b57ce" stroke-linecap="round" stroke-width="1"/>
      <path id="Trazado_141-2" data-name="Trazado 141" d="M-5607.95,137.75l-3.05.5" transform="translate(5611 -133.75)" fill="none" stroke="#8b57ce" stroke-linecap="round" stroke-width="1"/>
      <path id="Trazado_142-2" data-name="Trazado 142" d="M-5607.95,137.75l-3.05.5" transform="translate(5611 -129.75)" fill="none" stroke="#8b57ce" stroke-linecap="round" stroke-width="1"/>
      <path id="Trazado_144" data-name="Trazado 144" d="M.138,1.016,5.212-.022v3L.138,4.016Z" transform="translate(-1.175 -0.75)" fill="#4fe0f5"/>
    </g>
  </g>
</svg>
