<?xml version="1.0" encoding="utf-8"?>
<!-- Generator: Adobe Illustrator 24.2.1, SVG Export Plug-In . SVG Version: 6.00 Build 0)  -->
<svg version="1.1" id="Capa_1" xmlns="http://www.w3.org/2000/svg" xmlns:xlink="http://www.w3.org/1999/xlink" x="0px" y="0px"
	 viewBox="0 0 224.1 224" style="enable-background:new 0 0 224.1 224;" xml:space="preserve">
<style type="text/css">
	.st0{fill:#89D5E0;}
	.st1{fill:#FFFFFF;}
	.st2{fill:none;stroke:#333333;stroke-miterlimit:10;}
	.st3{fill:#8B57CE;}
	.st4{fill:#333333;}
	.st5{fill:#333333;stroke:#000000;stroke-miterlimit:10;}
</style>
<g>
	<circle class="st0" cx="116.9" cy="112" r="104.5"/>
	<g>
		<g>
			<path class="st1" d="M2.7,173.9c0,1.7,1.3,3,3,3h175.7c1.7,0,3-1.3,3-3V50.1c0-1.7-1.3-3-3-3H5.7c-1.7,0-3,1.3-3,3V173.9z"/>
			<path class="st2" d="M2.7,173.9c0,1.7,1.3,3,3,3h175.7c1.7,0,3-1.3,3-3V50.1c0-1.7-1.3-3-3-3H5.7c-1.7,0-3,1.3-3,3V173.9z"/>
		</g>
		<g>
			<path class="st3" d="M67.5,64.3V53.5h2.3l3.3,7l3.3-7h2.3v10.8h-1.9v-7.5l-2.9,6.1h-1.7l-2.8-6.1v7.5H67.5z"/>
			<path class="st3" d="M80.3,63.9l3.3-10.4h3L90,63.9l-0.3,0.4h-1.6l-0.8-2.4h-4.5l-0.7,2.4h-1.6L80.3,63.9z M83.4,60.1h3.4l-1.6-5
				H85L83.4,60.1z"/>
			<path class="st3" d="M91.6,64.3V53.5h5.2c1.7,0,2.5,0.8,2.5,2.5v1.8c0,1.3-0.5,2.1-1.6,2.4l1.9,3.7l-0.2,0.4h-1.6l-2-4h-2.3v4
				H91.6z M93.5,58.6h3.2c0.5,0,0.7-0.2,0.7-0.7v-2c0-0.5-0.2-0.7-0.7-0.7h-3.2V58.6z"/>
			<path class="st3" d="M101,64.3v-1.5l5.5-7.6h-5.3v-1.7h7.7V55l-5.5,7.6h5.7v1.7H101z"/>
			<path class="st3" d="M111,61.7V56c0-1.7,0.8-2.5,2.5-2.5h3.6c1.7,0,2.5,0.8,2.5,2.5v5.7c0,1.7-0.8,2.5-2.5,2.5h-3.6
				C111.8,64.3,111,63.4,111,61.7z M112.9,61.8c0,0.5,0.2,0.7,0.7,0.7h3.5c0.5,0,0.7-0.2,0.7-0.7v-6c0-0.5-0.2-0.7-0.7-0.7h-3.5
				c-0.5,0-0.7,0.2-0.7,0.7V61.8z"/>
		</g>
		<g>
			<g>
				<g>
					<path class="st4" d="M17,97.5v-0.8h1.7v-5.4h-1.4v-0.4l0.5-0.4h1.8v6.1h1.5v0.8H17z"/>
				</g>
				<g>
					<path class="st4" d="M41.6,97.5v-2.1c0-0.8,0.4-1.3,1.1-1.5l2-0.4c0.3-0.1,0.5-0.3,0.5-0.7V92c0-0.5-0.2-0.7-0.7-0.7h-2.8v-0.4
						l0.5-0.4h2.3c1,0,1.5,0.5,1.5,1.5v0.7c0,0.8-0.4,1.3-1.1,1.5l-2,0.4c-0.3,0.1-0.5,0.3-0.5,0.7v1.4h3.7v0.8H41.6z"/>
				</g>
				<g>
					<path class="st4" d="M66.5,97.1v-0.4h2.9c0.5,0,0.7-0.2,0.7-0.7v-1.1c0-0.5-0.2-0.7-0.7-0.7h-2.1v-0.8h2.1
						c0.5,0,0.7-0.2,0.7-0.7V92c0-0.5-0.2-0.7-0.7-0.7h-2.8v-0.4l0.5-0.4h2.3c1,0,1.5,0.5,1.5,1.5v0.7c0,0.3-0.1,0.5-0.3,0.6
						l-0.3,0.4l0.3,0.3c0.2,0.2,0.3,0.4,0.3,0.7v1.1c0,1-0.5,1.5-1.5,1.5H67L66.5,97.1z"/>
				</g>
				<g>
					<path class="st4" d="M91.3,96.2v-0.7l2.3-4.9h0.7l0.1,0.2l-2.2,4.7H95v-2.3h0.8v4.3H95v-1.3H91.3z"/>
				</g>
				<g>
					<path class="st4" d="M116.1,97.1v-0.4h3.1c0.5,0,0.7-0.2,0.7-0.7v-1.2c0-0.5-0.2-0.7-0.7-0.7h-3v-3.6h4.2v0.8H117v2h2.1
						c1,0,1.5,0.5,1.5,1.5v1c0,1-0.5,1.5-1.5,1.5h-2.6L116.1,97.1z"/>
				</g>
				<g>
					<path class="st4" d="M141.1,95.9v-3.5c0-1.2,0.6-1.8,1.8-1.8h1.8l0.5,0.4v0.4h-2.3c-0.6,0-1,0.3-1,1v1.1h2.1
						c1,0,1.5,0.5,1.5,1.5v1c0,1-0.5,1.5-1.5,1.5h-1.4C141.6,97.5,141.1,97,141.1,95.9z M141.9,96c0,0.5,0.2,0.7,0.7,0.7h1.5
						c0.5,0,0.7-0.2,0.7-0.7v-1.2c0-0.5-0.2-0.7-0.7-0.7h-2.1V96z"/>
				</g>
				<g>
					<path class="st4" d="M166,91.3v-0.8h4.5v1.8l-2.7,5.2H167l-0.1-0.2l2.7-5.1v-0.8H166z"/>
				</g>
			</g>
			<g>
				<g>
					<path class="st4" d="M16.6,80.6v-8.3h1.7v6.7h3.6v1.6H16.6z"/>
				</g>
				<g>
					<path class="st4" d="M39.4,80.6v-8.3h2.1l2.3,5l2.3-5h2.1v8.3h-1.7v-5.2l-1.9,4.2h-1.5l-1.9-4.2v5.2H39.4z"/>
				</g>
				<g>
					<path class="st4" d="M65.1,80.3l2.6-3.9l-2.4-3.7l0.2-0.3H67l1.7,2.6l1.7-2.6h1.5l0.2,0.3l-2.4,3.7l2.6,3.9l-0.2,0.3h-1.5
						l-1.9-2.9l-1.9,2.9h-1.5L65.1,80.3z"/>
				</g>
				<g>
					<path class="st4" d="M90.5,78.6V77h1.7v1.7c0,0.2,0.1,0.4,0.4,0.4h1.6c0.2,0,0.4-0.1,0.4-0.4v-4.8h-2.3v-1.6h4v6.3
						c0,1.3-0.7,2-2,2h-1.8C91.2,80.6,90.5,80,90.5,78.6z"/>
				</g>
				<g>
					<path class="st4" d="M114.7,72.7l0.2-0.3h1.5l1.9,6.7h0.2l1.9-6.7h1.5l0.2,0.3l-2.4,8h-2.7L114.7,72.7z"/>
				</g>
				<g>
					<path class="st4" d="M140.4,80v-0.9h3.7c0.2,0,0.4-0.1,0.4-0.4v-0.9c0-0.2-0.1-0.4-0.3-0.4l-2.3-0.5c-1-0.2-1.4-0.8-1.4-1.9
						v-0.7c0-1.3,0.7-2,2-2h2.7L146,73v0.9h-3.5c-0.2,0-0.4,0.1-0.4,0.4v0.8c0,0.2,0.1,0.4,0.3,0.4l2.3,0.5c1,0.2,1.4,0.8,1.4,1.9
						v0.8c0,1.3-0.7,2-2,2h-3L140.4,80z"/>
				</g>
				<g>
					<path class="st4" d="M165.1,80.6v-8.3h3.1c2.3,0,3.4,1.1,3.4,3.4v1.5c0,2.3-1.1,3.4-3.4,3.4H165.1z M166.8,79.1h1.5
						c1,0,1.6-0.5,1.6-1.6v-2c0-1-0.5-1.6-1.6-1.6h-1.5V79.1z"/>
				</g>
			</g>
			<g>
				<g>
					<path class="st4" d="M16.7,114.1V113c0-0.3,0.1-0.5,0.3-0.7l0.4-0.3l-0.4-0.4c-0.2-0.2-0.3-0.4-0.3-0.6v-0.7
						c0-1,0.5-1.5,1.5-1.5h1.4c1,0,1.5,0.5,1.5,1.5v0.7c0,0.3-0.1,0.5-0.3,0.6l-0.3,0.4l0.3,0.3c0.2,0.2,0.3,0.4,0.3,0.7v1.1
						c0,1-0.5,1.5-1.5,1.5h-1.4C17.2,115.7,16.7,115.1,16.7,114.1z M17.5,111c0,0.5,0.2,0.7,0.7,0.7h1.5c0.5,0,0.7-0.2,0.7-0.7v-0.8
						c0-0.5-0.2-0.7-0.7-0.7h-1.5c-0.5,0-0.7,0.2-0.7,0.7V111z M17.5,114.2c0,0.5,0.2,0.7,0.7,0.7h1.5c0.5,0,0.7-0.2,0.7-0.7v-1.1
						c0-0.5-0.2-0.7-0.7-0.7h-1.5c-0.5,0-0.7,0.2-0.7,0.7V114.2z"/>
				</g>
				<g>
					<path class="st4" d="M41.6,111.3v-1c0-1,0.5-1.5,1.5-1.5h1.4c1,0,1.5,0.5,1.5,1.5v3.5c0,1.2-0.6,1.8-1.8,1.8h-1.9l-0.4-0.3
						v-0.4h2.4c0.6,0,1-0.3,1-1v-1.1h-2.1C42.1,112.9,41.6,112.3,41.6,111.3z M42.4,111.4c0,0.5,0.2,0.7,0.7,0.7h2.1v-1.9
						c0-0.5-0.2-0.7-0.7-0.7h-1.5c-0.5,0-0.7,0.2-0.7,0.7V111.4z"/>
				</g>
				<g>
					<path class="st4" d="M63.8,115.7v-0.8h1.7v-5.4h-1.4v-0.4l0.5-0.4h1.8v6.1h1.5v0.8H63.8z"/>
					<path class="st4" d="M69.3,114.1v-3.8c0-1,0.5-1.5,1.5-1.5h1.4c1,0,1.5,0.5,1.5,1.5v3.8c0,1-0.5,1.5-1.5,1.5h-1.4
						C69.8,115.7,69.3,115.1,69.3,114.1z M70.2,114.2c0,0.5,0.2,0.7,0.7,0.7h1.5c0.5,0,0.7-0.2,0.7-0.7v-4c0-0.5-0.2-0.7-0.7-0.7
						h-1.5c-0.5,0-0.7,0.2-0.7,0.7V114.2z"/>
				</g>
				<g>
					<path class="st4" d="M88.7,115.7v-0.8h1.7v-5.4h-1.4v-0.4l0.5-0.4h1.8v6.1h1.5v0.8H88.7z"/>
					<path class="st4" d="M94.5,115.7v-0.8h1.7v-5.4h-1.4v-0.4l0.5-0.4H97v6.1h1.5v0.8H94.5z"/>
				</g>
				<g>
					<path class="st4" d="M113.6,115.7v-0.8h1.7v-5.4h-1.4v-0.4l0.5-0.4h1.8v6.1h1.5v0.8H113.6z"/>
					<path class="st4" d="M119.1,115.7v-2.1c0-0.8,0.4-1.3,1.1-1.5l2-0.4c0.3-0.1,0.5-0.3,0.5-0.7v-0.8c0-0.5-0.2-0.7-0.7-0.7h-2.8
						v-0.4l0.4-0.4h2.3c1,0,1.5,0.5,1.5,1.5v0.7c0,0.8-0.4,1.3-1.1,1.5l-2,0.4c-0.3,0.1-0.5,0.3-0.5,0.7v1.4h3.7v0.8H119.1z"/>
				</g>
				<g>
					<path class="st4" d="M138.5,115.7v-0.8h1.7v-5.4h-1.4v-0.4l0.5-0.4h1.8v6.1h1.5v0.8H138.5z"/>
					<path class="st4" d="M144.1,115.3v-0.4h2.9c0.5,0,0.7-0.2,0.7-0.7v-1.1c0-0.5-0.2-0.7-0.7-0.7h-2.1v-0.8h2.1
						c0.5,0,0.7-0.2,0.7-0.7v-0.8c0-0.5-0.2-0.7-0.7-0.7h-2.8v-0.4l0.5-0.4h2.3c1,0,1.5,0.5,1.5,1.5v0.7c0,0.3-0.1,0.5-0.3,0.6
						l-0.3,0.4l0.3,0.3c0.2,0.2,0.3,0.4,0.3,0.7v1.1c0,1-0.5,1.5-1.5,1.5h-2.4L144.1,115.3z"/>
				</g>
				<g>
					<path class="st4" d="M163.3,115.7v-0.8h1.7v-5.4h-1.4v-0.4l0.5-0.4h1.8v6.1h1.5v0.8H163.3z"/>
					<path class="st4" d="M168.8,114.4v-0.7l2.3-4.9h0.7l0.1,0.2l-2.2,4.7h2.7v-2.3h0.8v4.3h-0.8v-1.3H168.8z"/>
				</g>
			</g>
			<g>
				<g>
					<path class="st4" d="M14.1,133.8v-0.8h1.7v-5.4h-1.4v-0.4l0.5-0.4h1.7v6.1h1.5v0.8H14.1z"/>
					<path class="st4" d="M19.5,133.5v-0.4h3.1c0.5,0,0.7-0.2,0.7-0.7v-1.2c0-0.5-0.2-0.7-0.7-0.7h-3v-3.6h4.2v0.8h-3.4v2h2.1
						c1,0,1.5,0.5,1.5,1.5v1c0,1-0.5,1.5-1.5,1.5h-2.6L19.5,133.5z"/>
				</g>
				<g>
					<path class="st4" d="M38.9,133.8v-0.8h1.7v-5.4h-1.4v-0.4l0.5-0.4h1.8v6.1H43v0.8H38.9z"/>
					<path class="st4" d="M44.4,132.3v-3.5c0-1.2,0.6-1.8,1.8-1.8h1.8l0.5,0.4v0.4h-2.3c-0.6,0-1,0.3-1,1v1.1h2.1
						c1,0,1.5,0.5,1.5,1.5v1c0,1-0.5,1.5-1.5,1.5H46C45,133.8,44.4,133.3,44.4,132.3z M45.3,132.4c0,0.5,0.2,0.7,0.7,0.7h1.5
						c0.5,0,0.7-0.2,0.7-0.7v-1.2c0-0.5-0.2-0.7-0.7-0.7h-2.1V132.4z"/>
				</g>
				<g>
					<path class="st4" d="M63.8,133.8v-0.8h1.7v-5.4h-1.4v-0.4l0.5-0.4h1.8v6.1h1.5v0.8H63.8z"/>
					<path class="st4" d="M69.3,127.7v-0.8h4.5v1.8l-2.7,5.2h-0.8l-0.1-0.2l2.7-5.1v-0.8H69.3z"/>
				</g>
				<g>
					<path class="st4" d="M88.7,133.8v-0.8h1.7v-5.4h-1.4v-0.4l0.5-0.4h1.8v6.1h1.5v0.8H88.7z"/>
					<path class="st4" d="M94.2,132.3v-1.1c0-0.3,0.1-0.5,0.3-0.7l0.4-0.3l-0.4-0.4c-0.2-0.2-0.3-0.4-0.3-0.6v-0.7
						c0-1,0.5-1.5,1.5-1.5h1.4c1,0,1.5,0.5,1.5,1.5v0.7c0,0.3-0.1,0.5-0.3,0.6l-0.3,0.4l0.3,0.3c0.2,0.2,0.3,0.4,0.3,0.7v1.1
						c0,1-0.5,1.5-1.5,1.5h-1.4C94.7,133.8,94.2,133.3,94.2,132.3z M95,129.2c0,0.5,0.2,0.7,0.7,0.7h1.5c0.5,0,0.7-0.2,0.7-0.7v-0.8
						c0-0.5-0.2-0.7-0.7-0.7h-1.5c-0.5,0-0.7,0.2-0.7,0.7V129.2z M95,132.4c0,0.5,0.2,0.7,0.7,0.7h1.5c0.5,0,0.7-0.2,0.7-0.7v-1.1
						c0-0.5-0.2-0.7-0.7-0.7h-1.5c-0.5,0-0.7,0.2-0.7,0.7V132.4z"/>
				</g>
				<g>
					<path class="st4" d="M113.6,133.8v-0.8h1.7v-5.4h-1.4v-0.4l0.5-0.4h1.8v6.1h1.5v0.8H113.6z"/>
					<path class="st4" d="M119.1,129.5v-1c0-1,0.5-1.5,1.5-1.5h1.4c1,0,1.5,0.5,1.5,1.5v3.5c0,1.2-0.6,1.8-1.8,1.8h-1.9l-0.4-0.3
						v-0.4h2.4c0.6,0,1-0.3,1-1V131h-2.1C119.6,131,119.1,130.5,119.1,129.5z M119.9,129.6c0,0.5,0.2,0.7,0.7,0.7h2.1v-1.9
						c0-0.5-0.2-0.7-0.7-0.7h-1.5c-0.5,0-0.7,0.2-0.7,0.7V129.6z"/>
				</g>
				<g>
					<path class="st4" d="M138.2,133.8v-2.1c0-0.8,0.4-1.3,1.1-1.5l2-0.4c0.3-0.1,0.5-0.3,0.5-0.7v-0.8c0-0.5-0.2-0.7-0.7-0.7h-2.8
						v-0.4l0.5-0.4h2.3c1,0,1.5,0.5,1.5,1.5v0.7c0,0.8-0.4,1.3-1.1,1.5l-2,0.4c-0.3,0.1-0.5,0.3-0.5,0.7v1.4h3.7v0.8H138.2z"/>
					<path class="st4" d="M144,132.3v-3.8c0-1,0.5-1.5,1.5-1.5h1.4c1,0,1.5,0.5,1.5,1.5v3.8c0,1-0.5,1.5-1.5,1.5h-1.4
						C144.5,133.8,144,133.3,144,132.3z M144.8,132.4c0,0.5,0.2,0.7,0.7,0.7h1.5c0.5,0,0.7-0.2,0.7-0.7v-4c0-0.5-0.2-0.7-0.7-0.7
						h-1.5c-0.5,0-0.7,0.2-0.7,0.7V132.4z"/>
				</g>
				<g>
					<path class="st4" d="M163.1,133.8v-2.1c0-0.8,0.4-1.3,1.1-1.5l2-0.4c0.3-0.1,0.5-0.3,0.5-0.7v-0.8c0-0.5-0.2-0.7-0.7-0.7h-2.8
						v-0.4l0.5-0.4h2.3c1,0,1.5,0.5,1.5,1.5v0.7c0,0.8-0.4,1.3-1.1,1.5l-2,0.4c-0.3,0.1-0.5,0.3-0.5,0.7v1.4h3.7v0.8H163.1z"/>
					<path class="st4" d="M169.1,133.8v-0.8h1.7v-5.4h-1.4v-0.4l0.5-0.4h1.8v6.1h1.5v0.8H169.1z"/>
				</g>
			</g>
			<g>
				<g>
					<path class="st4" d="M13.8,152v-2.1c0-0.8,0.4-1.3,1.1-1.5l2-0.4c0.3-0.1,0.5-0.3,0.5-0.7v-0.8c0-0.5-0.2-0.7-0.7-0.7H14v-0.4
						l0.5-0.4h2.3c1,0,1.5,0.5,1.5,1.5v0.7c0,0.8-0.4,1.3-1.1,1.5l-2,0.4c-0.3,0.1-0.5,0.3-0.5,0.7v1.4h3.7v0.8H13.8z"/>
					<path class="st4" d="M19.6,152v-2.1c0-0.8,0.4-1.3,1.1-1.5l2-0.4c0.3-0.1,0.5-0.3,0.5-0.7v-0.8c0-0.5-0.2-0.7-0.7-0.7h-2.8
						v-0.4l0.5-0.4h2.3c1,0,1.5,0.5,1.5,1.5v0.7c0,0.8-0.4,1.3-1.1,1.5l-2,0.4c-0.3,0.1-0.5,0.3-0.5,0.7v1.4h3.7v0.8H19.6z"/>
				</g>
				<g>
					<path class="st4" d="M38.7,152v-2.1c0-0.8,0.4-1.3,1.1-1.5l2-0.4c0.3-0.1,0.5-0.3,0.5-0.7v-0.8c0-0.5-0.2-0.7-0.7-0.7h-2.8
						v-0.4l0.5-0.4h2.3c1,0,1.5,0.5,1.5,1.5v0.7c0,0.8-0.4,1.3-1.1,1.5l-2,0.4c-0.3,0.1-0.5,0.3-0.5,0.7v1.4h3.7v0.8H38.7z"/>
					<path class="st4" d="M44.5,151.7v-0.4h2.9c0.5,0,0.7-0.2,0.7-0.7v-1.1c0-0.5-0.2-0.7-0.7-0.7h-2.1V148h2.1
						c0.5,0,0.7-0.2,0.7-0.7v-0.8c0-0.5-0.2-0.7-0.7-0.7h-2.8v-0.4l0.5-0.4h2.3c1,0,1.5,0.5,1.5,1.5v0.7c0,0.3-0.1,0.5-0.3,0.6
						l-0.3,0.4l0.3,0.3c0.2,0.2,0.3,0.4,0.3,0.7v1.1c0,1-0.5,1.5-1.5,1.5H45L44.5,151.7z"/>
				</g>
				<g>
					<path class="st4" d="M63.5,152v-2.1c0-0.8,0.4-1.3,1.1-1.5l2-0.4c0.3-0.1,0.5-0.3,0.5-0.7v-0.8c0-0.5-0.2-0.7-0.7-0.7h-2.8
						v-0.4l0.5-0.4h2.3c1,0,1.5,0.5,1.5,1.5v0.7c0,0.8-0.4,1.3-1.1,1.5l-2,0.4c-0.3,0.1-0.5,0.3-0.5,0.7v1.4H68v0.8H63.5z"/>
					<path class="st4" d="M69.3,150.7V150l2.3-4.9h0.7l0.1,0.2l-2.2,4.7H73v-2.3h0.8v4.3H73v-1.3H69.3z"/>
				</g>
				<g>
					<path class="st4" d="M88.4,152v-2.1c0-0.8,0.4-1.3,1.1-1.5l2-0.4c0.3-0.1,0.5-0.3,0.5-0.7v-0.8c0-0.5-0.2-0.7-0.7-0.7h-2.8
						v-0.4l0.5-0.4h2.3c1,0,1.5,0.5,1.5,1.5v0.7c0,0.8-0.4,1.3-1.1,1.5l-2,0.4c-0.3,0.1-0.5,0.3-0.5,0.7v1.4h3.7v0.8H88.4z"/>
					<path class="st4" d="M94.1,151.7v-0.4h3.1c0.5,0,0.7-0.2,0.7-0.7v-1.2c0-0.5-0.2-0.7-0.7-0.7h-3v-3.6h4.2v0.8H95v2h2.1
						c1,0,1.5,0.5,1.5,1.5v1c0,1-0.5,1.5-1.5,1.5h-2.6L94.1,151.7z"/>
				</g>
				<g>
					<path class="st4" d="M113.3,152v-2.1c0-0.8,0.4-1.3,1.1-1.5l2-0.4c0.3-0.1,0.5-0.3,0.5-0.7v-0.8c0-0.5-0.2-0.7-0.7-0.7h-2.8
						v-0.4l0.5-0.4h2.3c1,0,1.5,0.5,1.5,1.5v0.7c0,0.8-0.4,1.3-1.1,1.5l-2,0.4c-0.3,0.1-0.5,0.3-0.5,0.7v1.4h3.7v0.8H113.3z"/>
					<path class="st4" d="M119.1,150.5V147c0-1.2,0.6-1.8,1.8-1.8h1.8l0.5,0.4v0.4h-2.3c-0.6,0-1,0.3-1,1v1.1h2.1
						c1,0,1.5,0.5,1.5,1.5v1c0,1-0.5,1.5-1.5,1.5h-1.4C119.6,152,119.1,151.5,119.1,150.5z M119.9,150.6c0,0.5,0.2,0.7,0.7,0.7h1.5
						c0.5,0,0.7-0.2,0.7-0.7v-1.2c0-0.5-0.2-0.7-0.7-0.7h-2.1V150.6z"/>
				</g>
				<g>
					<path class="st4" d="M138.2,152v-2.1c0-0.8,0.4-1.3,1.1-1.5l2-0.4c0.3-0.1,0.5-0.3,0.5-0.7v-0.8c0-0.5-0.2-0.7-0.7-0.7h-2.8
						v-0.4l0.5-0.4h2.3c1,0,1.5,0.5,1.5,1.5v0.7c0,0.8-0.4,1.3-1.1,1.5l-2,0.4c-0.3,0.1-0.5,0.3-0.5,0.7v1.4h3.7v0.8H138.2z"/>
					<path class="st4" d="M144,145.9v-0.8h4.5v1.8l-2.7,5.2H145l-0.1-0.2l2.7-5.1v-0.8H144z"/>
				</g>
				<g>
					<path class="st4" d="M163.1,152v-2.1c0-0.8,0.4-1.3,1.1-1.5l2-0.4c0.3-0.1,0.5-0.3,0.5-0.7v-0.8c0-0.5-0.2-0.7-0.7-0.7h-2.8
						v-0.4l0.5-0.4h2.3c1,0,1.5,0.5,1.5,1.5v0.7c0,0.8-0.4,1.3-1.1,1.5l-2,0.4c-0.3,0.1-0.5,0.3-0.5,0.7v1.4h3.7v0.8H163.1z"/>
					<path class="st4" d="M168.8,150.5v-1.1c0-0.3,0.1-0.5,0.3-0.7l0.4-0.3l-0.4-0.4c-0.2-0.2-0.3-0.4-0.3-0.6v-0.7
						c0-1,0.5-1.5,1.5-1.5h1.4c1,0,1.5,0.5,1.5,1.5v0.7c0,0.3-0.1,0.5-0.3,0.6l-0.3,0.4l0.3,0.3c0.2,0.2,0.3,0.4,0.3,0.7v1.1
						c0,1-0.5,1.5-1.5,1.5h-1.4C169.4,152,168.8,151.5,168.8,150.5z M169.7,147.3c0,0.5,0.2,0.7,0.7,0.7h1.5c0.5,0,0.7-0.2,0.7-0.7
						v-0.8c0-0.5-0.2-0.7-0.7-0.7h-1.5c-0.5,0-0.7,0.2-0.7,0.7V147.3z M169.7,150.6c0,0.5,0.2,0.7,0.7,0.7h1.5
						c0.5,0,0.7-0.2,0.7-0.7v-1.1c0-0.5-0.2-0.7-0.7-0.7h-1.5c-0.5,0-0.7,0.2-0.7,0.7V150.6z"/>
				</g>
			</g>
			<g>
				<g>
					<path class="st4" d="M13.8,170.2v-2.1c0-0.8,0.4-1.3,1.1-1.5l2-0.4c0.3-0.1,0.5-0.3,0.5-0.7v-0.8c0-0.5-0.2-0.7-0.7-0.7H14
						v-0.4l0.5-0.4h2.3c1,0,1.5,0.5,1.5,1.5v0.7c0,0.8-0.4,1.3-1.1,1.5l-2,0.4c-0.3,0.1-0.5,0.3-0.5,0.7v1.4h3.7v0.8H13.8z"/>
					<path class="st4" d="M19.6,165.9v-1c0-1,0.5-1.5,1.5-1.5h1.4c1,0,1.5,0.5,1.5,1.5v3.5c0,1.2-0.6,1.8-1.8,1.8h-1.9l-0.4-0.3
						v-0.4h2.4c0.6,0,1-0.3,1-1v-1.1h-2.1C20.1,167.4,19.6,166.9,19.6,165.9z M20.4,166c0,0.5,0.2,0.7,0.7,0.7h2.1v-1.9
						c0-0.5-0.2-0.7-0.7-0.7h-1.5c-0.5,0-0.7,0.2-0.7,0.7V166z"/>
				</g>
				<g>
					<path class="st4" d="M38.8,169.8v-0.4h2.9c0.5,0,0.7-0.2,0.7-0.7v-1.1c0-0.5-0.2-0.7-0.7-0.7h-2.1v-0.8h2.1
						c0.5,0,0.7-0.2,0.7-0.7v-0.8c0-0.5-0.2-0.7-0.7-0.7h-2.8v-0.4l0.5-0.4h2.3c1,0,1.5,0.5,1.5,1.5v0.7c0,0.3-0.1,0.5-0.3,0.6
						l-0.3,0.4l0.3,0.3c0.2,0.2,0.3,0.4,0.3,0.7v1.1c0,1-0.5,1.5-1.5,1.5h-2.4L38.8,169.8z"/>
					<path class="st4" d="M44.4,168.7v-3.8c0-1,0.5-1.5,1.5-1.5h1.4c1,0,1.5,0.5,1.5,1.5v3.8c0,1-0.5,1.5-1.5,1.5H46
						C45,170.2,44.4,169.7,44.4,168.7z M45.3,168.8c0,0.5,0.2,0.7,0.7,0.7h1.5c0.5,0,0.7-0.2,0.7-0.7v-4c0-0.5-0.2-0.7-0.7-0.7H46
						c-0.5,0-0.7,0.2-0.7,0.7V168.8z"/>
				</g>
				<g>
					<path class="st4" d="M63.6,169.8v-0.4h2.9c0.5,0,0.7-0.2,0.7-0.7v-1.1c0-0.5-0.2-0.7-0.7-0.7h-2.1v-0.8h2.1
						c0.5,0,0.7-0.2,0.7-0.7v-0.8c0-0.5-0.2-0.7-0.7-0.7h-2.8v-0.4l0.5-0.4h2.3c1,0,1.5,0.5,1.5,1.5v0.7c0,0.3-0.1,0.5-0.3,0.6
						l-0.3,0.4l0.3,0.3c0.2,0.2,0.3,0.4,0.3,0.7v1.1c0,1-0.5,1.5-1.5,1.5h-2.4L63.6,169.8z"/>
					<path class="st4" d="M69.6,170.2v-0.8h1.7v-5.4H70v-0.4l0.5-0.4h1.8v6.1h1.5v0.8H69.6z"/>
				</g>
			</g>
		</g>
		<line class="st5" x1="7.5" y1="85.4" x2="179.6" y2="85.4"/>
	</g>
</g>
</svg>
