<svg id="Grupo_1231" data-name="Grupo 1231" xmlns="http://www.w3.org/2000/svg" width="31.93" height="26.898" viewBox="0 0 31.93 26.898">
  <path id="Trazado_573" data-name="Trazado 573" d="M25.779,21.379l3.8-7.8v13" transform="translate(0 0)" fill="none" stroke="#fff" stroke-linejoin="round" stroke-width="1"/>
  <path id="Polígono_3" data-name="Polígono 3" d="M2.5,0l.925,1.425L5,1.91,4,3.275,4.045,5,2.5,4.419.955,5,1,3.275,0,1.91l1.575-.485Z" transform="translate(26.93 7.904)" fill="#fff"/>
  <path id="Trazado_147" data-name="Trazado 147" d="M186.6,50h30.462L201.831,23.1Z" transform="translate(-186.6 -23.1)" fill="#cae922"/>
  <g id="Grupo_1131" data-name="Grupo 1131" transform="translate(11.894 10.813)">
    <circle id="Elipse_28" data-name="Elipse 28" cx="2.862" cy="2.862" r="2.862" transform="translate(0 0)" fill="#fff" stroke="#000" stroke-width="0.5"/>
    <circle id="Elipse_29" data-name="Elipse 29" cx="2.862" cy="2.862" r="2.862" transform="translate(7.413 0)" fill="#fff" stroke="#000" stroke-width="0.5"/>
    <g id="Grupo_1099" data-name="Grupo 1099" transform="translate(5.724 2.643)">
      <path id="Trazado_112" data-name="Trazado 112" d="M678.1,541.536a.3.3,0,0,1-.053-.006,3.854,3.854,0,0,0-.617-.091,2.069,2.069,0,0,0-.477.084.236.236,0,0,1-.293-.138.216.216,0,0,1,.147-.276,2.359,2.359,0,0,1,.623-.11,4.063,4.063,0,0,1,.727.1.218.218,0,0,1,.173.263A.232.232,0,0,1,678.1,541.536Z" transform="translate(-676.651 -541)" stroke="#000" stroke-width="0.5"/>
    </g>
  </g>
</svg>
