<?xml version="1.0" encoding="utf-8"?>
<!-- Generator: Adobe Illustrator 24.2.1, SVG Export Plug-In . SVG Version: 6.00 Build 0)  -->
<svg version="1.1" id="Capa_1" xmlns="http://www.w3.org/2000/svg" xmlns:xlink="http://www.w3.org/1999/xlink" x="0px" y="0px"
	 viewBox="0 0 259.4 212.8" style="enable-background:new 0 0 259.4 212.8;" xml:space="preserve">
<style type="text/css">
	.st0{fill:#89D5E0;}
	.st1{fill:#333333;}
	.st2{fill:none;stroke:#333333;stroke-miterlimit:10;}
	.st3{fill:#1D1D1B;}
	.st4{fill:#333333;stroke:#8B57CE;stroke-miterlimit:10;}
	.st5{fill:#EDEDED;}
	.st6{fill:#8B57CE;}
	.st7{opacity:0.3;fill:#FFFFFF;}
	.st8{fill:#F7DEB0;stroke:#333333;stroke-miterlimit:10;}
	.st9{fill:#8B57CE;stroke:#333333;stroke-miterlimit:10;}
	.st10{fill:#333333;stroke:#333333;stroke-miterlimit:10;}
</style>
<g>
	<circle class="st0" cx="152" cy="106.4" r="104.5"/>
	<g>
		<g>
			<g>
				<path class="st1" d="M63.9,127.5c0,1.7,1.3,3,3,3h169.7c1.7,0,3-1.3,3-3V26.4c0-1.7-1.3-3-3-3H66.9c-1.7,0-3,1.3-3,3V127.5z"/>
				<path class="st2" d="M63.9,127.5c0,1.7,1.3,3,3,3h169.7c1.7,0,3-1.3,3-3V26.4c0-1.7-1.3-3-3-3H66.9c-1.7,0-3,1.3-3,3V127.5z"/>
			</g>
			<g>
				<path class="st1" d="M55.9,139.1c0,2.7,1.5,4.9,3.3,4.9h185.3c1.8,0,3.3-2.2,3.3-4.9c0,0-9.4-8.5-11.1-8.5H66.9
					C65.3,130.6,55.9,139.1,55.9,139.1z"/>
			</g>
			<path class="st3" d="M71.1,117.9c0,1.7,1.3,3,3,3h155.4c1.7,0,3-1.3,3-3V36c0-1.7-1.3-3-3-3H74.1c-1.7,0-3,1.3-3,3V117.9z"/>
			<polygon class="st4" points="172.9,140.3 130.7,140.3 135.7,135.9 167.9,135.9 			"/>
			<g>
				<rect x="77.9" y="38.8" class="st5" width="147.7" height="43.3"/>
				<rect x="77.9" y="87.1" class="st0" width="70.4" height="28.5"/>
				<rect x="155.2" y="87.1" class="st6" width="70.4" height="28.5"/>
				<g>
					<circle class="st0" cx="151.8" cy="49.4" r="8.7"/>
					<path class="st6" d="M134.5,73.8c0,8,17.2,6.1,17.2,6.1s17.2,1.8,17.2-6.1s-7.7-14.4-17.2-14.4S134.5,65.9,134.5,73.8z"/>
				</g>
			</g>
			<polygon class="st7" points="145.1,120.9 94.8,120.9 75.9,33 126.2,33 			"/>
			<polygon class="st7" points="227.9,120.9 153.6,120.9 134.8,33 209,33 			"/>
		</g>
		<g>
			<polygon class="st8" points="7.7,181.9 6.7,210.9 16.7,210.9 22.2,182.7 			"/>
			<path class="st9" d="M30.5,148c0,0-8-3.2-12.8,4.6s-7.5,14.3-9,19.7s-5.8,11.1-5.8,11.1S2.7,188,6.3,189c3.6,1,9.5,3.7,9.5,3.7
				L30.5,148z"/>
			<g>
				<path class="st8" d="M40.5,146.9l3.3-22.6c0,0,7.4-6.6,13-5.7c5.6,1,16,3.4,16,3.4l-1.2,27.6c0,0-15.8,7.3-20.9,6.3
					C45.6,155,40.5,146.9,40.5,146.9z"/>
				<path class="st8" d="M72.5,129.8c0,0,5.3-4.4,9-13.6s3.8-15,3.6-17.8s-7-6.2-7-6.2L56,100.8L61,125"/>
				<path class="st9" d="M20.8,152.8c4.5-9.3,5.1-5.3,18.1-9.5c4.7-1.5,5.8,6.7,13.2,7.3c4.1,0.3,17.2-8.2,20.5-7.7
					c10.1,1.5,10.5,2.5,15.4,4.8c4.7,2.1,7.5,4.3,9.4,6.1c4.5,4.3,3.7,23.6,3,30.6c-0.7,7,3.8,26.5,3.8,26.5H13.8
					c0,0-2.6-23.2-1-33.3"/>
				<path class="st8" d="M152,108.6c-0.2-1.1-1-1.5-1.9-2c-1-0.5-2,9.4-2,9.4s1-10.7,0.9-11.9s-1.9-1.4-3-1.3
					c-1.2,0.1-1.7,10.5-1.7,10.5s-0.3-9.4-0.1-11.1c0.2-1.8-0.8-3.8-2.8-3.5c-1.9,0.3-2.3,12.5-2.3,12.5s-0.4-3.9-0.1-7.3
					c0.3-3.4-0.7-4.9-2.5-4.6c-1.8,0.3-0.8,4.8-1.8,8.6c-1,3.8-0.4,13.4-0.4,13.4s-1.7-3.5-1.8-4.2c-0.1-0.7-1.1-4.2-3.2-4.3
					c-2.1,0,0.5,7,1,13.3c0.3,4.2,2.7,7.6,4.2,9.5l-11.7,33c0,0-17.8-15.5-21.3-17.3c-3.5-1.8-12.7,1-13.6,2.7
					c-0.8,1.6,1.5,18.3,1.5,18.3s26.3,14,28.8,14.2c2.5,0.1,14.3,2.4,15.3,1.3c1-1,13.5-46.8,15-52.5c1.1-2,2.4-5.5,3.5-8
					C153.7,124.3,152.2,109.7,152,108.6z"/>
				<path class="st9" d="M80.2,144.3c0,0,12-0.2,16.2,1.2c4.2,1.3,13.9,10.6,13.9,10.6l10.2,7.8c0,0-0.9,3.9-4.2,9.4
					c-2.8,4.6-3,6.7-4,8.7c-2.6,5.4-4.7,7.9-4.7,7.9s-13.7-2-17.7-0.8"/>
				<path class="st8" d="M79.7,110.1c2.9-1.8,8.8-0.2,7.9,4.2c-0.9,4.4-4.4,7.1-7.5,7.4c-4,0.4-4.8-2.5-4.2-4.1"/>
				<path class="st8" d="M36.1,110.1c-2.9-1.8-8.8-0.2-7.9,4.2c0.9,4.4,4.4,7.1,7.5,7.4c4,0.4,4.8-2.5,4.2-4.1"/>
				<path class="st10" d="M86.3,98.9c-0.2-0.5-0.2-1.6-0.2-2.7c0.2-0.9,0.4-1.9,0.6-3l1,2.2c0,0,0.3-3.7,0-6.5
					c-0.1-1.3-0.6-2.3-1.2-3.1c-0.1-0.3-0.1-0.6-0.2-1l2.2,1c0,0-2.3-3.1-3.3-5.4c-0.3-0.8-1-1.4-1.8-1.8c-0.1-0.1-0.4-0.3-0.8-0.5
					c-0.9-0.9-1.9-1.8-3.2-2.6c0.6,0.1,1.3,0.1,1.9,0.2c1.9,0.2,3.8-1.8,3.8-1.8s-1.7,0.5-3.9,0.6c-2.3,0.1-4.5-3.4-7-3.8
					c-2.4-0.3-4.6-1.4-4.6-1.4l4-1.3c0,0-3.8-0.6-10.6,0.8c-3.8,0.8-6.1,2-7.4,3c-3.1,1.2-6.4,2.9-6.4,2.9s1.7-2.8-6.3,0.2
					c-8.7,3.3-7.8,8.4-10.3,12.7c-2.4,4.4-5.9,13.6-2.3,18.8c3.7,5.2,6.5,8.7,7,11.5c0.5,2.8,3.2,11,3.2,11l1-0.5
					c0,0,0.2,0.3,0.5,0.8c0.7,1.2,2.1,3.2,3,3.3c1.2,0.2,7-2.1,8.2-2.1c1.2,0,5.4,3.7,8.4,3.8c3,0.2,5.9-6.5,8.5-7.2
					s3.8-4.9,5.1-6.3c1.2-1.4,3.5-10.3,4.7-11.9c1.2-1.5,3.4-6.1,4.8-9.1c1.8,1.2,3.8,1.2,3.8,1.2S86.8,100.2,86.3,98.9z"/>
			</g>
		</g>
	</g>
</g>
</svg>
