<svg xmlns="http://www.w3.org/2000/svg" width="19.287" height="26" viewBox="0 0 19.287 26">
  <g id="Grupo_274" data-name="Grupo 274" transform="translate(-1130.6 -63)">
    <g id="Grupo_22" data-name="Grupo 22" transform="translate(1132 64)">
      <g id="Grupo_18" data-name="Grupo 18" transform="translate(16.887 11) rotate(90)">
        <path id="Trazado_2" data-name="Trazado 2" d="M13,17.287,0,13.854V3.433L13,0Z" transform="translate(0 0)" fill="#fff" stroke="#00a55e" stroke-linecap="round" stroke-linejoin="round" stroke-width="2"/>
      </g>
      <g id="Grupo_20" data-name="Grupo 20" transform="translate(16.887 18.837) rotate(90)">
        <path id="Trazado_2-2" data-name="Trazado 2" d="M5.163,17.287H0V0H5.163Z" transform="translate(0 0)" fill="#fff" stroke="#00a55e" stroke-linecap="round" stroke-linejoin="round" stroke-width="2"/>
      </g>
      <g id="Grupo_17" data-name="Grupo 17" transform="translate(12.354 12.598) rotate(180)">
        <path id="Trazado_5" data-name="Trazado 5" d="M0,0V6.06" transform="translate(4.254 6.538)" fill="none" stroke="#00a55e" stroke-linecap="round" stroke-width="2"/>
        <g id="Polígono_4" data-name="Polígono 4" transform="translate(-1.176 -1)" fill="#fff" stroke-linecap="round" stroke-linejoin="round">
          <path d="M 9.133557319641113 7.813959121704102 L 1.796680808067322 7.813959121704102 L 5.465118885040283 1.897626638412476 L 9.133557319641113 7.813959121704102 Z" stroke="none"/>
          <path d="M 5.465118885040283 3.795270442962646 L 3.593372821807861 6.813959121704102 L 7.336864948272705 6.813959121704102 L 5.465118885040283 3.795270442962646 M 5.465118885040283 -9.5367431640625e-07 L 10.93023872375488 8.813959121704102 L -9.5367431640625e-07 8.813959121704102 L 5.465118885040283 -9.5367431640625e-07 Z" stroke="none" fill="#00a55e"/>
        </g>
      </g>
    </g>
  </g>
</svg>
