<svg xmlns="http://www.w3.org/2000/svg" xmlns:xlink="http://www.w3.org/1999/xlink" width="21" height="30" viewBox="0 0 21 30">
  <defs>
    <clipPath id="clip-Mesa_de_trabajo_1">
      <rect width="21" height="30"/>
    </clipPath>
  </defs>
  <g id="Mesa_de_trabajo_1" data-name="Mesa de trabajo – 1" clip-path="url(#clip-Mesa_de_trabajo_1)">
    <rect width="21" height="30" fill="#fff"/>
    <g id="Grupo_621" data-name="Grupo 621" transform="translate(4276 -95.457)">
      <g id="Rectángulo_140" data-name="Rectángulo 140" transform="translate(-4272 96.457)" fill="#fff" stroke="#5909ac" stroke-linecap="round" stroke-linejoin="round" stroke-width="2">
        <rect width="6" height="17" rx="3" stroke="none"/>
        <rect x="1" y="1" width="4" height="15" rx="2" fill="none"/>
      </g>
      <g id="Rectángulo_143" data-name="Rectángulo 143" transform="translate(-4276 100.457)" fill="#fff" stroke="#5909ac" stroke-linecap="round" stroke-linejoin="round" stroke-width="2">
        <rect width="6" height="15" rx="3" stroke="none"/>
        <rect x="1" y="1" width="4" height="13" rx="2" fill="none"/>
      </g>
      <g id="Rectángulo_141" data-name="Rectángulo 141" transform="translate(-4268 95.457)" fill="#fff" stroke="#5909ac" stroke-linecap="round" stroke-linejoin="round" stroke-width="2">
        <rect width="7" height="21" rx="3.5" stroke="none"/>
        <rect x="1" y="1" width="5" height="19" rx="2.5" fill="none"/>
      </g>
      <g id="Rectángulo_142" data-name="Rectángulo 142" transform="translate(-4263 96.457)" fill="#fff" stroke="#5909ac" stroke-linecap="round" stroke-linejoin="round" stroke-width="2">
        <rect width="6" height="17" rx="3" stroke="none"/>
        <rect x="1" y="1" width="4" height="15" rx="2" fill="none"/>
      </g>
      <g id="Rectángulo_138" data-name="Rectángulo 138" transform="translate(-4276 106.457)" fill="#fff" stroke="#5909ac" stroke-linecap="round" stroke-linejoin="round" stroke-width="2">
        <rect width="19" height="19" rx="2" stroke="none"/>
        <rect x="1" y="1" width="17" height="17" rx="1" fill="none"/>
      </g>
      <rect id="Rectángulo_150" data-name="Rectángulo 150" width="2" height="4" transform="translate(-4274 106.457)" fill="#fff"/>
      <rect id="Rectángulo_151" data-name="Rectángulo 151" width="2" height="3" transform="translate(-4270 105.457)" fill="#fff"/>
      <rect id="Rectángulo_152" data-name="Rectángulo 152" width="3" height="4" transform="translate(-4266 105.457)" fill="#fff"/>
      <rect id="Rectángulo_153" data-name="Rectángulo 153" width="2" height="4" transform="translate(-4261 105.457)" fill="#fff"/>
      <g id="Unión_4" data-name="Unión 4" transform="translate(-4267.897 108.053)" fill="#fff" stroke-linecap="round" stroke-linejoin="round">
        <path d="M 9.30150032043457 16.40419960021973 L 2.05019998550415 16.40419960021973 C 1.909769892692566 16.40419960021973 1.697069883346558 16.37112045288086 1.472249865531921 16.08503913879395 C 1.081858515739441 15.58830547332764 0.8283461928367615 14.51003646850586 1.137319684028625 13.21586132049561 C 1.201969027519226 13.00405788421631 1.894091367721558 10.90783596038818 4.083610057830811 10.37582969665527 C 4.759349822998047 10.2114200592041 5.61555004119873 10.07520961761475 6.49478006362915 9.992209434509277 L 7.400799751281738 9.906689643859863 L 7.400799751281738 8.996640205383301 L 7.400799751281738 2.900699853897095 C 7.400799751281738 1.852649807929993 8.253449440002441 0.9999998211860657 9.30150032043457 0.9999998211860657 C 10.34955024719238 0.9999998211860657 11.20219993591309 1.852649807929993 11.20219993591309 2.900699853897095 L 11.20219993591309 10.15199947357178 L 11.20219993591309 14.50349998474121 C 11.20219993591309 15.55154991149902 10.34955024719238 16.40419960021973 9.30150032043457 16.40419960021973 Z" stroke="none"/>
        <path d="M 9.30150032043457 15.40419960021973 C 9.798150062561035 15.40419960021973 10.20219993591309 15.00014972686768 10.20219993591309 14.50349998474121 L 10.20219993591309 10.15199947357178 L 10.20219993591309 2.900699853897095 C 10.20219993591309 2.404049873352051 9.798150062561035 1.999999761581421 9.30150032043457 1.999999761581421 C 8.804849624633789 1.999999761581421 8.400799751281738 2.404049873352051 8.400799751281738 2.900699853897095 L 8.400799751281738 8.996640205383301 C 8.400799751281738 10.0283899307251 7.615950107574463 10.89081954956055 6.588759899139404 10.98779010772705 C 5.756010055541992 11.06639957427979 4.950389862060547 11.19410991668701 4.319719791412354 11.34754943847656 C 2.748908042907715 11.72922611236572 2.182762384414673 13.24213790893555 2.101437568664551 13.48459911346436 C 1.885658979415894 14.42619228363037 2.06363582611084 15.14598560333252 2.213927268981934 15.40419960021973 L 9.30150032043457 15.40419960021973 M 9.30150032043457 17.40419960021973 L 2.05019998550415 17.40419960021973 C 0.4481998980045319 17.40419960021973 -0.3807000815868378 15.22529983520508 0.1709999144077301 12.95730018615723 C 0.1709999144077301 12.95730018615723 0.9620999097824097 10.10519981384277 3.847499847412109 9.404099464416504 C 4.576779842376709 9.226670265197754 5.471429824829102 9.084369659423828 6.400799751281738 8.996640205383301 L 6.400799751281738 2.900699853897095 C 6.400799751281738 1.298699855804443 7.69950008392334 -1.998901382194163e-07 9.30150032043457 -1.998901382194163e-07 C 10.90349960327148 -1.998901382194163e-07 12.20219993591309 1.298699855804443 12.20219993591309 2.900699853897095 L 12.20219993591309 10.15199947357178 L 12.20219993591309 14.50349998474121 C 12.20219993591309 16.10549926757813 10.90349960327148 17.40419960021973 9.30150032043457 17.40419960021973 Z" stroke="none" fill="#5909ac"/>
      </g>
    </g>
  </g>
</svg>
