<?xml version="1.0" encoding="utf-8"?>
<!-- Generator: Adobe Illustrator 24.1.2, SVG Export Plug-In . SVG Version: 6.00 Build 0)  -->
<svg version="1.1" id="Capa_1" xmlns="http://www.w3.org/2000/svg" xmlns:xlink="http://www.w3.org/1999/xlink" x="0px" y="0px"
	 viewBox="0 0 14.7 21.7" style="enable-background:new 0 0 14.7 21.7;" xml:space="preserve">
<style type="text/css">
	.st0{fill:none;stroke:#333333;stroke-width:1.4;stroke-linecap:round;}
	.st1{fill:#333333;stroke:#333333;stroke-width:0.5;}
	.st2{fill:none;stroke:#333333;stroke-width:1.4;}
</style>
<g id="Grupo_620" transform="translate(4276 -95)">
	<g id="Rectángulo_140" transform="translate(-4273 96)">
		<path class="st0" d="M0.8,10.3v-8c0-0.8,0.7-1.5,1.5-1.5l0,0c0.8,0,1.5,0.7,1.5,1.5v8"/>
	</g>
	<g id="Rectángulo_143" transform="translate(-4276 99)">
		<path class="st0" d="M0.8,8.3v-6c0-0.8,0.7-1.5,1.5-1.5l0,0c0.8,0,1.5,0.7,1.5,1.5v4.2"/>
	</g>
	<g id="Rectángulo_141" transform="translate(-4270 95)">
		<path class="st0" d="M0.8,11.2V2.3c0-0.8,0.7-1.5,1.5-1.5l0,0c0.8,0,1.5,0.7,1.5,1.5v9.1"/>
	</g>
	<g id="Rectángulo_142" transform="translate(-4267 96)">
		<path class="st0" d="M0.8,10.3v-8c0-0.8,0.7-1.5,1.5-1.5l0,0c0.8,0,1.5,0.7,1.5,1.5v6.4"/>
	</g>
	<g id="Unión_4" transform="translate(-4271 104)">
		<path class="st1" d="M7.3,11.3c0.6,0,1-0.4,1-1v-3v-5c0-0.6-0.4-1-1-1s-1,0.4-1,1v4.2v0.9L5.4,7.5C4.8,7.5,4.2,7.6,3.8,7.7
			C2.5,8.1,2,9.3,2,9.5c-0.2,0.8,0,1.4,0.2,1.7c0.1,0.1,0.1,0.1,0.2,0.1H7.3 M7.3,12.3h-5c-1.1,0-1.7-1.5-1.3-3.1c0,0,0.5-2,2.5-2.5
			c0.5-0.1,1.1-0.2,1.8-0.3V2.3c0-1.1,0.9-2,2-2c1.1,0,2,0.9,2,2v5v3C9.3,11.4,8.4,12.3,7.3,12.3z"/>
	</g>
</g>
<path class="st2" d="M7.8,20.8h-6c0,0-0.7,0.1-0.8-0.3s-0.2-2.1-0.2-2.1V11"/>
</svg>
