<svg xmlns="http://www.w3.org/2000/svg" width="14" height="21" viewBox="0 0 14 21">
  <g id="Grupo_620" data-name="Grupo 620" transform="translate(4276 -95)">
    <g id="Rectángulo_140" data-name="Rectángulo 140" transform="translate(-4273 96)" fill="#fff" stroke="#8b57ce" stroke-width="1">
      <rect width="4" height="12" rx="2" stroke="none"/>
      <rect x="0.5" y="0.5" width="3" height="11" rx="1.5" fill="none"/>
    </g>
    <g id="Rectángulo_143" data-name="Rectángulo 143" transform="translate(-4276 99)" fill="#fff" stroke="#8b57ce" stroke-width="1">
      <rect width="4" height="10" rx="2" stroke="none"/>
      <rect x="0.5" y="0.5" width="3" height="9" rx="1.5" fill="none"/>
    </g>
    <g id="Rectángulo_141" data-name="Rectángulo 141" transform="translate(-4270 95)" fill="#fff" stroke="#8b57ce" stroke-width="1">
      <rect width="4" height="15" rx="2" stroke="none"/>
      <rect x="0.5" y="0.5" width="3" height="14" rx="1.5" fill="none"/>
    </g>
    <g id="Rectángulo_142" data-name="Rectángulo 142" transform="translate(-4267 96)" fill="#fff" stroke="#8b57ce" stroke-width="1">
      <rect width="4" height="12" rx="2" stroke="none"/>
      <rect x="0.5" y="0.5" width="3" height="11" rx="1.5" fill="none"/>
    </g>
    <g id="Rectángulo_138" data-name="Rectángulo 138" transform="translate(-4276 103)" fill="#fff" stroke="#8b57ce" stroke-width="1">
      <rect width="13" height="13" rx="2" stroke="none"/>
      <rect x="0.5" y="0.5" width="12" height="12" rx="1.5" fill="none"/>
    </g>
    <rect id="Rectángulo_150" data-name="Rectángulo 150" width="2" height="3" transform="translate(-4275 103)" fill="#fff"/>
    <rect id="Rectángulo_151" data-name="Rectángulo 151" width="2" height="3" transform="translate(-4272 102)" fill="#fff"/>
    <rect id="Rectángulo_152" data-name="Rectángulo 152" width="2" height="3" transform="translate(-4269 102)" fill="#fff"/>
    <rect id="Rectángulo_153" data-name="Rectángulo 153" width="2" height="3" transform="translate(-4266 102)" fill="#fff"/>
    <g id="Unión_4" data-name="Unión 4" transform="translate(-4271 104)">
      <path id="Trazado_31" data-name="Trazado 31" d="M7,11.5H2a.674.674,0,0,1-.547-.292,2.688,2.688,0,0,1-.265-2.145,3.159,3.159,0,0,1,2.17-2.093A12.386,12.386,0,0,1,5.047,6.7L5.5,6.658V2a1.5,1.5,0,1,1,3,0v8A1.5,1.5,0,0,1,7,11.5Z" fill="#4fe0f5"/>
      <path id="Trazado_32" data-name="Trazado 32" d="M7,11a1,1,0,0,0,1-1V2A1,1,0,1,0,6,2V7.113L5.094,7.2a11.877,11.877,0,0,0-1.619.257A2.666,2.666,0,0,0,1.67,9.2a2.178,2.178,0,0,0,.176,1.7c.08.1.126.1.154.1H7m0,1H2C.9,12,.324,10.5.7,8.934A3.694,3.694,0,0,1,3.239,6.484,12.8,12.8,0,0,1,5,6.2V2A2,2,0,0,1,9,2v8A2,2,0,0,1,7,12Z" fill="#8b57ce"/>
    </g>
  </g>
</svg>
