<?xml version="1.0" encoding="utf-8"?>
<!-- Generator: Adobe Illustrator 24.1.2, SVG Export Plug-In . SVG Version: 6.00 Build 0)  -->
<svg version="1.1" id="Capa_1" xmlns="http://www.w3.org/2000/svg" xmlns:xlink="http://www.w3.org/1999/xlink" x="0px" y="0px"
	 viewBox="0 0 571.2 169.9" style="enable-background:new 0 0 571.2 169.9;" xml:space="preserve">
<style type="text/css">
	.st0{fill:#5909AC;}
	.st1{fill:#89D5E0;}
</style>
<g>
	<rect x="7.7" y="9.1" class="st0" width="388.5" height="151.4"/>
	<rect x="395.3" y="9.1" class="st1" width="168.1" height="151.4"/>
	<g>
		<path class="st1" d="M7.7,9.1H105V28H7.7V9.1z M34.7,21.6h19.9v139.1H34.7V21.6z"/>
		<path class="st1" d="M89.5,156.2c-4.9-2.8-8.7-6.9-11.3-12.3c-2.6-5.4-3.9-11.9-3.9-19.5V88.8c0-8,1.3-14.9,3.8-20.6
			c2.5-5.7,6.2-10.1,11-13c4.8-3,10.6-4.4,17.4-4.4c6.8,0,12.7,1.4,17.6,4.1c4.9,2.8,8.6,6.8,11.1,12c2.5,5.3,3.8,11.6,3.8,19.1
			v28.7H88.2V98.2H120V86.4c0-5.6-1.2-10-3.5-13.1s-5.7-4.6-10-4.6c-4.2,0-7.4,1.6-9.7,4.9c-2.3,3.3-3.4,7.9-3.4,14V125
			c0,5.3,1.2,9.4,3.7,12.4c2.4,3,5.9,4.4,10.4,4.4c4.1,0,7.3-1.1,9.6-3.3c2.3-2.2,3.4-5.3,3.4-9.4v-0.7h19v0.7
			c0,10-2.8,17.7-8.4,23.1c-5.6,5.4-13.5,8.2-23.6,8.2C100.4,160.4,94.4,159,89.5,156.2z"/>
		<path class="st1" d="M160.2,153.2c-4.5-5.1-6.7-12.7-6.7-22.9c0-12.2,2.8-19.3,8.4-25.3c5.6-6,14-9,25.2-9H201l1.5,17.8h-15.3
			c-4.9,0-8.5,1.6-11,4.7c-2.4,3.1-3.7,5.7-3.7,12c0,4.3,1.1,7.4,3.2,9.5c2.1,2.1,5.3,3.1,9.6,3.1c4.9,0,8.6-1.4,11.1-4.1
			c2.4-2.8,3.7-6.9,3.7-12.4l2.2,10c-0.1,5.4-0.9,9.9-2.6,13.5c-1.6,3.6-4.1,6.3-7.3,8.1s-7.3,2.7-12.1,2.7
			C171.4,160.7,164.7,158.2,160.2,153.2z M200.1,81.8c0-4.4-1.2-7.8-3.5-10.2c-2.3-2.4-5.6-3.6-9.8-3.6c-3.7,0-6.6,1.2-8.6,3.6
			c-2.1,2.4-3.1,5.8-3.1,10.2h-19.3c0-9.9,2.8-17.6,8.3-23c5.5-5.4,13.3-8.1,23.3-8.1c6.8,0,12.5,1.2,17.4,3.7
			c4.8,2.4,8.5,6,11,10.6c2.5,4.6,3.8,10.2,3.8,16.8v78.6h-19.3V81.8z"/>
		<path class="st1" d="M250.3,157c-4.9-2.5-8.6-6.2-11.2-11c-2.6-4.8-3.9-10.7-3.9-17.5V84.6c0-7.2,1.3-13.3,3.9-18.4
			c2.6-5.1,6.3-8.9,11.2-11.6c4.9-2.6,10.8-4,17.7-4c7,0,12.9,1.3,17.9,4c4.9,2.7,8.7,6.5,11.3,11.7c2.6,5.1,3.9,11.3,3.9,18.5v3.6
			h-19.7v-3.6c0-4.9-1.2-8.8-3.5-11.5c-2.3-2.7-5.5-4.1-9.6-4.1c-4.2,0-7.4,1.3-9.8,4c-2.3,2.7-3.5,6.5-3.5,11.3v43.8
			c0,4.4,1.2,7.8,3.5,10.2c2.3,2.4,5.6,3.6,9.8,3.6c4.1,0,7.3-1.3,9.7-3.8c2.3-2.5,3.5-6,3.5-10.5v-3.4h19.8v3.4
			c0,6.9-1.3,12.8-3.9,17.7c-2.6,4.9-6.4,8.6-11.3,11.2c-4.9,2.6-10.9,3.9-18,3.9C261.1,160.7,255.2,159.5,250.3,157z"/>
		<path class="st1" d="M312.9,9.1h19.9v151.5h-19.9V9.1z M359.3,85.8c0-5.5-1.1-9.6-3.3-12.4c-2.2-2.8-5.5-4.1-10-4.1
			c-4.5,0-7.8,1.4-10,4.2c-2.2,2.8-3.3,7.1-3.3,12.8l-2.2-15.4c2.4-6.8,5.8-11.8,10.1-15.2c4.3-3.3,9.2-5,14.8-5
			c7.7,0,13.5,2.5,17.6,7.5c4.1,5,6.1,12.3,6.1,21.8v80.7h-19.9V85.8z"/>
	</g>
	<g>
		<path class="st0" d="M455.2,9.1h24.3v151.5h-23.1V55l1.6,6.7l-22.1,72.6h-13l-22.1-70.5l2.1-8.8v105.5h-23.6V9.1h24.9l25.2,82.6
			L455.2,9.1z"/>
		<path class="st0" d="M511.6,156.6c-5.1-2.6-9-6.4-11.8-11.4s-4.1-11-4.1-18V86.1c0-7.5,1.3-13.8,4-19.1s6.5-9.3,11.5-12.1
			c5-2.8,11-4.1,18-4.1c7.2,0,13.6,1.4,18.7,4c5.1,2.7,8.9,6.6,11.6,11.8c2.7,5.2,4,11.4,4,18.7V116l-46.9,0V97.1l21.8,0v-13
			c0-3.2-0.8-5.7-2.4-7.5c-1.6-1.8-4.1-2.7-6.9-2.7c-2.7,0-4.7,1-6.1,2.9c-1.4,1.9-2.1,4.6-2.1,8.1V128c0,3,0.8,5.3,2.4,6.9
			c1.6,1.6,3.8,2.4,6.7,2.4c2.7,0,4.8-0.7,6.3-2s2.2-3.2,2.2-5.6v-3.8l25,0.2v3c0,10-2.9,17.7-8.8,23.2c-5.9,5.5-14.1,8.2-24.7,8.2
			C522.9,160.6,516.7,159.3,511.6,156.6z"/>
	</g>
</g>
</svg>
