<?xml version="1.0" encoding="utf-8"?>
<!-- Generator: Adobe Illustrator 24.2.0, SVG Export Plug-In . SVG Version: 6.00 Build 0)  -->
<svg version="1.1" id="Capa_1" xmlns="http://www.w3.org/2000/svg" xmlns:xlink="http://www.w3.org/1999/xlink" x="0px" y="0px"
	 viewBox="0 0 555.7 135.7" style="enable-background:new 0 0 555.7 135.7;" xml:space="preserve">
<style type="text/css">
	.st0{fill:#333333;}
	.st1{fill:#89D5E0;}
	.st2{fill:#333333;stroke:#333333;stroke-width:0.2;}
	.st3{fill:#FFFFFF;stroke:#333333;stroke-width:2.5;stroke-linecap:round;stroke-linejoin:round;}
	.st4{fill:#8B57CE;stroke:#8B57CE;stroke-linecap:round;stroke-linejoin:round;}
</style>
<g>
	<path class="st0" d="M552.5,82.3V62.2c0-14.1-7-21.2-21-21.2H514c-14.1,0-21.2,7.1-21.2,21.2v28c0,14.1,7.1,21.2,21.2,21.2h28.7
		l0,0h9.8l-5-13.6h-1.4h-17.5h-14c-4.1,0-6.2-2.1-6.2-6.2v-9.2H552.5z M508.5,60.9c0-4.2,2.1-6.3,6.2-6.3h16c4.2,0,6.3,2.1,6.3,6.3
		v8.8h-28.4V60.9z"/>
	<g>
		<polygon class="st0" points="460.6,4.2 432.6,64.1 404.5,4.2 384.5,4.2 384.5,64.3 384.5,71.4 384.5,131.5 400.9,131.5 
			400.9,31.9 425.2,84.1 439.9,84.1 464.4,31.9 464.4,131.5 480.7,131.5 480.7,4.2 		"/>
	</g>
	<path class="st0" d="M167.2,82.3V62.2c0-14.1-7-21.2-21-21.2h-17.4c-14.1,0-21.2,7.1-21.2,21.2v28c0,14.1,7.1,21.2,21.2,21.2h17.2
		l0,0h21.3l-5-13.6h-6h-12.8h-14c-4.1,0-6.2-2.1-6.2-6.2v-9.2H167.2z M123.2,60.9c0-4.2,2.1-6.3,6.2-6.3h16c4.2,0,6.3,2.1,6.3,6.3
		v8.8h-28.4V60.9z"/>
	<path class="st0" d="M351.4,41h-22.9V28h0V4.2l-13.6,5v6.9V28v83.4h13.6V54.6h22.1c4.2,0,6.3,2.1,6.3,6.3v53.7l15.5,3.5V62.2
		C372.4,48.1,365.4,41,351.4,41z"/>
	<polygon class="st0" points="118.7,4.2 111.9,4.2 50.1,4.2 50.1,17.8 79.2,17.8 79.2,131.5 95.5,131.5 95.5,17.8 111.9,17.8 
		118.7,17.8 130.7,17.8 135.7,4.2 	"/>
	<path class="st0" d="M270.9,54.6h31.8v-4.3c0-2.3-0.6-4.5-2.2-6.2c-2.3-2.5-4.2-3.1-6.3-3.1h-23.9c-14.1,0-21.2,7.1-21.2,21.2v28
		c0,14.1,7.1,21.2,21.2,21.2h16.8c0,0,0.1,0,0.1,0h15.4l-5-13.6h-3.5h-15.3h-7.9c-4.1,0-6.2-2.1-6.2-6.2V60.9
		C264.7,56.7,266.8,54.6,270.9,54.6z"/>
	<path class="st0" d="M217.3,41.1L217.3,41.1l-1.3,0h-22.3h-14.5l5,13.6h32.3c3.3,0.4,4.9,2.5,4.9,6.2v8.7h-20.8
		c-14.1,0-21.2,7-21.2,20.9s7.1,20.9,21.2,20.9H237V62.2C237,48.6,230.4,41.5,217.3,41.1z M221.5,97.7h-20.1c-4.1,0-6.2-2.1-6.2-6.2
		v-3.2c0-4.1,2.1-6.2,6.2-6.2h20.1V97.7z"/>
	<g>
		<path class="st1" d="M63.9,64.4l0-20.6c0-3.5-3-6.5-6.5-6.5c-1.4,0-2.6,0.4-3.7,1.2c-0.9-2.6-3.3-4.5-6.2-4.5
			c-2.8,0-5.3,1.9-6.2,4.5c-1.1-0.7-2.3-1.2-3.7-1.2c-3.5,0-6.5,3-6.5,6.5l0,4.3c-1-0.6-2.1-1-3.3-1c-3.5,0-6.5,3-6.5,6.5l0,15.4
			l0,4.3l0,22.4c0,4.1,0,5.3,1.2,6.3c0.9,0.7,2.1,0.7,3.7,0.7l17.9,0c0,0,0.1,0,0.1,0l16.4,0c3.6,0,6.6-3,6.6-6.6l0-9.8l0-16.4
			C67.2,67.6,65.9,65.5,63.9,64.4z"/>
		<g>
			<g id="Grupo_620_9_" transform="translate(4276 -95)">
				<g id="Rectángulo_140_9_" transform="translate(-4273 96)">
					<g>
						<path class="st2" d="M39.6,66.4c-0.9,0-1.6-0.7-1.6-1.6l0-22c0-1.7-1.6-3.3-3.3-3.3c-1.7,0-3.3,1.6-3.3,3.3l0,22
							c0,0.9-0.7,1.6-1.6,1.6s-1.6-0.7-1.6-1.6l0-22c0-3.5,3-6.5,6.5-6.5c3.5,0,6.5,3,6.5,6.5l0,22C41.3,65.6,40.5,66.4,39.6,66.4z"
							/>
					</g>
				</g>
				<g id="Rectángulo_143_9_" transform="translate(-4276 99)">
					<g>
						<path class="st2" d="M23,70.9c-0.9,0-1.6-0.7-1.6-1.6l0-19.7c0-3.5,3-6.5,6.5-6.5s6.5,3,6.5,6.5l0,9.5c0,0.9-0.7,1.6-1.6,1.6
							c-0.9,0-1.6-0.7-1.6-1.6l0-9.5c0-1.7-1.6-3.3-3.3-3.3s-3.3,1.6-3.3,3.3l0,19.7C24.6,70.2,23.9,70.9,23,70.9z"/>
					</g>
				</g>
				<g id="Rectángulo_141_9_" transform="translate(-4270 95)">
					<g>
						<path class="st2" d="M46.5,67.7c-0.9,0-1.6-0.7-1.6-1.6l0-25.6c0-1.7-1.6-3.3-3.3-3.3c-1.7,0-3.3,1.6-3.3,3.3l0,24.9
							c0,0.9-0.7,1.6-1.6,1.6S35,66.3,35,65.4l0-24.9c0-3.5,3-6.5,6.5-6.5c3.5,0,6.5,3,6.5,6.5l0,25.6C48.1,67,47.4,67.7,46.5,67.7z
							"/>
					</g>
				</g>
				<g id="Rectángulo_142_9_" transform="translate(-4267 96)">
					<g>
						<path class="st2" d="M43.5,66.4c-0.9,0-1.6-0.7-1.6-1.6l0-22c0-3.5,3-6.5,6.5-6.5c3.5,0,6.5,3,6.5,6.5l0,21
							c0,0.9-0.7,1.6-1.6,1.6c-0.9,0-1.6-0.7-1.6-1.6l0-21c0-1.7-1.6-3.3-3.3-3.3c-1.7,0-3.3,1.6-3.3,3.3l0,22
							C45.1,65.6,44.4,66.4,43.5,66.4z"/>
					</g>
				</g>
				<g id="Unión_4_9_" transform="translate(-4271 104)">
					<path class="st2" d="M55.7,90.5c2,0,3.3-1.3,3.3-3.3l0-9.8L59,61c0-2-1.3-3.3-3.3-3.3S52.4,59,52.4,61l0,13.8l0,3l-3,0.3
						c-2,0-3.9,0.3-5.2,0.7c-4.3,1.3-5.9,5.2-5.9,5.9c-0.7,2.6,0,4.6,0.7,5.6c0.3,0.3,0.3,0.3,0.7,0.3L55.7,90.5 M55.7,93.8l-16.4,0
						c-3.6,0-5.6-4.9-4.3-10.2c0,0,1.6-6.6,8.2-8.2c1.6-0.3,3.6-0.7,5.9-1l0-13.4c0-3.6,3-6.6,6.6-6.6c3.6,0,6.6,3,6.6,6.6l0,16.4
						l0,9.8C62.2,90.9,59.3,93.8,55.7,93.8z"/>
				</g>
			</g>
			<g>
				<path class="st2" d="M45.9,102.8l-19.7,0c-1.6,0-2.8,0-3.7-0.7c-1.2-1-1.2-2.2-1.2-6.3l0-26.7l3.2,0l0,26.7c0,1.8,0,3.2,0.1,3.8
					c0.3,0,1,0,1.6,0l19.7,0L45.9,102.8z"/>
			</g>
		</g>
	</g>
	<g>
		<circle class="st3" cx="15.8" cy="76.2" r="12.5"/>
		<polygon class="st4" points="12.6,68.3 12.6,84.2 20.6,76.3 		"/>
	</g>
	<polygon class="st0" points="400.8,131.5 400.8,118.5 356.9,94.8 356.9,115.9 384.5,131.5 	"/>
	<path class="st0" d="M384.5,130.9"/>
</g>
<polygon class="st0" points="314.8,111.4 331.2,111.4 331.2,3.3 314.8,9.1 "/>
</svg>
