<?xml version="1.0" encoding="utf-8"?>
<!-- Generator: Adobe Illustrator 24.2.0, SVG Export Plug-In . SVG Version: 6.00 Build 0)  -->
<svg version="1.1" id="Capa_1" xmlns="http://www.w3.org/2000/svg" xmlns:xlink="http://www.w3.org/1999/xlink" x="0px" y="0px"
	 viewBox="0 0 555.8 151.8" style="enable-background:new 0 0 555.8 151.8;" xml:space="preserve">
<style type="text/css">
	.st0{fill:#FFFFFF;}
	.st1{fill:#89D5E0;}
	.st2{fill:#FFFFFF;stroke:#FFFFFF;stroke-width:0.2;}
	.st3{fill:#FFFFFF;stroke:#FFFFFF;stroke-width:2.5;stroke-linecap:round;stroke-linejoin:round;}
	.st4{fill:#8B57CE;stroke:#8B57CE;stroke-linecap:round;stroke-linejoin:round;}
</style>
<g>
	<path class="st0" d="M553.7,91.4V71.3c0-14.1-7-21.2-21-21.2h-17.5c-14.1,0-21.2,7.1-21.2,21.2v28c0,14.1,7.1,21.2,21.2,21.2h28.7
		l0,0h9.8l-5-13.6h-1.4h-17.5h-14c-4.1,0-6.2-2.1-6.2-6.2v-9.2L553.7,91.4L553.7,91.4z M509.7,70c0-4.2,2.1-6.3,6.2-6.3h16
		c4.2,0,6.3,2.1,6.3,6.3v8.8h-28.4V70H509.7z"/>
	<g>
		<polygon class="st0" points="461.8,13.3 433.8,73.2 405.7,13.3 385.7,13.3 385.7,73.4 385.7,80.5 385.7,140.6 402.1,140.6 
			402.1,41 426.4,93.2 441.1,93.2 465.6,41 465.6,140.6 481.9,140.6 481.9,13.3 		"/>
	</g>
	<path class="st0" d="M168.4,91.4V71.3c0-14.1-7-21.2-21-21.2H130c-14.1,0-21.2,7.1-21.2,21.2v28c0,14.1,7.1,21.2,21.2,21.2h17.2
		l0,0h21.3l-5-13.6h-6h-12.8h-14c-4.1,0-6.2-2.1-6.2-6.2v-9.2L168.4,91.4L168.4,91.4z M124.4,70c0-4.2,2.1-6.3,6.2-6.3h16
		c4.2,0,6.3,2.1,6.3,6.3v8.8h-28.4L124.4,70L124.4,70z"/>
	<path class="st0" d="M352.6,50.1h-22.9v-13l0,0V13.3l-13.6,5v6.9v11.9v83.4h13.6V63.7h22.1c4.2,0,6.3,2.1,6.3,6.3v53.7l15.5,3.5
		V71.3C373.6,57.2,366.6,50.1,352.6,50.1z"/>
	<polygon class="st0" points="119.9,13.3 113.1,13.3 51.3,13.3 51.3,26.9 80.4,26.9 80.4,140.6 96.7,140.6 96.7,26.9 113.1,26.9 
		119.9,26.9 131.9,26.9 136.9,13.3 	"/>
	<path class="st0" d="M272.1,63.7h31.8v-4.3c0-2.3-0.6-4.5-2.2-6.2c-2.3-2.5-4.2-3.1-6.3-3.1h-23.9c-14.1,0-21.2,7.1-21.2,21.2v28
		c0,14.1,7.1,21.2,21.2,21.2h16.8h0.1h15.4l-5-13.6h-3.5H280h-7.9c-4.1,0-6.2-2.1-6.2-6.2V70C265.9,65.8,268,63.7,272.1,63.7z"/>
	<path class="st0" d="M218.5,50.2L218.5,50.2h-1.3h-22.3h-14.5l5,13.6h32.3c3.3,0.4,4.9,2.5,4.9,6.2v8.7h-20.8
		c-14.1,0-21.2,7-21.2,20.9s7.1,20.9,21.2,20.9h36.4V71.3C238.2,57.7,231.6,50.6,218.5,50.2z M222.7,106.8h-20.1
		c-4.1,0-6.2-2.1-6.2-6.2v-3.2c0-4.1,2.1-6.2,6.2-6.2h20.1V106.8z"/>
	<g>
		<path class="st1" d="M65.1,73.5V52.9c0-3.5-3-6.5-6.5-6.5c-1.4,0-2.6,0.4-3.7,1.2c-0.9-2.6-3.3-4.5-6.2-4.5
			c-2.8,0-5.3,1.9-6.2,4.5c-1.1-0.7-2.3-1.2-3.7-1.2c-3.5,0-6.5,3-6.5,6.5v4.3c-1-0.6-2.1-1-3.3-1c-3.5,0-6.5,3-6.5,6.5v15.4v4.3
			v22.4c0,4.1,0,5.3,1.2,6.3c0.9,0.7,2.1,0.7,3.7,0.7h17.9h0.1h16.4c3.6,0,6.6-3,6.6-6.6v-9.8V79C68.4,76.7,67.1,74.6,65.1,73.5z"/>
		<g>
			<g id="Grupo_620_9_" transform="translate(4276 -95)">
				<g id="Rectángulo_140_9_" transform="translate(-4273 96)">
					<g>
						<path class="st2" d="M40.8,75.5c-0.9,0-1.6-0.7-1.6-1.6v-22c0-1.7-1.6-3.3-3.3-3.3s-3.3,1.6-3.3,3.3v22c0,0.9-0.7,1.6-1.6,1.6
							s-1.6-0.7-1.6-1.6v-22c0-3.5,3-6.5,6.5-6.5s6.5,3,6.5,6.5v22C42.5,74.7,41.7,75.5,40.8,75.5z"/>
					</g>
				</g>
				<g id="Rectángulo_143_9_" transform="translate(-4276 99)">
					<g>
						<path class="st2" d="M24.2,80c-0.9,0-1.6-0.7-1.6-1.6V58.7c0-3.5,3-6.5,6.5-6.5s6.5,3,6.5,6.5v9.5c0,0.9-0.7,1.6-1.6,1.6
							s-1.6-0.7-1.6-1.6v-9.5c0-1.7-1.6-3.3-3.3-3.3s-3.3,1.6-3.3,3.3v19.7C25.8,79.3,25.1,80,24.2,80z"/>
					</g>
				</g>
				<g id="Rectángulo_141_9_" transform="translate(-4270 95)">
					<g>
						<path class="st2" d="M47.7,76.8c-0.9,0-1.6-0.7-1.6-1.6V49.6c0-1.7-1.6-3.3-3.3-3.3s-3.3,1.6-3.3,3.3v24.9
							c0,0.9-0.7,1.6-1.6,1.6s-1.7-0.7-1.7-1.6V49.6c0-3.5,3-6.5,6.5-6.5s6.5,3,6.5,6.5v25.6C49.3,76.1,48.6,76.8,47.7,76.8z"/>
					</g>
				</g>
				<g id="Rectángulo_142_9_" transform="translate(-4267 96)">
					<g>
						<path class="st2" d="M44.7,75.5c-0.9,0-1.6-0.7-1.6-1.6v-22c0-3.5,3-6.5,6.5-6.5s6.5,3,6.5,6.5v21c0,0.9-0.7,1.6-1.6,1.6
							c-0.9,0-1.6-0.7-1.6-1.6v-21c0-1.7-1.6-3.3-3.3-3.3s-3.3,1.6-3.3,3.3v22C46.3,74.7,45.6,75.5,44.7,75.5z"/>
					</g>
				</g>
				<g id="Unión_4_9_" transform="translate(-4271 104)">
					<path class="st2" d="M56.9,99.6c2,0,3.3-1.3,3.3-3.3v-9.8V70.1c0-2-1.3-3.3-3.3-3.3s-3.3,1.3-3.3,3.3v13.8v3l-3,0.3
						c-2,0-3.9,0.3-5.2,0.7c-4.3,1.3-5.9,5.2-5.9,5.9c-0.7,2.6,0,4.6,0.7,5.6c0.3,0.3,0.3,0.3,0.7,0.3L56.9,99.6 M56.9,102.9H40.5
						c-3.6,0-5.6-4.9-4.3-10.2c0,0,1.6-6.6,8.2-8.2c1.6-0.3,3.6-0.7,5.9-1V70.1c0-3.6,3-6.6,6.6-6.6s6.6,3,6.6,6.6v16.4v9.8
						C63.4,100,60.5,102.9,56.9,102.9z"/>
				</g>
			</g>
			<g>
				<path class="st2" d="M47.1,111.9H27.4c-1.6,0-2.8,0-3.7-0.7c-1.2-1-1.2-2.2-1.2-6.3V78.2h3.2v26.7c0,1.8,0,3.2,0.1,3.8
					c0.3,0,1,0,1.6,0h19.7V111.9z"/>
			</g>
		</g>
	</g>
	<g>
		<circle class="st3" cx="17" cy="85.3" r="12.5"/>
		<polygon class="st4" points="13.8,77.4 13.8,93.3 21.8,85.4 		"/>
	</g>
	<polygon class="st0" points="402,140.6 402,127.6 358.1,103.9 358.1,125 385.7,140.6 	"/>
	<path class="st0" d="M385.7,140"/>
</g>
<polygon class="st0" points="316,120.5 332.4,120.5 332.4,12.4 316,18.2 "/>
</svg>
