<svg xmlns="http://www.w3.org/2000/svg" width="20.664" height="24.93" viewBox="0 0 20.664 24.93">
  <g id="Grupo_559" data-name="Grupo 559" transform="translate(5.5 1.5)">
    <g id="Grupo_250" data-name="Grupo 250">
      <g id="Grupo_256" data-name="Grupo 256">
        <path id="Trazado_14" data-name="Trazado 14" d="M22.93,18.664H0V0H22.93Z" transform="translate(14.164 -0.5) rotate(90)" fill="#fff" stroke="#fd7e7e" stroke-linecap="round" stroke-linejoin="round" stroke-width="2"/>
        <g id="Grupo_555" data-name="Grupo 555" transform="translate(0.286 2.143)">
          <path id="Trazado_204" data-name="Trazado 204" d="M0,1.75A6.7,6.7,0,0,1,4.574,0,5.27,5.27,0,0,1,8.866,2.25" transform="translate(1.027 12.55) rotate(6.024)" fill="none" stroke="#5909ac" stroke-linecap="round" stroke-linejoin="round" stroke-width="2"/>
          <g id="Grupo_557" data-name="Grupo 557" transform="translate(-3 2.143)">
            <g id="Grupo_23" data-name="Grupo 23" transform="translate(0 3.649) rotate(-45)">
              <path id="Trazado_3" data-name="Trazado 3" d="M0,0V5.16" transform="translate(2.444)" fill="none" stroke="#5909ac" stroke-linecap="round" stroke-width="2"/>
              <path id="Trazado_4" data-name="Trazado 4" d="M0,0V5.16" transform="translate(5.16 2.648) rotate(90)" fill="none" stroke="#5909ac" stroke-linecap="round" stroke-width="2"/>
            </g>
          </g>
          <g id="Grupo_558" data-name="Grupo 558" transform="translate(5 2.143)">
            <g id="Grupo_23-2" data-name="Grupo 23" transform="translate(0 3.649) rotate(-45)">
              <path id="Trazado_3-2" data-name="Trazado 3" d="M0,0V5.16" transform="translate(2.444)" fill="none" stroke="#5909ac" stroke-linecap="round" stroke-width="2"/>
              <path id="Trazado_4-2" data-name="Trazado 4" d="M0,0V5.16" transform="translate(5.16 2.648) rotate(90)" fill="none" stroke="#5909ac" stroke-linecap="round" stroke-width="2"/>
            </g>
          </g>
        </g>
      </g>
    </g>
  </g>
</svg>
