<svg xmlns="http://www.w3.org/2000/svg" width="17" height="17" viewBox="0 0 17 17">
  <g id="Grupo_19" data-name="Grupo 19" transform="translate(-856 -840)">
    <g id="Grupo_1159" data-name="Grupo 1159" transform="translate(828 834.342)">
      <g id="Grupo_1152" data-name="Grupo 1152" transform="translate(28 5.283)">
        <g id="Rectángulo_4" data-name="Rectángulo 4" transform="translate(0 0.375)" fill="#fff" stroke="#8b57ce" stroke-width="2">
          <rect width="17" height="17" rx="3" stroke="none"/>
          <rect x="1" y="1" width="15" height="15" rx="2" fill="none"/>
        </g>
      </g>
    </g>
    <g id="Grupo_18" data-name="Grupo 18" transform="translate(855.1 838.4)">
      <path id="Trazado_35" data-name="Trazado 35" d="M8.5,11.9c-.1-.1-.2-.2-.2-.3a2.663,2.663,0,0,1,.3-1.2,7.632,7.632,0,0,1,.8-1.1c.2-.2.3-.4.5-.5.3-.3.5-.6.7-.8a1.421,1.421,0,0,0,.2-.6c0-.6-.4-.9-1.1-.9a1.483,1.483,0,0,0-.7.1,6.89,6.89,0,0,0-.8.3.774.774,0,0,1-.3.1.551.551,0,0,1-.5-.2A1.756,1.756,0,0,0,7,6.3a1.087,1.087,0,0,1-.1-.5q0-.6.9-.9a6.448,6.448,0,0,1,2-.3,3.444,3.444,0,0,1,2.4.7,2.518,2.518,0,0,1,.9,2,2.116,2.116,0,0,1-.4,1.4,6,6,0,0,1-1.1,1.2l-.3.2a5.928,5.928,0,0,0-.8.8.908.908,0,0,0-.3.7c0,.2-.1.3-.2.3-.1.1-.3.1-.6.1H9.1C8.8,12,8.6,12,8.5,11.9ZM8.1,15V13.6c0-.3.3-.5.9-.5h.5c.6,0,.9.2.9.5V15c0,.3-.3.5-.9.5H9C8.4,15.5,8.1,15.3,8.1,15Z" fill="#4fe0f5"/>
    </g>
  </g>
</svg>
