<svg xmlns="http://www.w3.org/2000/svg" width="19.957" height="20.733" viewBox="0 0 19.957 20.733">
  <g id="repair-svgrepo-com" transform="translate(-1.5)">
    <path id="Trazado_1" data-name="Trazado 1" d="M20.05,1.344A1.469,1.469,0,0,0,19,.92a1.848,1.848,0,0,0-1.261.526l-1.5,1.22-.059.053a1.425,1.425,0,0,0-.38,1.268l-3.5,3.4-.6-.506a5.537,5.537,0,0,0-1.052-5.266A5.3,5.3,0,0,0,6.9,0,4.9,4.9,0,0,0,5.293.272a.767.767,0,0,0-.337,1.216L6.845,3.745,6.752,5.2l-1.57.179L2.941,3.5a.767.767,0,0,0-1.216.337A4.978,4.978,0,0,0,3.2,9.061,4.787,4.787,0,0,0,6.682,10.34c.106,0,.212-.005.318-.01-.053.046-.107.092-.158.143l-4.3,4.305a3.069,3.069,0,0,0,0,4.335l.722.722a3.065,3.065,0,0,0,4.335,0l4.3-4.3a2.985,2.985,0,0,0,.568-.793L16.3,19.156l.038.041a2.526,2.526,0,0,0,1.812.664,3.466,3.466,0,0,0,2.383-.924c1-1,1.318-3.134.259-4.194-.014-.013-.027-.026-.041-.037L15.179,9.889l3.212-3.308a1.577,1.577,0,0,0,.266.022,1.4,1.4,0,0,0,1-.4L20.93,4.641a1.869,1.869,0,0,0,.516-1.086,1.493,1.493,0,0,0-.414-1.224Zm-9.229,13.1-4.3,4.308a1.533,1.533,0,0,1-2.168,0l-.722-.722a1.534,1.534,0,0,1,0-2.167l4.305-4.306a1.523,1.523,0,0,1,1.084-.449,1.568,1.568,0,0,1,.352.042l1.9,2.2a1.526,1.526,0,0,1-.446,1.1Zm8.624,3.408a1.942,1.942,0,0,1-1.3.474,1.1,1.1,0,0,1-.714-.2L9.307,8.738a.766.766,0,0,0-.824-.225,5.7,5.7,0,0,1-1.8.294,3.349,3.349,0,0,1-2.4-.83,4.127,4.127,0,0,1-1.266-2.41l1.433,1.2a.765.765,0,0,0,.579.174l2.533-.289a.766.766,0,0,0,.678-.713l.154-2.4A.766.766,0,0,0,8.216,3L6.993,1.534A3.8,3.8,0,0,1,9.567,2.7c1,1,.979,2.876.535,4.2a.766.766,0,0,0,.225.824l9.39,8.126a1.771,1.771,0,0,1-.272,2Zm.372-14.269-1.2,1.475a.274.274,0,0,1-.042-.021l-.52-.309L14.019,8.884,13.455,8.4l4.192-4.071-.309-.52a.282.282,0,0,1-.02-.042l1.416-1.149.059-.053a.343.343,0,0,1,.2-.107l.931.931a.348.348,0,0,1-.107.2Z" fill="#fff"/>
  </g>
</svg>
