<svg xmlns="http://www.w3.org/2000/svg" xmlns:xlink="http://www.w3.org/1999/xlink" width="402.887" height="238.023" viewBox="0 0 402.887 238.023">
  <defs>
    <filter id="Trazado_105" x="0" y="0" width="267.168" height="238.023" filterUnits="userSpaceOnUse">
      <feOffset dy="8" input="SourceAlpha"/>
      <feGaussianBlur stdDeviation="3" result="blur"/>
      <feFlood flood-opacity="0.161"/>
      <feComposite operator="in" in2="blur"/>
      <feComposite in="SourceGraphic"/>
    </filter>
  </defs>
  <g id="Grupo_1249" data-name="Grupo 1249" transform="translate(-819.4 -2335.232)">
    <g id="oferta" transform="translate(1087.187 2456.739)">
      <g id="Grupo_505" data-name="Grupo 505" transform="translate(0 0)">
        <path id="Trazado_560" data-name="Trazado 560" d="M66.454,97.437h71.594a2.064,2.064,0,1,0,0-4.128H68.022L42.709,12.786A2.032,2.032,0,0,0,40.728,11.3H26.364a2.064,2.064,0,1,0,0,4.128h12.8L64.472,95.951A2.219,2.219,0,0,0,66.454,97.437Z" transform="translate(-22.3 -5.3)"/>
        <path id="Trazado_577" data-name="Trazado 577" d="M66.454,97.437h71.594a2.064,2.064,0,1,0,0-4.128H68.022L42.709,12.786A2.032,2.032,0,0,0,40.728,11.3H26.364a2.064,2.064,0,1,0,0,4.128h12.8L64.472,95.951A2.219,2.219,0,0,0,66.454,97.437Z" transform="translate(-22.3 -5.3)"/>
      </g>
      <g id="Grupo_506" data-name="Grupo 506" transform="translate(17.699 17.627)">
        <path id="Trazado_561" data-name="Trazado 561" d="M27.389,77.215h75.594a2.015,2.015,0,0,0,1.981-1.259l14.987-55.519a1.5,1.5,0,0,0-.33-1.538,2.308,2.308,0,0,0-1.651-.7H7.919c-1.156,0-.686.819-.686,1.8s-.469,1.7.686,1.7H115.163L101.414,73.719H27.389a1.907,1.907,0,0,0-2.064,1.748A1.959,1.959,0,0,0,27.389,77.215Z" transform="translate(-3.138 -18.2)" stroke="#000" stroke-width="1"/>
      </g>
      <g id="Grupo_507" data-name="Grupo 507" transform="translate(49.685 17.627)">
        <path id="Trazado_562" data-name="Trazado 562" d="M107.164,77.215a1.907,1.907,0,0,0,2.064-1.748V19.948a2.092,2.092,0,0,0-4.128,0V75.467A1.907,1.907,0,0,0,107.164,77.215Z" transform="translate(-105.1 -18.2)"/>
      </g>
      <g id="Grupo_508" data-name="Grupo 508" transform="translate(74.368 17.627)">
        <path id="Trazado_563" data-name="Trazado 563" d="M77.264,77.215a1.907,1.907,0,0,0,2.064-1.748V19.948a2.092,2.092,0,0,0-4.128,0V75.467A1.907,1.907,0,0,0,77.264,77.215Z" transform="translate(-75.2 -18.2)"/>
      </g>
      <g id="Grupo_509" data-name="Grupo 509" transform="translate(101.942 17.627)">
        <path id="Trazado_564" data-name="Trazado 564" d="M43.864,77.215a1.907,1.907,0,0,0,2.064-1.748V19.948a2.092,2.092,0,0,0-4.128,0V75.467A1.959,1.959,0,0,0,43.864,77.215Z" transform="translate(-41.8 -18.2)"/>
      </g>
      <g id="Grupo_510" data-name="Grupo 510" transform="translate(27.313 41.062)">
        <path id="Trazado_565" data-name="Trazado 565" d="M16.51,63.628h95.5a2.064,2.064,0,0,0,0-4.128H16.428A2.026,2.026,0,0,0,14.4,61.564,2.1,2.1,0,0,0,16.51,63.628Z" transform="translate(-14.4 -59.5)"/>
      </g>
      <g id="Grupo_511" data-name="Grupo 511" transform="translate(36.118 82.06)">
        <ellipse id="Elipse_95" data-name="Elipse 95" cx="7.487" cy="7.487" rx="7.487" ry="7.487" transform="translate(1.248 1.248)" fill="#cae922"/>
        <path id="Trazado_566" data-name="Trazado 566" d="M88.235,129.371a8.735,8.735,0,1,0-8.735-8.735A8.761,8.761,0,0,0,88.235,129.371Zm0-14.975A6.24,6.24,0,1,1,82,120.635,6.258,6.258,0,0,1,88.235,114.4Z" transform="translate(-79.5 -111.9)" fill="#cae922"/>
      </g>
      <g id="Grupo_512" data-name="Grupo 512" transform="translate(90.945 82.06)">
        <ellipse id="Elipse_96" data-name="Elipse 96" cx="7.487" cy="7.487" rx="7.487" ry="7.487" transform="translate(1.248 1.248)" fill="#cae922"/>
        <path id="Trazado_567" data-name="Trazado 567" d="M45.135,129.371a8.735,8.735,0,1,0-8.735-8.735A8.761,8.761,0,0,0,45.135,129.371Zm0-14.975a6.24,6.24,0,1,1-6.239,6.24A6.258,6.258,0,0,1,45.135,114.4Z" transform="translate(-36.4 -111.9)" fill="#cae922"/>
      </g>
    </g>
    <g id="Grupo_1248" data-name="Grupo 1248" transform="translate(828.4 2336.232)">
      <g id="Grupo_1094" data-name="Grupo 1094" transform="translate(0 0)">
        <g transform="matrix(1, 0, 0, 1, -9, -1)" filter="url(#Trazado_105)">
          <path id="Trazado_105-2" data-name="Trazado 105" d="M186.6,243.123H435.768L311.184,23.1Z" transform="translate(-177.6 -22.1)" fill="#cae922"/>
        </g>
      </g>
      <g id="Grupo_1095" data-name="Grupo 1095" transform="translate(53.483 0)">
        <path id="Trazado_106" data-name="Trazado 106" d="M453.5,23.1,382.4,148.668H524.6Z" transform="translate(-382.4 -23.1)" fill="#0038bb"/>
      </g>
      <g id="Grupo_1096" data-name="Grupo 1096" transform="translate(91.205 26.851)">
        <path id="Trazado_107" data-name="Trazado 107" d="M526.428,336.627l3.851-1.038-3.851-1.038-1.038-3.851-1.038,3.851-3.852,1.038,3.852,1.038,1.038,3.851Z" transform="translate(-520.5 -273.53)" fill="#fff"/>
        <path id="Trazado_108" data-name="Trazado 108" d="M684.943,260.143l10.3-2.786-10.3-2.759-2.759-10.3-2.759,10.3L669.1,257.357l10.325,2.786,2.759,10.3Z" transform="translate(-628.51 -210.73)" fill="#cae922" stroke="#cae922" stroke-miterlimit="10" stroke-width="1.329"/>
        <path id="Trazado_109" data-name="Trazado 109" d="M623.9,130.168l5.709-1.53-5.709-1.53-1.529-5.709-1.557,5.709-5.709,1.53,5.709,1.53,1.557,5.709Z" transform="translate(-589.26 -121.4)" fill="#fff"/>
      </g>
      <g id="Grupo_1100" data-name="Grupo 1100" transform="translate(86.398 117.318)">
        <g id="Grupo_1097" data-name="Grupo 1097">
          <circle id="Elipse_22" data-name="Elipse 22" cx="24.966" cy="24.966" r="24.966" transform="translate(1.093 1.093)" fill="#fff"/>
          <path id="Trazado_110" data-name="Trazado 110" d="M528.959,504.717a26.059,26.059,0,1,1,26.059-26.059A26.09,26.09,0,0,1,528.959,504.717Zm0-49.9a23.873,23.873,0,1,0,23.873,23.873A23.9,23.9,0,0,0,528.959,454.813Z" transform="translate(-502.9 -452.6)"/>
        </g>
        <g id="Grupo_1098" data-name="Grupo 1098" transform="translate(56.733)">
          <circle id="Elipse_23" data-name="Elipse 23" cx="24.966" cy="24.966" r="24.966" transform="translate(1.093 1.093)" fill="#fff"/>
          <path id="Trazado_111" data-name="Trazado 111" d="M736.659,504.717a26.059,26.059,0,1,1,26.059-26.059A26.09,26.09,0,0,1,736.659,504.717Zm0-49.9a23.873,23.873,0,1,0,23.874,23.873A23.9,23.9,0,0,0,736.659,454.813Z" transform="translate(-710.6 -452.6)"/>
        </g>
        <g id="Grupo_1099" data-name="Grupo 1099" transform="translate(47.46 24.147)">
          <path id="Trazado_112" data-name="Trazado 112" d="M688.546,545.671a2.4,2.4,0,0,1-.437-.055,29.768,29.768,0,0,0-5.053-.792,16.033,16.033,0,0,0-3.906.737,1.9,1.9,0,0,1-1.2-3.605,18.3,18.3,0,0,1,5.108-.956,31.316,31.316,0,0,1,5.955.9,1.911,1.911,0,0,1-.465,3.77Z" transform="translate(-676.651 -541)"/>
        </g>
      </g>
      <g id="Grupo_1101" data-name="Grupo 1101" transform="translate(96.414 174.902)">
        <path id="Trazado_579" data-name="Trazado 579" d="M1.529,2.584S5.208,23.7,17.414,25.784,34.286,24.465,39.02,20.4a35.6,35.6,0,0,0,7.424-9.128s-13.858,4.8-21.591,3.8-15.832-4-18.1-6.467S1.529,2.584,1.529,2.584Z" transform="translate(0 6)" fill="#fff" stroke="#0038bb" stroke-linecap="round" stroke-linejoin="round" stroke-width="4"/>
      </g>
      <g id="Grupo_1102" data-name="Grupo 1102" transform="translate(89.703 104.672)">
        <path id="Trazado_114" data-name="Trazado 114" d="M554.989,415.942a1.949,1.949,0,0,1-1.065-.328,38.209,38.209,0,0,0-18.875-5.518c-7.757,0-17.072,5.518-17.154,5.572a1.911,1.911,0,1,1-1.967-3.278c.41-.246,10.3-6.091,19.121-6.091a41.449,41.449,0,0,1,20.978,6.146,1.927,1.927,0,0,1,.547,2.649A1.877,1.877,0,0,1,554.989,415.942Z" transform="translate(-515 -406.3)" fill="#cae922"/>
      </g>
      <g id="Grupo_1103" data-name="Grupo 1103" transform="translate(147.679 104.644)">
        <path id="Trazado_115" data-name="Trazado 115" d="M729.176,415.869a1.886,1.886,0,0,1-1.475-.683,1.934,1.934,0,0,1,.219-2.7A31.646,31.646,0,0,1,747.2,406.2c8.987,0,16.089,6.037,16.389,6.283a1.907,1.907,0,0,1,.191,2.7,1.931,1.931,0,0,1-2.7.191c-.082-.082-6.365-5.354-13.9-5.354a27.92,27.92,0,0,0-16.826,5.381A1.564,1.564,0,0,1,729.176,415.869Z" transform="translate(-727.25 -406.2)" fill="#cae922"/>
      </g>
      <g id="Grupo_1104" data-name="Grupo 1104" transform="translate(91.379 179.253)">
        <path id="Trazado_116" data-name="Trazado 116" d="M523.065,688.37a1.925,1.925,0,0,1-1.338-3.3,52.038,52.038,0,0,1,4.1-3.469,14.2,14.2,0,0,1,6.009-2.24,1.9,1.9,0,0,1,.492,3.77h0a10.89,10.89,0,0,0-4.206,1.53,44.567,44.567,0,0,0-3.742,3.168A1.886,1.886,0,0,1,523.065,688.37Z" transform="translate(-521.136 -679.34)" fill="#0038bb"/>
      </g>
      <g id="Grupo_1106" data-name="Grupo 1106" transform="translate(191.752 154.211)">
        <g id="Grupo_1105" data-name="Grupo 1105">
          <path id="Trazado_117" data-name="Trazado 117" d="M888.6,690.015h57.417l14.832-92.623Z" transform="translate(-888.6 -624.203)" fill="#0038bb"/>
        </g>
      </g>
      <path id="Trazado_578" data-name="Trazado 578" d="M113.282,179.943s-1.222,6.989-3.711,7.7a56.945,56.945,0,0,1-8.172,1.086s7.989,2.854,9.411,6.763,3.01,8.15,3.01,8.15-.145-7.067,3.765-9.911a49.82,49.82,0,0,1,9.408-5s-9.738,1.938-10.45-1.26A33.261,33.261,0,0,0,113.282,179.943Z" transform="matrix(0.656, -0.755, 0.755, 0.656, -114.509, 152.615)" fill="#fff" stroke="#000" stroke-linecap="round" stroke-linejoin="round" stroke-width="1"/>
    </g>
  </g>
</svg>
