<?xml version="1.0" encoding="utf-8"?>
<!-- Generator: Adobe Illustrator 24.2.1, SVG Export Plug-In . SVG Version: 6.00 Build 0)  -->
<svg version="1.1" id="Capa_1" xmlns="http://www.w3.org/2000/svg" xmlns:xlink="http://www.w3.org/1999/xlink" x="0px" y="0px"
	 viewBox="0 0 331.5 257.7" style="enable-background:new 0 0 331.5 257.7;" xml:space="preserve">
<style type="text/css">
	.st0{fill:#89D5E0;}
	.st1{fill:#8B57CE;}
	.st2{fill:#333333;}
	.st3{fill:#C6C6C6;}
	.st4{fill:#F7DEB0;}
	.st5{fill:#FFFFFF;stroke:#1D1D1B;stroke-miterlimit:10;}
	.st6{fill:#FFFFFF;}
	.st7{fill:#EA8350;}
	.st8{fill:#0038BB;}
	.st9{fill:#3849D8;}
</style>
<g>
	<g>
		<circle class="st0" cx="177.1" cy="130.5" r="120.7"/>
	</g>
	<g>
		<g>
			<g>
				<g>
					<path class="st1" d="M103,225.8c-7.1-5.4-12.5-11.9-12.5-11.9s0.1-1.9,0-3.6c-0.5-8.1-0.9-24.8,0.8-26.1l27.8,2.1
						c0,0,47.6-2.6,47.8-3.2s7.2,0,7.2,0s-0.1,3.6,1.3,12.2c1.4,8.6,3.6,23.7,2.4,26.7c-1.2,3,1.3,1.3,1.3,2c0,0.7-1.7,1.9-1.2,2.4
						c0.5,0.5,2.1,1.6,1.6,2.4c-0.5,0.8,0.1,21.9,0.1,21.9c-18.4,0.6-34.9-3.5-43-6.5C119.6,237.9,109.4,230.6,103,225.8z"/>
					<path class="st2" d="M176.1,251.2c-16.2,0-31.3-3.4-39.7-6.6c-16-5.9-26-12.7-33.6-18.5l0,0c-7-5.4-12.6-11.9-12.6-11.9
						l-0.1-0.2l0-0.2c0,0,0.1-1.9,0-3.6c-0.1-1-1.4-24.7,1-26.5l0.2-0.1l0.2,0l27.8,2.1c18-1,45.2-2.6,47.5-3.1
						c0.4-0.3,1.7-0.6,7.5-0.1l0.5,0l0,0.5c0,0-0.1,3.7,1.3,12.1c1.4,8.7,3.6,23.8,2.4,27c-0.4,1-0.3,1.2-0.3,1.2c0.1,0,0.4,0,0.5,0
						c0.3,0,0.7-0.1,0.9,0.2c0.1,0.1,0.2,0.3,0.2,0.5c0,0.5-0.4,0.9-0.8,1.4c-0.2,0.2-0.5,0.5-0.5,0.7c0.1,0.1,0.2,0.2,0.3,0.3
						c0.7,0.6,1.9,1.7,1.3,2.7c-0.3,0.9,0,13.8,0.2,21.7l0,0.5l-0.5,0C178.3,251.2,177.2,251.2,176.1,251.2z M90.9,213.7
						c0.9,1,6,6.8,12.3,11.6l0,0c7.6,5.8,17.5,12.5,33.4,18.4c8.8,3.3,25.2,6.9,42.3,6.5c-0.2-8-0.5-20.9,0-21.7
						c0.2-0.3-0.7-1.1-1.1-1.4c-0.2-0.1-0.3-0.3-0.4-0.4c-0.6-0.6,0-1.4,0.5-2c0.1-0.1,0.2-0.2,0.3-0.4c-0.4,0-0.9,0-1.2-0.4
						c-0.3-0.4-0.3-1.1,0.1-2.2c0.8-2.1-0.1-12-2.4-26.4c-1.1-6.9-1.3-10.5-1.3-11.8c-2.7-0.2-5.8-0.3-6.3-0.1
						c-0.5,0.4-3.4,0.7-24.3,2c-11.8,0.7-23.7,1.4-23.8,1.4l-27.6-2.1c-1.1,1.6-1.1,14.2-0.5,25.5C91,211.7,91,213.2,90.9,213.7z"/>
				</g>
				<g>
					<path class="st2" d="M117.8,66.3c0,0-6.4,1.4-11.8,4.4c-9.4,5.2-10.5,10.6-15.5,25.8c-5,15.1-8.1,34.1-8.1,34.1l31.6-0.1
						L117.8,66.3z"/>
					<path class="st2" d="M81.7,131l0.1-0.6c0-0.2,3.1-19.1,8.1-34.1c0.4-1.3,0.8-2.5,1.2-3.7c4.1-12.4,5.8-17.5,14.6-22.3
						c5.4-3,11.9-4.4,12-4.4l0.6-0.1l-3.9,65.3L81.7,131z M117.3,66.9c-1.8,0.4-6.8,1.8-11,4.2c-8.4,4.6-10,9.3-14.1,21.8
						c-0.4,1.2-0.8,2.4-1.2,3.7c-4.5,13.5-7.4,30.1-8,33.4l30.6-0.1L117.3,66.9z"/>
				</g>
				<g>
					<path class="st2" d="M177.2,119.2c-7.6,18-4.7,39.1-5,43.3c-0.3,4.3,8.7,32.6,8.7,32.6s-2.1,1.7-7.9,4c-0.8,0.3-6.2-10-6.2-10
						s-2.5,13.1-3.2,13.4c-14.4,5.5-36.6,9.6-50.7,8.1c-22.3-2.4-24.8-8.2-24.8-8.2s0.9-39.5,8.9-72.3c7.8-31.9-4.4-49.2,3.3-55.5
						c7.7-6.4,17-10.3,31.1-11.4s26.3-0.4,40.5,6.1C203.3,83.7,180.1,112.3,177.2,119.2z"/>
					<path class="st2" d="M119.5,211.5c-2.3,0-4.5-0.1-6.6-0.3c-22.4-2.4-25.1-8.3-25.2-8.5l0-0.1l0-0.1c0-0.4,1-39.9,8.9-72.4
						c4.2-17.2,2.6-30,1.4-39.3c-1-8.1-1.7-13.4,2.1-16.5c8.4-6.9,18.1-10.5,31.3-11.5c14.1-1.1,26.4-0.4,40.7,6.2
						c8.3,3.8,13.5,8.9,15.5,15.3c3.6,11.4-3.6,23.7-7.8,31.1c-1,1.8-1.9,3.2-2.3,4.2l0,0c-6.1,14.5-5.4,31.1-5,39
						c0.1,1.9,0.1,3.3,0.1,4.1c-0.3,4.1,8.6,32.1,8.7,32.4l0.1,0.3l-0.3,0.2c-0.1,0.1-2.2,1.8-8,4.1c-0.4,0.2-1.2,0.5-6.1-8.9
						c-2.3,12-3,12.2-3.3,12.4C152.2,207.5,134,211.5,119.5,211.5z M88.7,202.3c0.4,0.7,4.1,5.7,24.3,7.9c14.9,1.6,37-3,50.3-8.1
						c0.5-0.9,1.9-7.2,3-13l0.3-1.4l0.7,1.3c2.2,4.3,4.9,8.9,5.7,9.7c4.4-1.8,6.6-3.2,7.3-3.7c-1.1-3.4-8.9-28.3-8.6-32.4
						c0-0.8,0-2.2-0.1-4c-0.3-8-1.1-24.7,5.1-39.5l0,0c0.4-1,1.3-2.5,2.3-4.3c4.2-7.2,11.2-19.3,7.7-30.3c-1.9-6.1-7-11-15-14.7
						c-14.2-6.5-26.3-7.1-40.2-6.1c-13.1,1-22.6,4.5-30.8,11.3c-3.3,2.8-2.7,7.9-1.7,15.6c1.2,9.4,2.8,22.3-1.4,39.7
						C89.9,161.7,88.7,199.8,88.7,202.3z"/>
				</g>
				<g>
					<polygon class="st3" points="103.4,155.7 154.6,152.2 154.6,148.4 103.3,147.2 					"/>
					<path class="st2" d="M102.9,156.2l-0.1-9.5l52.3,1.2v4.8l-0.5,0L102.9,156.2z M103.8,147.8l0.1,7.4l50.2-3.4v-2.9L103.8,147.8z
						"/>
				</g>
				<g>
					<path class="st4" d="M156.2,142.3c0,0-18.3-7-31.6-6.6s-17.1,4.3-18.3,6.3c-2.3,3.8-4.3,6.8-1.7,6.8c2.6,0,4.7-4.1,7.7-3.3
						c3,0.8,1.8,5,8.8,6.2s9.8-1.4,9.8-1.4s7.9,0.6,12.3,2c4.4,1.4,11.1,3.2,11.1,3.2L156.2,142.3z"/>
					<path class="st2" d="M154.6,156.1l-0.5-0.1c-0.1,0-6.8-1.8-11.1-3.2c-3.9-1.2-10.8-1.9-12-2c-0.7,0.6-3.8,2.4-10,1.4
						c-4.5-0.8-5.8-2.7-6.8-4.3c-0.6-0.9-1-1.6-2-1.9c-1.4-0.4-2.7,0.6-4,1.6c-1.1,0.9-2.3,1.7-3.6,1.7c-0.8,0-1.3-0.2-1.5-0.7
						c-0.6-1.1,0.6-3.2,2.4-6.1l0.4-0.7c1.7-2.8,6.3-6.1,18.7-6.5c13.3-0.4,31.6,6.6,31.8,6.6l0.4,0.1L154.6,156.1z M130.6,149.7
						l0.2,0c0.3,0,8,0.7,12.4,2.1c3.6,1.1,8.9,2.6,10.6,3.1l1.9-12.2c-2.7-1-19-6.8-31.1-6.4c-12.6,0.4-16.6,3.9-17.9,6l-0.4,0.7
						c-1.3,2.1-2.7,4.5-2.4,5.1c0.1,0.1,0.3,0.2,0.7,0.2c1,0,2-0.7,3-1.5c1.4-1,2.9-2.2,4.8-1.7c1.3,0.4,2,1.3,2.6,2.3
						c1,1.5,2.1,3.2,6.1,3.9c6.6,1.1,9.3-1.2,9.3-1.3L130.6,149.7z"/>
				</g>
				<g>
					<path class="st2" d="M162.6,72.2c0,0,4.2-4.8,7.2-3.6c12.6,5.1,20.9,13,29.2,30.5c8.4,17.8,10.2,46.9,1.3,53.3
						c-11,8-17.2,8-31.2,8.4c-9.9,0.3-21-4.3-21-4.3s1.6-15.3,5-16.7c3.4-1.4,6.3,0.2,18.6-0.2c5.8-0.2,7.7-4.8,7.7-4.8
						s1.1-2.5-2.5-8.4c-2-3.3-4.3-3.8-4.3-3.8"/>
					<path class="st2" d="M168,161.3c-9.6,0-20.1-4.3-20.2-4.3l-0.3-0.1l0-0.4c0.2-1.6,1.8-15.6,5.4-17.1c1.9-0.8,3.6-0.7,6.7-0.5
						c2.7,0.2,6.3,0.4,12.1,0.2c5.4-0.2,7.3-4.5,7.3-4.5c0,0,0.9-2.4-2.5-7.9c-1.9-3.1-3.9-3.5-4-3.5l0.2-1c0.1,0,2.5,0.5,4.6,4
						c3.7,6.1,2.6,8.7,2.5,8.9c-0.1,0.2-2.1,4.9-8.2,5.1c-5.8,0.2-9.5-0.1-12.2-0.2c-3-0.2-4.6-0.3-6.3,0.4
						c-2.2,0.9-4,10.1-4.7,15.9c2,0.8,11.8,4.4,20.5,4.1l1.1,0c13.3-0.4,19.3-0.6,29.9-8.3c8.8-6.4,6.6-35.6-1.5-52.7
						c-7.7-16.5-15.8-25-28.9-30.2c-2.2-0.9-5.6,2.2-6.7,3.5l-0.8-0.7c0.2-0.2,4.5-5.1,7.8-3.7c13.3,5.4,21.6,14,29.4,30.7
						c8.4,17.8,10.4,47.2,1.2,53.9c-10.8,7.9-16.9,8.1-30.4,8.5l-1.1,0C168.7,161.3,168.4,161.3,168,161.3z"/>
				</g>
				<g>
					<path class="st5" d="M91,220.5"/>
				</g>
				<g>
					<polygon class="st3" points="7.2,154.2 103.3,155.7 103.3,94.6 7.2,93 					"/>
					<path class="st2" d="M103.8,156.3l-0.5,0l-96.5-1.6V92.5l0.5,0l96.5,1.6V156.3z M7.7,153.7l95,1.5V95.1l-95-1.5V153.7z"/>
				</g>
				<g>
					<g>
						<circle class="st2" cx="52.6" cy="121.7" r="1.3"/>
					</g>
					<g>
						<circle class="st2" cx="47.8" cy="120.5" r="1.3"/>
					</g>
					<g>
						<circle class="st2" cx="49.7" cy="120.2" r="1.3"/>
					</g>
					<g>
						<circle class="st2" cx="49.2" cy="121.5" r="1.3"/>
					</g>
					<g>
						<circle class="st2" cx="51" cy="120.8" r="1.3"/>
					</g>
					<g>
						<circle class="st2" cx="53.5" cy="120.5" r="1.3"/>
					</g>
					<g>
						<circle class="st2" cx="50.6" cy="122.1" r="1.3"/>
					</g>
					<g>
						<circle class="st2" cx="51.7" cy="123" r="1.3"/>
					</g>
					<g>
						<circle class="st2" cx="48.7" cy="125.6" r="1.3"/>
					</g>
					<g>
						<circle class="st2" cx="48.9" cy="123.4" r="1.3"/>
					</g>
					<g>
						<circle class="st2" cx="50.8" cy="124.3" r="1.3"/>
					</g>
					<g>
						<path class="st2" d="M50.9,120.1c0,0,0.9-1.1,1-1.7c0.1-0.5-0.2-1.6-0.2-1.6h-1.1c0,0,0.9,0.5,0.7,1.3S50.9,120.1,50.9,120.1z
							"/>
					</g>
				</g>
				<g>
					<g>
						<path class="st4" d="M61.4,156.6c-0.3,0.4-0.2,3.9-1.3,4.1c-1.1,0.2-3.7,0.4-4.2-1.7s0-5,0.1-6.3c0.1-2.9,2.6-5.2,4.8-3.7
							C63.1,150.4,61.8,155.9,61.4,156.6z"/>
						<path class="st2" d="M58.8,161.2c-2.4,0-3.1-1.3-3.4-2.2c-0.4-1.6-0.2-3.7-0.1-5.1c0.1-0.5,0.1-1,0.1-1.3c0-1.8,1-3.5,2.4-4.3
							c1.1-0.5,2.2-0.5,3.2,0.2c2.6,1.7,1.2,7.5,0.8,8.3c0,0.1-0.1,0.5-0.1,0.9c-0.2,1.4-0.4,3.2-1.5,3.4
							C59.6,161.2,59.2,161.2,58.8,161.2z M59.3,149c-0.4,0-0.7,0.1-1,0.3c-1.1,0.6-1.9,1.9-1.9,3.4c0,0.4-0.1,0.8-0.1,1.4
							c-0.1,1.4-0.3,3.3,0,4.8c0.3,1.2,1.5,1.7,3.6,1.3c0.3,0,0.5-0.9,0.7-2.5c0.1-0.7,0.1-1.1,0.3-1.3c0.3-0.5,1.4-5.7-0.5-6.9
							C60.1,149.1,59.7,149,59.3,149z"/>
					</g>
					<g>
						<path class="st4" d="M56.1,155.3c-0.1,0.5-0.9,3.7-1.9,4.1c-1.5,0.6-3.3,0.9-3.9-1.4s-0.2-3.7-0.1-5c0.1-3.1-0.1-7.3,4.2-5.9
							C57,147.9,56.4,152.7,56.1,155.3z"/>
						<path class="st2" d="M52.4,160.4c-0.4,0-0.8-0.1-1.2-0.3c-0.7-0.3-1.1-1-1.4-2c-0.4-1.8-0.3-3-0.2-4.1c0-0.4,0.1-0.7,0.1-1
							l0-0.4c0-2.2,0.1-4.7,1.6-5.8c0.8-0.6,1.9-0.6,3.2-0.2c3.1,1,2.4,6.3,2.1,8.8l0,0c0,0-0.7,3.9-2.2,4.5
							C53.6,160.2,53,160.4,52.4,160.4z M52.9,147.3c-0.4,0-0.8,0.1-1,0.3c-1.1,0.8-1.1,3.1-1.2,5l0,0.4c0,0.4,0,0.7-0.1,1.1
							c-0.1,1-0.2,2.2,0.2,3.8c0.2,0.6,0.4,1.1,0.8,1.3c0.7,0.3,1.6,0.1,2.3-0.2c0.7-0.3,1.5-3,1.6-3.7l0,0c0.3-2.1,0.9-6.9-1.4-7.7
							C53.7,147.4,53.3,147.3,52.9,147.3z"/>
					</g>
					<g>
						<path class="st4" d="M47.3,160c-0.9,0.5-2.4-0.3-2.8-0.5c-0.4-0.1-0.6-1.7-0.7-1.9c-0.1-0.1-0.4-3.3-0.4-4.9s1.3-6.2,1.9-6.7
							c0.6-0.5,2.1-1.2,3.4-1s2.5,3,1.9,5.9c-0.6,2.9-1.5,5-1.5,5.9S48.8,159.1,47.3,160z"/>
						<path class="st2" d="M46.6,160.6c-0.7,0-1.5-0.3-2-0.6c-0.1-0.1-0.2-0.1-0.3-0.1c-0.5-0.2-0.7-0.9-0.9-1.8
							c0-0.1,0-0.3-0.1-0.3c-0.2-0.3-0.5-4-0.5-5.1c0-1.5,1.3-6.4,2.1-7.1c0.7-0.6,2.4-1.4,3.8-1.2c0.5,0.1,1,0.5,1.4,1.1
							c0.7,1,1.4,3.1,0.9,5.4c-0.3,1.6-0.7,2.9-1.1,3.9c-0.3,0.8-0.5,1.5-0.5,1.9c0,1.6-0.7,2.9-1.9,3.6l0,0
							C47.2,160.6,46.9,160.6,46.6,160.6z M44.7,159.1c0,0,0.2,0.1,0.3,0.1c0.5,0.2,1.6,0.7,2,0.4l0,0c1-0.6,1.5-1.5,1.5-2.8
							c0-0.5,0.2-1.2,0.5-2.2c0.3-1,0.7-2.3,1-3.8c0.4-1.9-0.1-3.7-0.7-4.7c-0.3-0.4-0.5-0.6-0.8-0.7c-1.1-0.2-2.5,0.5-3,0.9
							c-0.5,0.5-1.7,4.8-1.7,6.3c0,1.4,0.3,4.3,0.4,4.7c0.1,0.1,0.1,0.3,0.1,0.5C44.4,158.2,44.5,158.9,44.7,159.1
							C44.7,159.1,44.7,159.1,44.7,159.1z"/>
					</g>
					<g>
						<path class="st4" d="M37.1,154.8c0,0,0.5-2.8,0.5-3.7c0.1-0.9,0.5-4,1.2-4.6c0.7-0.6,2.3-1.8,3.3-1.7c1.7,0.2,2.6,0.9,2.5,2.9
							c0,1-1.5,5.9-1.5,7.1s0.2,3.6-0.7,4.3c-0.9,0.7-1.9,1-3.2,0.9C37.8,159.8,37.1,156.9,37.1,154.8z"/>
						<path class="st2" d="M39.8,160.5c-0.2,0-0.5,0-0.7,0c-1.7-0.2-2.4-3.5-2.5-5.6l0,0l0,0c0,0,0.5-2.8,0.5-3.7
							c0-0.5,0.5-4.1,1.4-4.9c0.4-0.3,2.3-2,3.6-1.9c2.1,0.2,3.1,1.3,3,3.5c0,0.5-0.3,1.8-0.7,3.3c-0.4,1.4-0.8,3.2-0.8,3.7l0,0.5
							c0,1.4,0.1,3.4-0.9,4.2C41.8,160.1,40.8,160.5,39.8,160.5z M37.6,154.8c0.1,2.3,0.9,4.5,1.6,4.6c1.1,0.1,2-0.1,2.8-0.8
							c0.6-0.4,0.5-2.4,0.5-3.4l0-0.5c0-0.7,0.4-2.3,0.8-4c0.3-1.3,0.7-2.7,0.7-3.1c0.1-1.6-0.5-2.2-2.1-2.4
							c-0.6-0.1-1.9,0.8-2.9,1.6c-0.4,0.4-0.9,2.9-1,4.2C38,152,37.6,154.4,37.6,154.8z"/>
					</g>
				</g>
				<g>
					<path class="st4" d="M124.2,64.2c0,0-2.4,11.6,1.8,11.6c8.2,0,21.2-8.3,22.9-12.3l-3.6-13.3h-20.2L124.2,64.2z"/>
					<path class="st2" d="M126,76.3c-0.8,0-1.4-0.3-1.9-0.9c-2.1-2.6-0.6-10.5-0.4-11.2l0.9-14.5h21l3.7,13.8l-0.1,0.2
						C147.5,67.9,134.3,76.3,126,76.3z M125.6,50.7l-0.9,13.6c-0.5,2.2-1.3,8.5,0.2,10.4c0.3,0.4,0.6,0.5,1.1,0.5
						c8.2,0,20.6-8.2,22.4-11.9l-3.4-12.7H125.6z"/>
				</g>
				<g>
					<g>
						<path class="st4" d="M152.3,47.8c-1.9,4.8-6.8,10.8-11.4,12.5c-8.1,3-22.5,1.3-25.3-3.1c-3.3-5.3-8.3-31.7,4.4-40.2
							c12.3-8.2,30.8-4.8,34,6.6C156.5,32.3,155.5,39.7,152.3,47.8z"/>
						<path class="st2" d="M131.1,62.2c-7,0-14-1.8-15.9-4.9c-3.4-5.3-8.6-32.2,4.6-40.9c7.2-4.8,16.9-6,24.7-3
							c5.2,1.9,8.8,5.5,10,9.9c2.3,8.3,1.8,15.6-1.7,24.7l0,0c-1.8,4.7-6.8,11-11.7,12.7C138.2,61.8,134.6,62.2,131.1,62.2z
							 M135.3,12.8c-5.3,0-10.7,1.5-15.1,4.5c-12.4,8.3-7.4,34.6-4.3,39.6c2.7,4.2,16.8,5.8,24.7,2.9c4.6-1.7,9.3-7.6,11.1-12.2l0,0
							c3.4-8.8,3.9-16,1.7-24c-1.2-4.1-4.5-7.4-9.4-9.2C141.3,13.3,138.4,12.8,135.3,12.8z"/>
					</g>
					<g>
						<path class="st4" d="M124.6,39.4c0,0,0.1,3.2-1.3,3.8c-1,0.5-1.6,1.6-1.3,2.6c0.4,1.2,1.5,1.6,2.5,1.4c0.5-0.1,1-0.8,1.6-0.4
							c0.5,0.4,0.6,0.6,1.3,0.2c0.7-0.4,0.2-1.1,0.2-1.1"/>
						<path class="st2" d="M123.9,47.7c-1,0-2-0.5-2.4-1.8c-0.4-1.3,0.3-2.6,1.6-3.2c0.8-0.4,1-2.4,1-3.3l1,0c0,0.4,0,3.5-1.6,4.2
							c-0.8,0.4-1.2,1.2-1,2c0.3,1,1.2,1.2,1.9,1c0.1,0,0.2-0.1,0.4-0.2c0.4-0.2,1-0.6,1.6-0.2c0.1,0.1,0.2,0.2,0.3,0.2
							c0.1,0,0.1,0.1,0.2,0.1c0,0,0.1,0,0.3-0.2c0.1,0,0.1-0.1,0.1-0.1c0-0.1,0-0.2-0.1-0.3l0.8-0.6c0,0.1,0.4,0.5,0.3,1.1
							c0,0.2-0.2,0.6-0.6,0.8c-0.8,0.5-1.1,0.4-1.6,0c-0.1-0.1-0.1-0.1-0.2-0.2c-0.1-0.1-0.2,0-0.5,0.2c-0.2,0.1-0.4,0.2-0.6,0.3
							C124.4,47.6,124.1,47.7,123.9,47.7z"/>
					</g>
					<g>
						<path class="st2" d="M142.9,32.4c-0.7,0-2.1-1.5-4.7-1.7c-2.6-0.2-5.4,0.4-5.6,0.2c-0.2-0.2-0.5-0.7,0-1.2
							c0.4-0.3,2.1-1.1,3.8-1c2.5,0.2,5.3,0.9,6.5,1.7C143.8,31,143.6,32.4,142.9,32.4z"/>
						<path class="st2" d="M143,32.9C142.9,32.9,142.9,32.9,143,32.9L143,32.9c-0.4,0-0.8-0.2-1.3-0.5c-0.8-0.5-1.9-1.1-3.5-1.2
							c-1.5-0.1-3,0-4.1,0.1c-1.3,0.1-1.6,0.2-1.9-0.2c-0.5-0.7-0.4-1.3,0.1-1.8c0.5-0.5,2.4-1.2,4.2-1.1c2.4,0.2,5.4,0.8,6.7,1.8
							c0.7,0.6,0.9,1.6,0.6,2.2C143.8,32.6,143.4,32.9,143,32.9z M143,31.9L143,31.9L143,31.9L143,31.9z M137,30.1
							c0.4,0,0.9,0,1.3,0.1c1.8,0.2,3.1,0.9,3.9,1.4c0.3,0.2,0.6,0.3,0.7,0.4c0,0,0.1-0.2,0.1-0.4c0-0.3-0.1-0.6-0.4-0.8
							c-1-0.8-3.6-1.5-6.2-1.6c-1.6-0.1-3.2,0.6-3.5,0.9c-0.1,0.1-0.1,0.1,0,0.3c0.2,0,0.6,0,1-0.1C134.8,30.2,135.9,30.1,137,30.1z
							 M133.1,30.5C133.1,30.5,133.1,30.5,133.1,30.5C133.1,30.5,133.1,30.5,133.1,30.5z"/>
					</g>
					<g>
						<path class="st2" d="M114.3,32.6c0.4-0.1,1.4-1.7,4-2.1c2.6-0.4,3.7,0.4,4.2-0.2c0.2-0.2,0.2-0.6-0.3-1
							c-0.4-0.3-2.2-0.6-3.2-0.4c-2.4,0.5-4,1.3-4.6,2.2C113.8,32,113.9,32.7,114.3,32.6z"/>
						<path class="st2" d="M114.3,33.1c-0.3,0-0.5-0.1-0.6-0.3c-0.3-0.4-0.1-1.1,0.4-1.9c0.7-1.1,2.5-2,4.9-2.4c1.1-0.2,3,0,3.6,0.4
							c0.5,0.4,0.6,0.8,0.7,1c0,0.3-0.1,0.5-0.3,0.7c-0.4,0.4-1,0.4-1.7,0.3c-0.7-0.1-1.5-0.2-2.8,0c-1.7,0.3-2.7,1.1-3.2,1.6
							c-0.3,0.3-0.5,0.5-0.8,0.5l0,0C114.3,33.1,114.3,33.1,114.3,33.1z M119.9,29.4c-0.3,0-0.6,0-0.8,0.1c-2.5,0.5-3.8,1.3-4.3,2
							c-0.1,0.1-0.1,0.2-0.2,0.3c0.6-0.6,1.8-1.4,3.6-1.7c1.4-0.2,2.4-0.1,3.1,0c0.4,0.1,0.8,0.1,0.9,0c0,0-0.1-0.1-0.3-0.3
							C121.7,29.6,120.8,29.4,119.9,29.4z"/>
					</g>
					<g>
						<g>
							<path class="st2" d="M138.6,38.7c0,0-1,1.4-2.1,1.2c-1.1-0.2-1.9-0.5-1.7-1.7s0.5-3.2,2-3.1S139.1,37.5,138.6,38.7z"/>
							<path class="st2" d="M136.8,40.4c-0.1,0-0.2,0-0.3,0c-0.8-0.1-2.4-0.4-2.1-2.3c0.2-1.3,0.6-3.6,2.5-3.5
								c0.7,0,1.4,0.5,1.8,1.2c0.6,0.9,0.7,2.2,0.4,3.1l-0.1,0.1C138.9,39.1,138,40.4,136.8,40.4z M136.7,35.6
								c-0.9,0-1.2,1.3-1.4,2.6c-0.1,0.7,0.1,1,1.3,1.2c0.6,0.1,1.3-0.6,1.6-0.9c0.2-0.6,0.1-1.4-0.3-2.1
								C137.7,36.1,137.3,35.6,136.7,35.6C136.8,35.6,136.8,35.6,136.7,35.6z"/>
						</g>
						<g>
							<path class="st6" d="M136,35.9c0.1-0.2,0.5-0.2,0.6-0.1c0.1,0.1,0.3,0.5,0.1,0.7c-0.2,0.2-0.3,0.4-0.7,0.3
								S135.8,36.2,136,35.9z"/>
							<path class="st6" d="M136.2,37.3c-0.1,0-0.3,0-0.4-0.1c-0.2-0.1-0.4-0.3-0.5-0.5c-0.1-0.3,0-0.7,0.2-1.1
								c0.2-0.2,0.4-0.4,0.8-0.4c0.2,0,0.5,0.1,0.6,0.3c0.2,0.3,0.4,0.8,0.1,1.3C136.9,37,136.6,37.3,136.2,37.3z M136.4,36.2
								C136.4,36.2,136.4,36.2,136.4,36.2L136.4,36.2z"/>
						</g>
					</g>
					<g>
						<g>
							<path class="st2" d="M117.6,36.7c0,0,0,2.4,1,2.6c1,0.2,2-0.3,2.2-1c0.4-1.3,0.1-3.2-1-3.2C118.6,35.1,117.9,35.9,117.6,36.7
								z"/>
							<path class="st2" d="M119,39.8c-0.2,0-0.4,0-0.5-0.1c-1.3-0.3-1.4-2.6-1.4-3.1l0-0.2c0.4-1,1.3-2,2.7-2
								c0.4,0,0.8,0.2,1.1,0.6c0.6,0.8,0.6,2.3,0.3,3.3C121,39.3,120,39.8,119,39.8z M118.1,36.8c0,0.9,0.2,1.9,0.5,2
								c0.8,0.1,1.5-0.2,1.7-0.6c0.2-0.9,0.2-2-0.2-2.4c-0.1-0.2-0.2-0.2-0.3-0.2C119,35.6,118.4,36.2,118.1,36.8z"/>
						</g>
						<g>
							<path class="st6" d="M118.5,36.4c0.1-0.2,0.4-0.2,0.5-0.1c0.1,0.1,0.3,0.4,0.2,0.6c-0.1,0.2-0.4,0.3-0.7,0.2
								S118.4,36.6,118.5,36.4z"/>
							<path class="st6" d="M118.7,37.6c-0.1,0-0.2,0-0.3,0c-0.2,0-0.4-0.2-0.5-0.4c-0.2-0.5,0.2-1,0.2-1.1l0,0
								c0.2-0.2,0.4-0.4,0.7-0.4c0.2,0,0.4,0,0.6,0.2c0.2,0.2,0.5,0.7,0.3,1.2C119.5,37.4,119.1,37.6,118.7,37.6z"/>
						</g>
					</g>
					<g>
						<path class="st2" d="M151.9,33.8l-3.4,9.3l-4,0.6c0,0,3.6-9.3,3.1-10.9s-3.4-3.2-3.2-4.5c0.2-1.3,1.1-3.6,1.1-3.6
							s-2.3-2-2.4-4.1c-0.1-2.1,0.4-4.6,0.4-4.6s-6.3,4.2-9.9,4.3c-3.6,0.1-4.5-0.6-5.4-1c-0.8-0.4-2.5-1.5-4.8-1.1
							s-3.5,0.9-3.6,2.7c0,1.5,1.1,1.8,1.1,1.8s-2,1.5-3.3,0.3c-1.1-0.9-1.5-2.7-1.5-2.7s-2,2.6-1,4.9c1,2.2,1.9,0.6,1.9,0.6
							s0.4,0.5-0.5,1.4c-1,1-3.9,1.5-5.3-2c-1.5-3.5,0.4-6.1,0.4-6.1s1.8,0.6,2.2-2.1c0.6-3.3,2.3-2.9,2.3-2.9s-0.7-2.6,2.6-3.7
							c3.3-1.1,6.7-0.8,6.7-0.8s-0.2-3.4,5.2-1.9c4.8,1.3,4.5-1.3,7.6,0.1c1.9,0.8,3.5,2.3,3.5,2.3s1.3-0.4,1-2.2
							c-0.1-0.7-1.3-1.1-1.3-1.1s1.3-0.5,2.4,1c1.1,1.5,0.2,3.3,0.2,3.3s1.7-1.4,3.1-1.2s3.3,1.3,3.3,1.3s0,0-1.3,0.3
							c-1.3,0.3-2.3,1-2.3,1s6.9-0.5,9.7,3.4c2.8,3.9,2.1,7.4,2.1,7.4s2.5,0.6,1.9,3.8c-0.3,1.4,0.9,2,0.2,4.4
							c-0.4,1.5-2.2,2.7-2.2,2.7l-0.6,1.3c0,0-3.2-2.1-4.2-2C153,33.3,151.9,33.8,151.9,33.8z"/>
						<path class="st2" d="M143.7,44.2l0.3-0.8c1.5-3.8,3.4-9.6,3.1-10.5c-0.2-0.6-0.9-1.3-1.5-1.9c-0.9-0.9-1.8-1.8-1.7-2.8
							c0.2-1.1,0.8-2.7,1.1-3.4c-0.6-0.6-2.2-2.3-2.3-4.2c-0.1-1.3,0.1-2.7,0.2-3.6c-1.9,1.2-6.3,3.7-9.2,3.8
							c-3.3,0.1-4.5-0.5-5.3-0.9c-0.1,0-0.2-0.1-0.3-0.1c-0.1-0.1-0.3-0.1-0.4-0.2c-0.9-0.5-2.3-1.2-4.1-0.9
							c-2.4,0.4-3.1,0.9-3.2,2.2c0,1,0.6,1.3,0.7,1.3l0.9,0.3l-0.8,0.6c-0.1,0.1-2.3,1.7-4,0.3c-0.6-0.5-1-1.3-1.3-1.9
							c-0.4,0.9-0.9,2.3-0.4,3.5c0.3,0.7,0.6,0.9,0.7,0.9c0,0,0,0,0,0c0.1,0,0.3-0.2,0.3-0.3l0.4-0.7l0.5,0.6c0,0,0.6,0.9-0.6,2
							c-0.6,0.6-1.8,1.1-3,0.8c-0.9-0.2-2.2-0.9-3.1-2.9c-1.6-3.7,0.4-6.5,0.5-6.6l0.2-0.3l0.3,0.1c0,0,0.4,0.1,0.8-0.1
							c0.4-0.2,0.7-0.8,0.8-1.6c0.3-1.5,0.8-2.4,1.5-2.9c0.3-0.2,0.5-0.3,0.7-0.3c0-1,0.3-2.8,3-3.7c2.7-0.9,5.3-0.9,6.4-0.9
							c0.1-0.4,0.3-1.1,0.9-1.6c1-0.8,2.6-0.9,4.8-0.3c2.4,0.6,3.4,0.3,4.3,0c0.9-0.3,1.8-0.6,3.4,0.1c1.5,0.6,2.8,1.7,3.3,2.2
							c0.2-0.2,0.6-0.6,0.4-1.5c0-0.3-0.6-0.6-1-0.7l-1.4-0.4l1.4-0.5c0.6-0.2,2-0.3,3,1.1c0.6,0.8,0.7,1.7,0.6,2.4
							c0.7-0.4,1.5-0.7,2.4-0.6c1.6,0.2,3.4,1.3,3.5,1.3l1.1,0.7l-2.6,0.5c0,0-0.1,0-0.1,0c2.3,0.2,5.9,0.9,7.8,3.6
							c2.4,3.3,2.3,6.3,2.2,7.4c0.8,0.4,2.4,1.4,1.9,4.3c-0.1,0.5,0,0.8,0.2,1.3c0.2,0.7,0.5,1.6,0.1,3.2c-0.4,1.4-1.8,2.6-2.2,2.9
							l-0.8,1.8l-0.5-0.3c-1.7-1.1-3.4-1.9-3.8-1.9c-0.6,0.1-1.4,0.3-1.7,0.5l-3.4,9.3L143.7,44.2z M144.2,14.8L144,16
							c0,0-0.5,2.5-0.4,4.5c0.1,1.9,2.2,3.7,2.2,3.7l0.3,0.2l-0.1,0.3c0,0-0.9,2.3-1.1,3.5c-0.1,0.5,0.7,1.3,1.4,1.9
							c0.7,0.7,1.5,1.5,1.8,2.3c0.5,1.5-1.9,7.9-2.8,10.4l2.9-0.4l3.4-9.2l0.2-0.1c0,0,1.2-0.5,2.2-0.6c0.9-0.1,2.9,1.1,4,1.7
							l0.4-0.9l0.1-0.1c0,0,1.6-1.2,2-2.5c0.3-1.3,0.1-2-0.1-2.6c-0.2-0.5-0.3-1-0.2-1.8c0.5-2.7-1.3-3.2-1.5-3.2l-0.5-0.1l0.1-0.5
							c0,0,0.6-3.4-2-7c-2.6-3.6-9.2-3.2-9.2-3.2l-1.8,0.1l1.5-1c0,0,1-0.7,2.4-1c-0.6-0.2-1.2-0.5-1.8-0.6c-1-0.1-2.3,0.7-2.7,1.1
							l-1.8,1.5l1-2.1c0-0.1,0.7-1.5-0.1-2.7c-0.1-0.1-0.1-0.2-0.2-0.2c0.3,1.7-0.7,2.5-1.3,2.7l-0.3,0.1l-0.2-0.2
							c0,0-1.6-1.4-3.3-2.2c-1.3-0.6-1.9-0.4-2.7-0.1c-1,0.3-2.2,0.8-4.9,0c-1.9-0.5-3.2-0.5-3.9,0.1C126,8.6,126,9.3,126,9.4l0,0.6
							l-0.6,0c0,0-3.3-0.2-6.5,0.8c-2.8,0.9-2.4,2.9-2.3,3.1l0.2,0.8l-0.8-0.2c0,0-1.2-0.2-1.7,2.5c-0.2,1.1-0.6,1.9-1.3,2.3
							c-0.4,0.3-0.9,0.3-1.2,0.3c-0.4,0.7-1.3,2.8-0.2,5.4c0.5,1.3,1.4,2.1,2.4,2.3c0.8,0.2,1.6-0.1,2.1-0.5c-0.5-0.1-1-0.5-1.4-1.5
							c-1.1-2.5,0.9-5.3,1-5.4l0.7-0.9l0.2,1.1c0,0,0.4,1.6,1.3,2.4c0.6,0.5,1.5,0.3,2.1,0c-0.3-0.4-0.6-0.9-0.6-1.8
							c0.1-2.3,2-2.8,4-3.2c2.1-0.4,3.7,0.5,4.7,1c0.1,0.1,0.3,0.1,0.4,0.2c0.1,0,0.2,0.1,0.3,0.2c0.8,0.4,1.8,0.9,4.8,0.8
							c3.4-0.1,9.6-4.2,9.6-4.2L144.2,14.8z"/>
					</g>
					<g>
						<g>
							<path class="st4" d="M151.5,34.8c2.1-2.7,7.2-2.6,7.5,1.9c0.3,4.5-0.5,8.1-3.3,8.7c-3.8,0.9-6.1,0.4-6-1.3"/>
							<path class="st2" d="M152.4,46.3c-1.1,0-2-0.2-2.7-0.7c-0.5-0.4-0.7-0.9-0.7-1.6l1,0c0,0.3,0.1,0.6,0.3,0.7
								c0.7,0.6,2.6,0.6,5.1,0.1c2.8-0.6,3.2-4.8,3-8.2c-0.1-1.6-0.9-2.7-2.1-3.1c-1.5-0.5-3.4,0.1-4.5,1.4l-0.8-0.6
								c1.3-1.6,3.6-2.4,5.6-1.8c1.7,0.5,2.7,2,2.8,3.9c0.3,5.5-0.9,8.6-3.7,9.2C154.7,46.1,153.5,46.3,152.4,46.3z"/>
						</g>
						<g>
							<path class="st4" d="M157,39.6c-0.1-2.3-0.6-3.9-3.2-3.1c-2.9,0.9-2.4,6.4-0.4,6.2c3.8-0.4,1.3-3.1,0.2-2.2"/>
							<path class="st2" d="M153.2,43.2c-0.9,0-1.7-0.8-1.9-2.1c-0.4-2,0.3-4.4,2.3-5.1c1.2-0.4,2.1-0.3,2.7,0.1
								c1,0.7,1.1,2.1,1.2,3.4l-1,0c0-1.5-0.3-2.3-0.7-2.6c-0.4-0.3-1-0.3-1.8,0c-1.6,0.5-1.9,2.6-1.6,3.9c0.1,0.6,0.5,1.4,1,1.3
								c1.1-0.1,1.5-0.4,1.6-0.7c0-0.2-0.2-0.5-0.4-0.6c-0.1,0-0.4-0.2-0.5,0l-0.7-0.7c0.4-0.4,1.1-0.5,1.7-0.1
								c0.7,0.4,1,1.1,0.9,1.7c-0.1,0.6-0.6,1.3-2.5,1.4C153.4,43.2,153.3,43.2,153.2,43.2z"/>
						</g>
					</g>
				</g>
				<g>
					<path class="st6" d="M155.4,138.6c0,0-0.9,6.6-1.3,8.7s-1.6,6.1-1.4,7.5c0.2,1.4,0,4.2,0,4.2s-6.1-0.7-6.6-1.2
						c-0.5-0.5-2.2-0.3-2.2-0.3s1.6-5,1.6-7.4c0-2.4,1.3-8.6,1.9-10.2c0.6-1.5,1.4-2.9,1.4-2.9s1.7,1.9,2.5,1.8
						S155.4,138.6,155.4,138.6z"/>
					<path class="st2" d="M152.6,159.4C152.6,159.4,152.6,159.4,152.6,159.4c-2.4-0.3-6.4-0.8-6.9-1.3c-0.2-0.2-1.1-0.3-1.8-0.2
						c-0.2,0-0.3-0.1-0.4-0.2c-0.1-0.1-0.1-0.3-0.1-0.5c0,0,1.6-5,1.6-7.3c0-2.5,1.3-8.7,1.9-10.3c0.6-1.5,1.4-2.9,1.4-3
						c0.1-0.1,0.2-0.2,0.4-0.2c0.2,0,0.3,0,0.4,0.2c0.8,0.9,1.8,1.6,2.1,1.6c0.9-0.1,4.1-0.1,4.2-0.1c0.2,0,0.3,0.1,0.4,0.2
						c0.1,0.1,0.1,0.3,0.1,0.4c0,0.3-0.9,6.6-1.3,8.7c-0.1,0.5-0.2,1-0.4,1.6c-0.5,2-1.1,4.7-1,5.7c0.2,1.4,0,4.2,0,4.3
						c0,0.1-0.1,0.3-0.2,0.3C152.9,159.4,152.8,159.4,152.6,159.4z M144.5,156.9c0.6,0,1.4,0.1,1.8,0.5c0.4,0.2,3.2,0.7,5.8,1
						c0.1-0.9,0.1-2.6,0-3.6c-0.2-1.2,0.5-3.8,1-6c0.1-0.6,0.3-1.1,0.4-1.6c0.4-1.7,1-6.4,1.2-8.1c-1,0-3,0.1-3.6,0.1
						c-0.8,0.1-1.8-0.8-2.4-1.4c-0.3,0.5-0.7,1.4-1,2.3c-0.6,1.5-1.8,7.6-1.8,10C145.9,151.9,144.9,155.4,144.5,156.9z"/>
				</g>
				<g>
					<path class="st7" d="M135.7,49.3c0,0,0,3.8-0.5,4.9c-0.9,2.3-2.6,2.3-3.5,2.5c-0.9,0.2-5.7,0.3-6.7-0.3c-1-0.6-1.5-0.7-1.5-2.2
						c0-1.9-1-4.2-1-4.2s2.8,0.5,5.9,0.6C131.4,50.8,135.7,49.3,135.7,49.3z"/>
					<path class="st2" d="M128.9,57.4c-1.7,0-3.5-0.1-4.2-0.5l-0.3-0.1c-1-0.5-1.5-0.9-1.5-2.5c0-1.8-1-4-1-4l-0.4-0.9l0.9,0.2
						c0,0,2.8,0.5,5.8,0.6c2.9,0.1,7.1-1.3,7.2-1.4l0.7-0.2l0,0.7c0,0.4-0.1,3.9-0.5,5.1c-0.8,2.2-2.5,2.6-3.5,2.8
						c-0.1,0-0.3,0.1-0.4,0.1C131.4,57.4,130.2,57.4,128.9,57.4z M123.2,50.7c0.3,0.9,0.7,2.3,0.7,3.6c0,1.1,0.2,1.2,1,1.6l0.3,0.1
						c0.9,0.5,5.4,0.5,6.3,0.2c0.1,0,0.3-0.1,0.4-0.1c0.9-0.2,2.1-0.4,2.8-2.1c0.3-0.7,0.4-2.8,0.4-4.1c-1.3,0.4-4.4,1.3-6.9,1.2
						C126.2,51.1,124.3,50.9,123.2,50.7z"/>
				</g>
				<g>
					<path class="st6" d="M135.7,49.3l-0.1,2.7c0,0-3.1,0.5-4.3,0.8c-1.2,0.2-3.3,0.1-5.5-0.1c-1.4-0.1-2.5-0.1-2.6-0.5
						c-0.3-1.1-0.6-2-0.6-2s2.8,0.5,5.9,0.6C131.4,50.8,135.7,49.3,135.7,49.3z"/>
					<path class="st2" d="M129.7,53.3c-1.2,0-2.6-0.1-4-0.2c-0.3,0-0.6,0-0.8-0.1c-1.2-0.1-2-0.1-2.2-0.8c-0.3-1.1-0.6-2-0.6-2
						l-0.3-0.8l0.9,0.2c0,0,2.8,0.5,5.8,0.6c2.9,0.1,7.1-1.3,7.2-1.4l0.7-0.2l-0.2,3.8l-0.4,0.1c0,0-3.1,0.5-4.3,0.8
						C130.9,53.3,130.3,53.3,129.7,53.3z M123.6,51.9c0.2,0.1,0.9,0.1,1.3,0.2c0.3,0,0.6,0,0.8,0.1c2.1,0.2,4.2,0.3,5.4,0.1
						c0.9-0.2,3.1-0.5,3.9-0.7l0.1-1.5c-1.4,0.4-4.4,1.3-6.8,1.2c-2.1-0.1-4-0.3-5.1-0.5C123.3,51,123.5,51.4,123.6,51.9z"/>
				</g>
				<g>
					<path class="st4" d="M134.8,47c0,0,0.5,1.9,1,2.3c1.7,1.2,4,1.2,4,1.2"/>
					<path class="st2" d="M139.8,51c-0.1,0-2.5,0-4.3-1.3c-0.6-0.4-1-1.9-1.2-2.6l1-0.2c0.2,0.9,0.6,1.8,0.8,2
						c1.5,1.1,3.7,1.1,3.7,1.1L139.8,51z"/>
				</g>
				<g>
					<path class="st1" d="M134.8,54.6c0,0-3.6-0.1-4.8,0.2c-2.1,0.6-3.2,2-3.2,2s3.6,0.2,4.8-0.1C133.8,56.2,134.8,54.6,134.8,54.6z
						"/>
					<path class="st2" d="M129.3,57.4c-1.2,0-2.4-0.1-2.5-0.1l-1-0.1l0.6-0.8c0-0.1,1.2-1.5,3.4-2.2c1.3-0.4,4.8-0.2,5-0.2l0.9,0
						l-0.5,0.7c0,0.1-1.1,1.8-3.4,2.3C131.2,57.4,130.3,57.4,129.3,57.4z M128,56.4c1.2,0,2.8,0,3.5-0.1c1-0.2,1.7-0.7,2.2-1.2
						c-1.2,0-2.9,0-3.6,0.2C129.2,55.6,128.5,56,128,56.4z"/>
				</g>
			</g>
			<g>
				<path class="st6" d="M148.9,62.8c0,0-8.5,8-14.5,10.1c-6,2.1-8.4,1.1-8.9,0.8c-1.8-1.3-1.9-4.3-1.8-5.3c0.1-1,0.6-4.5,0.6-4.5
					l-2,0.5c-0.7,1.1-1.3,3.4-1.3,5.6c0,1.9,0.5,6.2,4.8,7.3c2.7,0.7,10.7-0.4,14.7-2.8c2.7-1.6,6.3-3.1,9.9-8.3
					c0.8-1.1,1.9-2.8,1.9-2.8L148.9,62.8z"/>
				<path class="st2" d="M127.9,78c-0.9,0-1.7-0.1-2.2-0.2c-4.4-1.1-5.1-5.4-5.2-7.8c0-2.2,0.5-4.6,1.4-5.9c0.1-0.1,0.2-0.2,0.3-0.2
					l2-0.5c0.2,0,0.3,0,0.5,0.1s0.2,0.3,0.2,0.4c0,0-0.5,3.5-0.6,4.5c-0.1,0.9,0,3.7,1.6,4.8c0.1,0.1,2.1,1.4,8.5-0.8
					c5.9-2.1,14.3-9.9,14.4-10c0.1-0.1,0.3-0.2,0.4-0.1l3.3,0.7c0.2,0,0.3,0.1,0.4,0.3c0.1,0.2,0,0.3,0,0.5c0,0-1.1,1.7-1.9,2.8
					c-3.1,4.5-6.3,6.3-8.8,7.7c-0.4,0.2-0.8,0.5-1.2,0.7C137.4,77,131.5,78,127.9,78z M122.5,64.8c-0.6,1-1.2,3-1.1,5.2
					c0.1,2.6,0.9,5.9,4.4,6.8c2.6,0.7,10.5-0.4,14.3-2.8c0.4-0.2,0.8-0.5,1.3-0.7c2.6-1.4,5.4-3.1,8.5-7.4c0.5-0.7,1.1-1.6,1.5-2.1
					l-2.4-0.5c-1.3,1.2-8.9,8.1-14.5,10c-6.6,2.3-9,1-9.4,0.7c-2-1.4-2.1-4.6-2-5.8c0.1-0.7,0.4-2.7,0.5-3.8L122.5,64.8z"/>
			</g>
		</g>
		<g>
			<g>
				<path class="st1" d="M223.3,25.1c0,0,3.8-10.7-4.3-8.6c-8.1,2.2-15.4,13.8-12,19.9c3.3,6.1,3.7,14.4,0.9,15.5
					c-2.8,1.2-4.3,2.4-4.3,2.4s9.2,1.5,10.3-6s1.1-14.9,2.5-16.9S223.3,25.1,223.3,25.1z"/>
				<path class="st2" d="M205.3,55c-1.1,0-1.8-0.1-1.9-0.1c-0.2,0-0.4-0.2-0.4-0.4c-0.1-0.2,0-0.4,0.2-0.5c0.1-0.1,1.6-1.3,4.5-2.5
					c0.6-0.3,1-0.9,1.1-1.5c0.9-2.7,0.3-8.5-2.3-13.4c-1.3-2.4-1.2-5.7,0.4-9.3c2.3-5.4,7.3-10.1,12-11.3c2.2-0.6,3.8-0.3,4.7,0.7
					c2.2,2.4,0.2,8.2,0.1,8.5c0,0.1-0.1,0.2-0.1,0.2c-0.1,0-5.4,4.6-6.8,6.4c-0.8,1.1-1.1,4.5-1.5,8.4c-0.2,2.5-0.5,5.4-0.9,8.2
					c-0.3,2.1-1.3,3.7-2.8,4.8C209.6,54.7,207,55,205.3,55z M205,54c0.9,0,2,0,3.2-0.3c3-0.7,4.7-2.5,5.2-5.3
					c0.4-2.8,0.7-5.6,0.9-8.2c0.4-4.3,0.7-7.6,1.7-8.9c1.4-1.8,6.1-5.8,6.9-6.5c0.6-1.6,1.5-5.7,0-7.3c-0.7-0.8-2-0.9-3.8-0.4
					c-4.4,1.2-9.1,5.6-11.3,10.8c-1.4,3.3-1.6,6.3-0.4,8.4c2.5,4.6,3.5,10.8,2.3,14.2c-0.4,1.1-0.9,1.8-1.7,2.1
					C206.7,53,205.7,53.6,205,54z M223.3,25.1L223.3,25.1L223.3,25.1z"/>
			</g>
			<g>
				<path class="st0" d="M225.3,16.2c0,0-1.6-1.1-1.7-0.7c-0.1,0.4-0.1,2.2-0.9,2.3c-0.8,0.1-3-0.4-2.6,1c0.4,1.3-0.1,2.3-0.7,2.7
					c-0.6,0.3-1,1.6-0.7,2.1c0.3,0.5,1.5,1.1,2.5,0.6c1-0.5,3.8-3.9,4.6-4.2s3.6-1.5,3.7-2.3c0.1-0.8-2.4-2.9-3.3-2.1
					C225.3,16.2,225.3,16.2,225.3,16.2z"/>
				<path class="st2" d="M220.4,24.8c-0.3,0-0.6,0-0.9-0.1c-0.6-0.2-1.1-0.5-1.2-0.9c-0.4-0.7,0-2.3,0.9-2.8c0.4-0.2,0.8-1,0.5-2.1
					c-0.2-0.5,0-0.9,0.1-1.1c0.4-0.6,1.4-0.5,2.2-0.5c0.3,0,0.6,0,0.7,0c0.1,0,0.3-0.2,0.4-1.5c0-0.2,0-0.4,0.1-0.4
					c0-0.2,0.2-0.4,0.4-0.4c0.2-0.1,0.5-0.2,1.8,0.6l0.6-0.6c0.3-0.2,0.9-0.6,2,0c1,0.5,2.3,1.7,2.2,2.5c-0.1,0.7-1.2,1.5-3.9,2.7
					l-0.1,0c-0.3,0.1-1.3,1.2-2.1,1.9c-1,1-1.9,2-2.5,2.3C221.1,24.7,220.8,24.8,220.4,24.8z M220.6,18.4c0,0,0,0,0,0.2
					c0.5,1.6-0.1,2.8-0.9,3.2c-0.4,0.2-0.6,1.2-0.5,1.5c0,0.1,0.3,0.3,0.7,0.4c0.4,0.1,0.8,0.1,1.2-0.1c0.4-0.2,1.4-1.3,2.2-2.1
					c1.2-1.2,1.9-2,2.4-2.2l0.1,0c2.9-1.3,3.3-1.8,3.3-1.9c0-0.3-1-1.3-1.9-1.6c-0.3-0.1-0.5-0.1-0.6,0l-0.9,0.8
					c-0.2,0.2-0.4,0.2-0.6,0c-0.3-0.2-0.7-0.5-1-0.6c-0.1,0.8-0.3,2.1-1.2,2.2c-0.2,0-0.5,0-0.9,0C221.6,18.2,220.7,18.2,220.6,18.4
					L220.6,18.4z"/>
			</g>
			<g>
				<path class="st1" d="M260.6,46.2c0,0,2.1,4.8,1,9.7s-4.1,6.1-2.2,6.5c1.9,0.4-0.4,5.7-0.4,5.7s2.3-2.3,0-2.8
					c-2.3-0.5-1.8-3.4-0.9-4.9c0.9-1.4,2.6-6.7,1.7-8.3c-0.9-1.6-3.3-3.1-3.3-3.1"/>
				<path class="st2" d="M259.1,68.5c-0.1,0-0.2,0-0.3-0.1c-0.2-0.1-0.3-0.4-0.2-0.6c0.2-0.5,0.5-1.3,0.7-2
					c-0.1-0.1-0.3-0.1-0.4-0.1c-0.9-0.2-1.5-0.7-1.8-1.4c-0.5-1.2-0.1-3,0.6-4.2c1-1.5,2.4-6.5,1.7-7.7c-0.8-1.4-3.1-3-3.1-3
					c-0.2-0.2-0.3-0.5-0.1-0.7c0.2-0.2,0.5-0.3,0.7-0.1c0.1,0.1,2.5,1.7,3.4,3.3c1.1,1.8-0.8,7.4-1.7,8.8c-0.6,0.9-0.9,2.3-0.5,3.2
					c0.2,0.5,0.6,0.7,1.1,0.9c0.2,0,0.3,0.1,0.4,0.1c0.2-0.8,0.2-1.4,0-1.8c-0.1-0.1-0.1-0.2-0.3-0.2c-0.3-0.1-0.8-0.2-0.9-0.6
					c-0.2-0.5,0.1-1,0.6-1.7c0.6-1,1.6-2.4,2.1-4.7c1-4.6-1-9.3-1-9.4c-0.1-0.3,0-0.5,0.3-0.7c0.3-0.1,0.5,0,0.7,0.3
					c0.1,0.2,2.1,5,1.1,10c-0.5,2.5-1.6,4.1-2.3,5.1c-0.2,0.3-0.4,0.6-0.5,0.8c0,0,0.1,0,0.2,0.1c0.4,0.1,0.7,0.3,0.9,0.7
					c0.4,0.7,0.2,1.9,0,2.9c0.1,0.1,0.1,0.2,0.1,0.3c0.3,1.1-0.9,2.3-1.1,2.6C259.3,68.5,259.2,68.5,259.1,68.5z"/>
			</g>
			<g>
				<path class="st1" d="M218.3,32.4c1.2,5.4-2.3,10.2,0,13.2c2.3,3,3.2,5.5,3.2,5.5s2.5,2.3,4.3,2.2s5.7-6.1,11.2-9.6
					c5.5-3.4,21.1,12.9,23.9,4.4c4.3-13.1,3.1-17.2-1-24.4c-2.8-5-16-8.6-26.5-7.6c-10.5,1-11,4.4-13,6.8
					C215.6,28.4,218.3,32.4,218.3,32.4z"/>
				<path class="st2" d="M225.7,53.8c-1.9,0-4.3-2.1-4.5-2.4c-0.1-0.1-0.1-0.1-0.1-0.2c0,0-0.9-2.5-3.1-5.4
					c-1.3-1.8-0.9-4.1-0.4-6.5c0.4-2.1,0.9-4.4,0.3-6.8c-0.4-0.7-2.5-4.6,2.2-10c0.3-0.4,0.6-0.8,0.9-1.2c1.6-2.3,3.4-4.8,12.4-5.7
					c10.9-1.1,24,2.7,26.9,7.8c4.1,7.2,5.4,11.5,1,24.8c-0.4,1.3-1.1,2.1-2.2,2.6c-2.7,1.1-6.8-1.1-11.2-3.4
					c-4.2-2.3-8.6-4.6-10.8-3.2c-2.8,1.8-5.3,4.3-7.2,6.3C228.1,52.5,226.8,53.8,225.7,53.8C225.8,53.8,225.7,53.8,225.7,53.8z
					 M221.9,50.8c0.7,0.6,2.6,2,3.8,2c0,0,0,0,0,0c0.6,0,2.1-1.5,3.5-3c2-2.1,4.5-4.6,7.4-6.5c2.7-1.7,7.1,0.7,11.8,3.2
					c4,2.1,8.1,4.3,10.3,3.4c0.7-0.3,1.3-0.9,1.6-1.9c4.2-13,3.1-16.9-1-24c-2.7-4.7-15.6-8.4-26-7.3c-8.5,0.9-10.2,3.2-11.7,5.3
					c-0.3,0.4-0.6,0.9-1,1.3c-4.5,5.2-2.2,8.7-2.1,8.9c0,0.1,0.1,0.1,0.1,0.2c0.6,2.7,0.1,5.1-0.3,7.3c-0.5,2.3-0.8,4.3,0.2,5.7
					C220.7,48,221.7,50.2,221.9,50.8z"/>
			</g>
			<g>
				<path class="st4" d="M317.8,104.1c0,0-3.3-0.9-5.1,0.4c-1.9,1.3-2.3-2.7-2.7-3.6s0.4-1.8,0.4-1.8s-1.2-0.4-1.3-1.3
					s1.9-2.9,1.9-2.9s-1.8-1.3-2.1-3.3c-0.3-2,1.7-3.3,1.7-3.3s-0.9,0.1-1.1-1.3c-0.1-1.4,0.8-1,1.2-2.7c0.4-1.7,3.4-2.9,9.6-2.1
					s3.8,8.1,2.6,17.1c-1,7.7-8,8.3-8.6,8.4s-22.8,32.4-26.6,33.1c-3.8,0.7-10.6-9.1-15.9-13.5c-5.3-4.3-6.1-6.1-6.1-6.1l10.9-15.1
					l11.7,15.5c0,0,11.8-14.1,13-16.5s2.4-3.8,1.5-7.4c-0.6-2.6,0.4-6.7,0.5-10.6c0.1-4.1-0.2-8.1,0.8-9.4c1.8-2.6,5.2-1.4,4.6,1.3
					c-0.6,2.7-1.3,8.7-1.3,9.6s3.2-4.3,3.2-4.3"/>
				<path class="st2" d="M287.2,141.4c-2.7,0-6.3-3.8-10-7.8c-2-2.1-4-4.3-5.8-5.8c-5.3-4.4-6.2-6.2-6.2-6.3l-0.1-0.3l0.2-0.2
					l11.3-15.7l11.7,15.5c2.1-2.5,11.5-13.9,12.6-16c0.2-0.3,0.3-0.7,0.5-1c1-1.8,1.7-3.1,1-6.1c-0.4-1.7-0.1-4,0.1-6.4
					c0.2-1.4,0.3-2.9,0.4-4.4c0-1,0-2.1,0-3c0-3.1,0-5.5,0.8-6.7c1.2-1.7,2.9-1.9,4-1.4c1.2,0.5,1.7,1.7,1.4,3.1
					c-0.5,2-1,6.1-1.2,8.3c0.6-0.8,1.4-2.1,2.1-3.3c0.6-2.3,4.4-3.2,10.2-2.4c1.6,0.2,2.7,0.8,3.4,1.8c1.7,2.3,1.1,6.3,0.3,11.4
					c-0.2,1.5-0.5,2.9-0.7,4.5c-0.6,4.8-3.7,8-8.8,8.8c0,0,0,0,0,0c-0.4,0.5-2.2,2.9-4.1,5.6c-9.5,13-19.9,27-22.6,27.5
					C287.6,141.4,287.4,141.4,287.2,141.4z M266.3,121.3c0.4,0.6,1.7,2.4,5.8,5.7c1.9,1.5,3.9,3.7,5.9,5.9c3.5,3.7,7.4,7.9,9.6,7.5
					c2.6-0.5,16.2-19.2,22-27.1c4.3-5.9,4.3-5.9,4.6-5.9c0,0,0.1,0,0.2,0c3.2-0.6,7.2-2.4,8-8c0.2-1.6,0.4-3.1,0.7-4.5
					c0.7-4.6,1.4-8.7-0.1-10.6c-0.6-0.8-1.5-1.2-2.8-1.4c-6.2-0.8-8.8,0.4-9.1,1.7c-0.2,0.9-0.6,1.4-0.9,1.7
					c-0.2,0.3-0.4,0.4-0.3,0.9c0,0.4,0.1,0.6,0.3,0.7c0.1,0.1,0.2,0.1,0.2,0.1h0l2.2-0.3l-1.8,1.2c0,0-1.7,1.2-1.5,2.8
					c0.2,1.7,1.9,3,1.9,3l0.5,0.3l-0.4,0.4c-0.9,0.9-1.8,2.1-1.7,2.5c0.1,0.6,1,0.9,1,0.9l0.8,0.3l-0.5,0.6c0,0-0.6,0.6-0.3,1.2
					c0.1,0.2,0.2,0.6,0.3,1c0.2,0.8,0.6,2.4,1.1,2.6c0.1,0,0.3,0,0.5-0.2c2-1.4,5.4-0.5,5.6-0.5l-0.3,1c0,0-3.1-0.8-4.7,0.4
					c-0.6,0.4-1.1,0.4-1.4,0.3c-1-0.4-1.4-2-1.8-3.3c-0.1-0.4-0.2-0.7-0.2-0.9c-0.3-0.7-0.1-1.3,0.1-1.8c-0.4-0.3-1-0.7-1.1-1.4
					c-0.1-0.9,0.9-2.2,1.6-3c-0.6-0.6-1.7-1.7-1.9-3.3c-0.2-1.5,0.6-2.6,1.2-3.2c-0.2-0.2-0.4-0.5-0.5-0.8c-1.2,1.7-1.4,1.6-1.7,1.5
					c-0.2-0.1-0.4-0.2-0.4-0.6c0-1,0.7-7,1.3-9.7c0.2-1-0.3-1.7-0.9-1.9c-0.8-0.3-2-0.2-2.8,1.1c-0.6,0.9-0.6,3.4-0.6,6.1
					c0,1,0,2,0,3.1c0,1.5-0.2,3-0.4,4.4c-0.3,2.3-0.5,4.5-0.2,6.1c0.8,3.3-0.1,4.9-1.1,6.8c-0.2,0.3-0.3,0.6-0.5,0.9
					c-1.2,2.4-12.6,16.1-13.1,16.6l-0.4,0.5L276.6,107L266.3,121.3z"/>
			</g>
			<g>
				<path class="st6" d="M255.8,73.5c0,0,3.6,0.7,9.9,3.9c6.3,3.2,8.7,9.5,11.9,23.1c0.6,2.6,5.4,11.1,5.4,11.1s-4.9,4.3-7.6,9
					c-3.1,5.5-3.6,6.8-3.6,6.8S258.6,116,256,108.3C248.8,87.3,255.8,73.5,255.8,73.5z"/>
				<path class="st2" d="M271.9,128.2l-0.5-0.4c-0.5-0.5-13.3-11.6-15.9-19.3c-7.2-20.9-0.3-35-0.2-35.1l0.2-0.3l0.4,0.1
					c0.2,0,3.8,0.7,10,3.9c6.5,3.3,9,9.9,12.2,23.4c0.6,2.5,5.3,10.9,5.3,10.9l0.2,0.4l-0.3,0.3c0,0-4.9,4.3-7.5,8.9
					c-3,5.4-3.6,6.7-3.6,6.8L271.9,128.2z M256,74.1c-1,2.3-6,15.3,0.4,34c2.3,6.7,12.7,16.3,15.1,18.5c0.4-0.8,1.4-2.6,3.4-6.2
					c2.3-4.1,6.2-7.9,7.4-8.9c-0.9-1.7-4.7-8.5-5.2-10.9c-3.1-13.2-5.5-19.6-11.7-22.7C260.4,75.3,257.1,74.4,256,74.1z"/>
			</g>
			<g>
				<path class="st6" d="M262.2,76.5c-6.4-4.4-7.6-2.7-21.6-3.8s-20.7-1.9-35.2,4c-15,6.1-14.2,32.6-7.7,40.4
					c16.4,19.8,10,12.4,11.5,23.8c0.7,5.6-1.5,8.4,0.6,10.3c3.5,3.1,7.8,4.7,7.8,4.7s44.6-1.7,47.5-3.3c2.1-1.2,4.3-3.6,5.4-4.9
					c1-1.3-0.4-0.8-2.4-9.4c-2-8.7,4.8-25,5.9-29.5c2-7.6-3.2-15.1-5.3-20.4"/>
				<path class="st2" d="M217.6,156.4L217.6,156.4c-0.3-0.1-4.6-1.8-8.1-4.9c-1.4-1.2-1.2-2.8-0.9-4.8c0.2-1.5,0.5-3.4,0.2-5.8
					c-0.4-3.2-0.2-5-0.1-6.2c0.4-3,0.4-3.2-11.3-17.3c-4.3-5.2-5.8-17.1-3.5-26.5c1.3-5.2,4.3-11.9,11.3-14.7
					c14-5.7,20.6-5.2,33.7-4.2l1.7,0.1c4,0.3,7,0.4,9.3,0.4c5.9,0.2,7.8,0.2,12.6,3.4l-0.6,0.8c-4.5-3-6.2-3.1-12-3.3
					c-2.4-0.1-5.3-0.1-9.4-0.5l-1.7-0.1c-12.9-1-19.4-1.5-33.2,4.1c-6.6,2.7-9.5,9.1-10.7,14c-2.5,9.9-0.3,21.3,3.3,25.6
					c11.7,14.2,12,14.5,11.5,18c-0.1,1.2-0.3,2.9,0.1,6c0.3,2.5,0.1,4.5-0.2,6.1c-0.3,2.1-0.4,3.1,0.6,3.9c3.1,2.7,7,4.4,7.6,4.6
					c17.9-0.7,45.1-2.1,47.2-3.3c2-1.1,4.2-3.5,5.2-4.8c0.3-0.4,0.3-0.4-0.1-1.4c-0.5-1.1-1.4-3.2-2.4-7.6c-1.7-7,2.3-18.6,4.6-25.6
					c0.6-1.8,1.1-3.2,1.3-4.1c1.5-5.7-1.3-11.5-3.5-16.2c-0.7-1.4-1.3-2.7-1.8-4l0.9-0.4c0.5,1.2,1.1,2.5,1.7,3.9
					c2.3,4.8,5.1,10.8,3.5,16.8c-0.2,0.9-0.7,2.4-1.3,4.2c-2.3,6.8-6.2,18.3-4.6,25c1,4.4,1.9,6.4,2.4,7.5c0.5,1.1,0.7,1.5,0,2.4
					c-0.9,1.2-3.2,3.7-5.5,5c-2.9,1.7-43.2,3.2-47.7,3.4L217.6,156.4z"/>
			</g>
			<g>
				<path class="st5" d="M283,216.3"/>
			</g>
			<g>
				<path class="st4" d="M251.7,73.9c0,0-0.8,9-3.1,11.2c-2.3,2.2-3.8,8.8-3.8,8.8s-1.9-7.5-9.6-11.7c-9.7-5.3-10.6-5.4-12.1-9.3
					c0,0,4-2.3,5.3-4s0.2-11.1,0.2-11.1h17.8c0,0,0.5,4,1.9,11.7C249.2,74.1,251.7,73.9,251.7,73.9z"/>
				<path class="st2" d="M244.8,95.9l-0.5-1.9c0-0.1-2-7.3-9.4-11.4c-1.1-0.6-2.1-1.1-3-1.6c-6.9-3.7-8-4.3-9.3-7.9l-0.1-0.4
					l0.4-0.2c0,0,3.9-2.2,5.1-3.9c0.8-1.2,0.5-7.2,0.1-10.7l-0.1-0.6h18.8l0.1,0.4c0,0,0.5,4.1,1.9,11.7c0.7,4.1,2.7,4,2.8,4l0.6,0
					l0,0.6c0,0.4-0.9,9.2-3.2,11.5c-2.1,2-3.7,8.5-3.7,8.5L244.8,95.9z M223.8,73.1c1.1,2.9,2.1,3.4,8.7,7c0.9,0.5,1.9,1,3,1.6
					c5.7,3.1,8.3,7.9,9.3,10.4c0.6-2.1,1.9-5.9,3.5-7.5c1.6-1.6,2.6-7.6,2.9-10.4c-0.9-0.2-2.7-1-3.3-4.7
					c-1.1-6.3-1.6-10.1-1.8-11.3h-16.9c0.2,2.2,0.8,9.2-0.4,10.9C227.7,70.7,224.8,72.5,223.8,73.1z"/>
			</g>
			<g>
				<g>
					<path class="st4" d="M224.5,55.7c1.9,4.4,10.1,10.7,14.2,12.5c9.7,4.3,13.1,2,18.6-5.7c3.6-5.1,11-25-2.6-35.9
						c-10.9-8.7-29.1-5.2-32.3,6.3C220,41.7,223.2,52.6,224.5,55.7z"/>
					<path class="st2" d="M246.7,70.8c-2.2,0-4.8-0.7-8.1-2.2c-4.3-1.9-12.5-8.3-14.5-12.7c-1.7-3.9-4.5-14.7-2.1-23.2
						c1.3-4.8,5.3-8.5,11-10.4c7.5-2.4,16.2-0.9,22.1,3.9c14,11.2,6.2,31.8,2.7,36.6C254,68.1,251,70.8,246.7,70.8z M240.3,22.2
						c-2.4,0-4.8,0.4-7,1.1c-5.3,1.7-9.1,5.2-10.3,9.7c-2.5,9,1,20.1,2.1,22.5l0,0c1.8,4.1,9.7,10.4,14,12.2
						c9.2,4.1,12.4,2.3,18-5.5c3.3-4.6,10.9-24.5-2.5-35.3C250.5,23.9,245.4,22.2,240.3,22.2z"/>
				</g>
				<g>
					<path class="st4" d="M248,51.4c0.2,0.8,1.3,2.1,2.2,2.4c1.1,0.4,0.2,1.5-0.1,1.9c-0.5,0.5-2,0.9-2.5,0.4"/>
					<path class="st2" d="M248.2,56.9c-0.5,0-0.8-0.1-1.1-0.4l0.7-0.7c0,0,0.2,0.1,0.5,0.1c0.5,0,1.1-0.3,1.3-0.5
						c0.6-0.7,0.5-1,0.5-1c0,0-0.1-0.1-0.2-0.1c-1-0.4-2.2-1.8-2.5-2.8l1-0.3c0.2,0.6,1.2,1.8,1.9,2.1c0.6,0.2,0.8,0.6,0.8,0.8
						c0.1,0.5-0.1,1.1-0.8,1.9C249.9,56.6,249,56.9,248.2,56.9C248.3,56.9,248.3,56.9,248.2,56.9z"/>
				</g>
				<g>
					<path class="st2" d="M232.8,40c0.4,0,1.5-0.6,4-1.2c2.5-0.6,3.8-0.2,4.3-0.2c0.3,0,0.6-0.1,0.1-0.5c-0.4-0.3-1.8-0.3-3.2-0.2
						c-1.5,0.1-3.4,0.9-4.5,1.4C232.6,39.8,232.4,40,232.8,40z"/>
					<path class="st2" d="M232.8,40.5C232.8,40.5,232.8,40.5,232.8,40.5c-0.5,0-0.6-0.3-0.7-0.4c-0.1-0.5,0.5-0.8,1.1-1.1
						c0.8-0.4,3-1.3,4.7-1.5c0.8-0.1,2.8-0.2,3.5,0.3c0.2,0.1,0.7,0.4,0.5,0.9c0,0.1-0.2,0.5-0.8,0.5c-0.1,0-0.3,0-0.5,0
						c-0.6-0.1-1.8-0.2-3.7,0.2c-1.5,0.3-2.4,0.7-3.1,0.9C233.3,40.4,233,40.5,232.8,40.5z"/>
				</g>
				<g>
					<path class="st2" d="M259.3,39.7c-0.4-0.2-1.1-0.6-3.6-1.3c-1.8-0.5-3.4,0.3-3.6,0.2s-0.1-0.4,1-0.8c0.5-0.2,1.5-0.3,2.6-0.1
						c1.6,0.4,3.1,1.1,3.6,1.6C259.5,39.6,259.5,39.8,259.3,39.7z"/>
					<path class="st2" d="M259.4,40.3c-0.1,0-0.2,0-0.3-0.1c-0.1,0-0.2-0.1-0.4-0.2c-0.4-0.2-1.2-0.6-3.1-1.1
						c-1.1-0.3-2.1,0-2.8,0.1c-0.5,0.1-0.8,0.2-1,0c-0.2-0.2-0.4-0.4-0.3-0.6c0.1-0.4,0.4-0.7,1.4-1c0.6-0.2,1.8-0.4,2.8-0.1
						c1.6,0.4,3.2,1.2,3.8,1.7c0.5,0.4,0.5,0.8,0.3,1C259.8,40.1,259.6,40.3,259.4,40.3z M259.5,39.3l-0.2,0.5L259.5,39.3
						L259.5,39.3L259.5,39.3z"/>
				</g>
				<g>
					<g>
						<path class="st2" d="M236.3,48.2c0.4,1.2,1.8,1.7,2.9,1.3c1.1-0.4,1.7-1.3,1.2-2.7s-1-2-2.9-1.4
							C236.1,45.8,236.1,47.6,236.3,48.2z"/>
						<path class="st2" d="M238.5,50.1c-0.5,0-0.9-0.1-1.4-0.3c-0.6-0.3-1.1-0.8-1.3-1.4l0,0c-0.2-0.5-0.2-1.5,0.2-2.3
							c0.3-0.5,0.7-0.9,1.3-1.1c2.2-0.7,3,0.1,3.6,1.7c0.3,0.8,0.3,1.5,0,2.1c-0.3,0.6-0.8,1-1.5,1.2
							C239.1,50,238.8,50.1,238.5,50.1z M238.7,45.6c-0.3,0-0.6,0.1-1.1,0.2c-0.3,0.1-0.5,0.3-0.7,0.6c-0.3,0.6-0.2,1.3-0.1,1.6l0,0
							c0.2,0.5,0.5,0.7,0.8,0.9c0.5,0.2,1,0.3,1.5,0.1c0.4-0.1,0.7-0.4,0.9-0.7c0.2-0.4,0.2-0.8,0-1.3
							C239.6,46.1,239.3,45.6,238.7,45.6z"/>
					</g>
					<g>
						<path class="st8" d="M239,46.3c-0.1-0.2-0.5-0.2-0.6-0.1c-0.1,0.1-0.3,0.5-0.1,0.7c0.2,0.2,0.3,0.4,0.7,0.3
							S239.2,46.6,239,46.3z"/>
						<path class="st6" d="M238.8,47.8c-0.4,0-0.7-0.4-0.9-0.5c-0.3-0.4-0.1-1,0.1-1.3c0.1-0.2,0.3-0.3,0.6-0.3
							c0.3,0,0.6,0.1,0.8,0.4l0,0c0.2,0.4,0.3,0.8,0.2,1.1c-0.1,0.2-0.2,0.4-0.5,0.5C239,47.7,238.9,47.8,238.8,47.8z"/>
					</g>
				</g>
				<g>
					<g>
						<path class="st2" d="M256.4,46.6c0.3,0.6,0.4,2.6-0.9,2.9c-1,0.2-2.1-0.6-2.4-1.2c-0.3-0.6,0.3-2.7,1.4-2.7
							C255.7,45.6,256.2,46.2,256.4,46.6z"/>
						<path class="st2" d="M255.3,50c-1.1,0-2.1-0.7-2.5-1.5c-0.3-0.6,0-1.8,0.4-2.5c0.4-0.6,0.9-0.9,1.4-0.9c1.4,0,2,0.8,2.3,1.3
							l0,0c0.3,0.6,0.4,1.8,0,2.6c-0.3,0.5-0.7,0.9-1.2,1C255.5,50,255.4,50,255.3,50z M254.6,46.1c-0.3,0-0.5,0.2-0.6,0.4
							c-0.4,0.6-0.4,1.3-0.4,1.5c0.2,0.5,1.1,1,1.8,0.9c0.1,0,0.3-0.1,0.5-0.4c0.3-0.6,0.2-1.4,0-1.7v0
							C255.8,46.5,255.4,46.1,254.6,46.1z"/>
					</g>
					<g>
						<path class="st8" d="M255.6,46.7c-0.1-0.2-0.4-0.2-0.5-0.1c-0.1,0.1-0.3,0.4-0.2,0.6s0.4,0.3,0.7,0.2S255.7,46.9,255.6,46.7z"
							/>
						<path class="st6" d="M255.4,47.9c-0.4,0-0.8-0.2-0.9-0.5c-0.2-0.5,0-1,0.3-1.2c0.1-0.1,0.3-0.2,0.6-0.2c0.3,0,0.5,0.2,0.7,0.4
							l0,0c0.1,0.1,0.4,0.6,0.2,1.1c-0.1,0.2-0.3,0.4-0.5,0.4C255.6,47.9,255.5,47.9,255.4,47.9z"/>
					</g>
				</g>
				<g>
					<g>
						<path class="st7" d="M250.6,59.9c-0.3,0.4-1.2,1.4-1.2,3.7c0,1.3-1.1,2.8-2.4,2.8c-0.9,0-1.9-1.1-2.4-2
							c-1.4-2.2-2.4-4.4-2.4-4.4s3.1-0.3,5-0.3C248.8,59.8,250.6,59.9,250.6,59.9z"/>
						<path class="st2" d="M247,67C247,67,247,67,247,67c-1.3,0-2.5-1.7-2.9-2.2c-1.4-2.2-2.4-4.4-2.4-4.5l-0.3-0.6l0.7-0.1
							c0.1,0,3.2-0.3,5.1-0.3c0,0,0,0,0,0c1.5,0,3.3,0.2,3.4,0.2l0.8,0.1l-0.4,0.7c0,0.1-0.1,0.1-0.1,0.2c-0.3,0.5-0.9,1.3-1,3.3
							C249.8,65.2,248.6,67,247,67z M243,60.5c0.4,0.8,1.1,2.3,2,3.7c0.7,1,1.5,1.8,2,1.8c0,0,0,0,0,0c0.9,0,1.8-1.3,1.9-2.4
							c0-1.6,0.5-2.7,0.8-3.3c-0.7,0-1.7-0.1-2.5-0.1C245.9,60.3,244,60.4,243,60.5z"/>
					</g>
					<g>
						<path class="st6" d="M250.6,59.9c0,0-0.8,1-1,2c0,0-0.6,0.4-2.7,0.4c-2.1,0.1-3.5,0.1-3.5-0.2c-0.3-0.9-1.1-2.1-1.1-2.1
							s3.1-0.3,5-0.3C248.8,59.8,250.6,59.9,250.6,59.9z"/>
						<path class="st2" d="M244.9,62.9c-1.8,0-2-0.2-2.1-0.6c-0.3-0.8-1-1.9-1-1.9l-0.5-0.7l0.9-0.1c0.1,0,3.2-0.3,5.1-0.3
							c0,0,0,0,0,0c1.5,0,3.3,0.2,3.4,0.2l0.9,0.1l-0.6,0.7c0,0-0.8,0.9-0.9,1.7l0,0.2l-0.2,0.1c-0.1,0.1-0.8,0.4-3,0.5
							C246.1,62.9,245.4,62.9,244.9,62.9z M243.7,61.8c0.3,0,1,0.1,3.1,0c1.3-0.1,2-0.2,2.3-0.3c0.1-0.4,0.3-0.8,0.5-1.2
							c-0.7,0-1.6-0.1-2.4-0.1c0,0,0,0,0,0c-1.3,0-3.1,0.1-4.2,0.2C243.3,60.9,243.6,61.4,243.7,61.8z"/>
					</g>
				</g>
			</g>
			<g>
				<path class="st1" d="M251.7,19.2c2.2,2.3,3.9,7.1-3,7.8c-3.3,0.3-9.8-1.4-13.8-1.1c-4.3,0.3-9.1,4.9-9.1,8.2s2.4,6.1,1.7,7.1
					c-0.6,0.9-1.6,6.8-1.6,7.3c0,0.5-4.4-1.8-4.4-1.8s-0.6-3-1.2-7.7c-0.6-4.6,0.1-11.6,3-13.9c5.9-4.7,11-11,16.7-8.2
					C245.7,19.6,249.5,17,251.7,19.2z"/>
			</g>
			<g>
				<path class="st2" d="M217.2,50c-0.2,0-0.4-0.1-0.5-0.3c-0.3-0.9,0-2,0.9-2.8c1-1,2.7-1.7,3.8-1.3c1.1,0.4,2.9,1.9,4,2.9
					c0-1.5,0.3-4.1,1.3-5.9c0.6-1.2,0.2-2.6-0.4-4.2c-0.5-1.5-1.1-3.1-0.8-4.9c0.4-2.2,1.3-3.9,2.8-4.9c1.9-1.3,4.1-1.3,4.9-1.2
					c0.2-0.2,0.4-0.5,0.9-0.9c0.2-0.2,0.5-0.2,0.7,0c0.2,0.2,0.2,0.5,0,0.7c-0.8,0.8-0.9,1.1-0.9,1.1c-0.1,0.2-0.3,0.2-0.5,0.2
					c0,0-2.5-0.4-4.5,1c-1.2,0.9-2,2.3-2.3,4.3c-0.2,1.5,0.3,3,0.8,4.4c0.6,1.8,1.2,3.4,0.3,5c-1.3,2.4-1.2,6.5-1.2,6.5
					c0,0.2-0.1,0.4-0.3,0.5c-0.2,0.1-0.4,0-0.5-0.1c-0.9-0.8-3.4-3.1-4.5-3.4c-0.6-0.2-1.8,0.2-2.7,1.1c-0.4,0.4-0.9,1.1-0.7,1.8
					c0.1,0.3,0,0.5-0.3,0.6C217.3,50,217.3,50,217.2,50z"/>
			</g>
			<g>
				<g>
					<path class="st4" d="M223.6,47.3c-1.8-2.1-6.7-2.3-7,1.3c-0.4,3.6,1.6,6.5,3.9,7.4c3,1.2,4.3-0.7,4.2-2.1"/>
					<path class="st2" d="M222.2,56.9c-0.5,0-1.2-0.1-1.9-0.4c-2.4-1-4.6-4-4.2-7.9c0.1-1.5,1-2.6,2.4-3c1.9-0.6,4.3,0,5.5,1.4
						l-0.8,0.7c-0.9-1.1-2.9-1.6-4.4-1.1c-0.7,0.2-1.6,0.8-1.7,2.1c-0.3,3.4,1.6,6.1,3.6,6.9c1.1,0.5,2.1,0.5,2.8,0
						c0.6-0.4,0.8-1.1,0.7-1.6l1-0.1c0.1,0.9-0.4,1.9-1.1,2.5C223.7,56.6,223.1,56.9,222.2,56.9z"/>
				</g>
				<g>
					<path class="st4" d="M218.3,49.6c0.3-1.3,1.6-1.8,2.8-1.2c1.7,0.8,1.4,4,0,4.2c-1.1,0.2-2.3-0.9-1.2-1.7"/>
					<path class="st2" d="M220.9,53.1c-0.8,0-1.5-0.4-1.8-1.1c-0.2-0.6,0-1.2,0.5-1.6l0.6,0.8c-0.3,0.2-0.2,0.3-0.2,0.4
						c0.1,0.3,0.6,0.5,1,0.4c0.3,0,0.6-0.5,0.7-1c0.1-0.8-0.1-1.9-0.9-2.2c-0.5-0.2-0.9-0.3-1.3-0.1c-0.4,0.2-0.6,0.5-0.8,1l-1-0.3
						c0.2-0.8,0.7-1.4,1.3-1.7c0.7-0.3,1.4-0.3,2.2,0.1c1.2,0.6,1.6,2.1,1.4,3.3c-0.2,1-0.7,1.8-1.5,1.9
						C221.1,53.1,221,53.1,220.9,53.1z"/>
				</g>
				<g>
					<path class="st9" d="M222.6,54c-0.4,0.1-0.5,0.1-0.6,0.5s0.1,0.5,0.3,0.7c0.2,0.1,0.5,0,0.6-0.3C223,54.5,223,53.9,222.6,54z"
						/>
					<path class="st9" d="M222.5,55.6c-0.1,0-0.3,0-0.4-0.1c-0.5-0.2-0.7-0.7-0.6-1.2c0.1-0.6,0.5-0.8,1-0.9l0,0
						c0.3-0.1,0.5,0,0.7,0.2c0.3,0.3,0.3,0.9,0.2,1.2c-0.1,0.3-0.3,0.5-0.5,0.6C222.8,55.6,222.6,55.6,222.5,55.6z M222.5,54.5
						C222.4,54.5,222.4,54.5,222.5,54.5c0,0.1,0,0.1,0,0.1C222.5,54.6,222.5,54.5,222.5,54.5z M222.7,54.4L222.7,54.4L222.7,54.4
						C222.7,54.4,222.7,54.4,222.7,54.4z"/>
				</g>
			</g>
			<g>
				<path class="st1" d="M252.4,23.2c2.4,1.3,3.2,2.9,4.2,5.3c1,2.4,1.5,5.2,1.5,5.2l-4.6,0.9l-1-4.3l-0.4,4.8l-5.4-0.1l-1-4.7
					l-0.5,4.7l-7.3,0v-4.9l-1.8,4.4l-6,0c0,0-0.9-2.4-0.6-5.4c0.2-1.7,2.2-5.4,6.6-7.1"/>
				<path class="st2" d="M252.2,35.6C252.2,35.6,252.2,35.6,252.2,35.6l-5.4-0.1c-0.2,0-0.4-0.2-0.5-0.4l-0.3-1.6l-0.2,1.5
					c0,0.3-0.2,0.4-0.5,0.4l-7.3,0c-0.1,0-0.3-0.1-0.4-0.1s-0.1-0.2-0.1-0.4v-2.3l-0.8,2c-0.1,0.2-0.3,0.3-0.5,0.3c0,0,0,0,0,0l-6,0
					c-0.2,0-0.4-0.1-0.5-0.3c0-0.1-1-2.6-0.6-5.6c0.2-1.9,2.3-5.7,7-7.6c0.3-0.1,0.5,0,0.7,0.3c0.1,0.3,0,0.5-0.3,0.6
					c-4.4,1.8-6.2,5.3-6.3,6.7c-0.3,2.2,0.2,4.1,0.5,4.8l5.3,0l1.7-4.1c0.1-0.2,0.3-0.3,0.6-0.3c0.2,0,0.4,0.3,0.4,0.5v4.4l6.3,0
					l0.5-4.3c0-0.2,0.2-0.4,0.5-0.4c0.2,0,0.5,0.2,0.5,0.4l0.9,4.3l4.6,0.1l0.3-4.3c0-0.2,0.2-0.4,0.5-0.5c0.2,0,0.5,0.1,0.5,0.4
					l0.9,3.8l3.6-0.7c-0.2-0.9-0.6-2.8-1.4-4.6c-1-2.4-1.7-3.9-4-5.1c-0.2-0.1-0.3-0.4-0.2-0.7c0.1-0.2,0.4-0.3,0.7-0.2
					c2.5,1.3,3.3,3,4.4,5.5c1.1,2.5,1.5,5.2,1.6,5.3c0,0.3-0.1,0.5-0.4,0.6l-4.6,0.9c-0.3,0.1-0.5-0.1-0.6-0.4l-0.3-1.1l-0.1,1.6
					C252.7,35.4,252.4,35.6,252.2,35.6z"/>
			</g>
			<g>
				<path class="st1" d="M238.3,21.7c0,0,5-1.6,5.8-0.5c0.8,1.1,0.6-0.2,2.1-0.4s2.6,1.1,2.6,1.1"/>
				<path class="st2" d="M248.7,22.4c-0.1,0-0.3-0.1-0.4-0.2c0,0-1-1.1-2.2-0.9c-0.5,0.1-0.7,0.3-0.9,0.5c-0.2,0.2-0.4,0.4-0.8,0.4
					c-0.4,0-0.6-0.3-0.9-0.6c-0.3-0.4-2.8-0.1-5.2,0.7c-0.3,0.1-0.5-0.1-0.6-0.3c-0.1-0.3,0.1-0.5,0.3-0.6c1.6-0.5,5.4-1.6,6.3-0.3
					c0.1,0.1,0.1,0.1,0.1,0.2c0,0,0,0,0,0c0.3-0.2,0.7-0.6,1.5-0.7c1.7-0.2,3,1.2,3.1,1.2c0.2,0.2,0.2,0.5,0,0.7
					C249,22.4,248.8,22.4,248.7,22.4z"/>
			</g>
			<g>
				<path class="st1" d="M222,44c0.7,3.9-4.8,9.4,0.6,11.6c2.6,1.1,3.1,3.7,1.5,5.5c-1.6,1.8,2.8,3.7,2.8,3.7s-3-1.9-1.1-2.6
					c1.9-0.7,1.3-1.4,0.8-4.3c-0.5-2.9-4.2-5.6-2.8-7.7c0.9-1.2,1.1-2.5,1.1-2.5"/>
				<path class="st2" d="M226.8,65.2c-0.1,0-0.1,0-0.2,0c-0.3-0.1-3.1-1.3-3.4-2.9c-0.1-0.4-0.1-0.9,0.4-1.5
					c0.6-0.7,0.9-1.6,0.7-2.5c-0.2-0.9-0.9-1.7-2-2.2c-3.9-1.6-2.7-4.8-1.7-7.6c0.5-1.5,1.1-3.1,0.9-4.4c0-0.3,0.1-0.5,0.4-0.6
					c0.3,0,0.5,0.1,0.6,0.4c0.3,1.5-0.3,3.3-0.9,4.9c-1.1,3.2-1.7,5.1,1.2,6.3c1.4,0.6,2.3,1.6,2.6,2.9c0.3,1.2-0.1,2.4-0.9,3.4
					c-0.2,0.3-0.2,0.5-0.2,0.6c0.1,0.2,0.2,0.5,0.4,0.7c0,0,0,0,0-0.1c0-0.3,0.2-0.8,1-1c1.2-0.4,1.1-0.6,0.7-2.4
					c-0.1-0.4-0.2-0.9-0.3-1.4c-0.2-1.1-0.9-2.2-1.6-3.3c-1.1-1.6-2.1-3.3-1.1-4.8c0.8-1.1,1.1-2.3,1.1-2.3c0.1-0.3,0.3-0.4,0.6-0.4
					c0.3,0.1,0.4,0.3,0.4,0.6c0,0.1-0.3,1.3-1.2,2.6c-0.6,0.9,0,2,1.1,3.7c0.7,1.1,1.5,2.3,1.7,3.6c0.1,0.5,0.2,1,0.3,1.4
					c0.4,1.7,0.6,2.8-1.4,3.5c-0.2,0.1-0.3,0.2-0.3,0.2c0,0.3,0.8,1.1,1.5,1.5c0.2,0.1,0.3,0.4,0.2,0.7
					C227.2,65.1,227,65.2,226.8,65.2z"/>
			</g>
			<g>
				<g>
					<path class="st1" d="M268.6,150.8c0,0-0.2,4.6,0,6.5c0.2,1.9,0.9,5.6,0.9,5.6s-13.3,5.6-24.5,5.3c-11.2-0.3-18.3-0.9-20.2,0
						c-1.8,0.9-14.1-1.4-14.1-1.4s0.6-2.5,1.3-7.8c0.3-2.3,0-5.9,0-5.9s26.8-1.6,31.2-1.3c4.4,0.3,15.3-2.6,18.7-2
						C265.2,150.4,268.6,150.8,268.6,150.8z"/>
					<path class="st2" d="M223.1,168.9c-3.8,0-11.5-1.4-12.6-1.6l-0.5-0.1l0.1-0.5c0,0,0.6-2.6,1.3-7.7c0.3-2.2,0-5.7,0-5.8l0-0.5
						l0.5,0c1.1-0.1,26.9-1.6,31.3-1.3c2.1,0.2,5.8-0.5,9.4-1.1c3.9-0.6,7.5-1.3,9.3-1c3.3,0.6,6.8,1,6.8,1l0.5,0.1l0,0.5
						c0,0-0.2,4.6,0,6.4c0.2,1.8,0.8,5.5,0.8,5.6l0.1,0.4l-0.4,0.2c-0.1,0.1-13.5,5.7-24.7,5.3c-2.4-0.1-4.6-0.2-6.6-0.2
						c-7-0.3-12-0.4-13.4,0.2C224.6,168.8,223.9,168.9,223.1,168.9z M211.2,166.4c4.7,0.8,12.1,1.9,13.3,1.3
						c1.6-0.7,6.2-0.6,13.8-0.3c2,0.1,4.2,0.2,6.6,0.2c10,0.3,21.7-4.2,23.9-5.1c-0.2-1-0.6-3.7-0.8-5.3c-0.1-1.6-0.1-4.9,0-6.1
						c-1-0.1-3.7-0.5-6.4-1c-1.6-0.3-5.4,0.4-9,1c-3.7,0.6-7.4,1.2-9.7,1.1c-4-0.3-26.9,1.1-30.6,1.3c0.1,1.1,0.2,3.7,0,5.5
						C211.9,163.1,211.4,165.5,211.2,166.4z"/>
				</g>
				<g>
					<path class="st1" d="M268.6,160.7l11.2,32.2c0,0-10.9,19.7-34.6,37.2c-24,17.8-52,19.5-52,19.5s0.5-33.7,2.3-42.8
						c1.5-7.5,2.6-15.5,6-25.5c3.1-9.1,9.9-18.6,9.9-18.6s30.2-1.4,36.6-2.1C254.4,160,268.6,160.7,268.6,160.7z"/>
					<path class="st2" d="M192.8,250.1l0-0.5c0-1.4,0.5-33.8,2.3-42.9c0.3-1.4,0.5-2.8,0.8-4.2c1.2-6.5,2.4-13.1,5.2-21.3
						c3.1-9.1,9.9-18.6,9.9-18.7l0.1-0.2l0.2,0c0.3,0,30.3-1.4,36.6-2.1c6.3-0.6,20.6,0,20.7,0l0.3,0l11.3,32.8l-0.1,0.2
						c-0.1,0.2-11.2,20-34.7,37.4c-23.8,17.6-51.9,19.6-52.2,19.6L192.8,250.1z M211.6,163.2c-1,1.4-6.9,10-9.7,18.2
						c-2.7,8.1-4,14.8-5.1,21.2c-0.3,1.4-0.5,2.8-0.8,4.2c-1.6,8.3-2.2,37.8-2.3,42.2c4-0.4,29.4-3.2,51.2-19.3
						c22.1-16.3,33.1-34.8,34.3-36.8l-11-31.7c-2.2-0.1-14.5-0.6-20.2,0C242,161.8,214.5,163.1,211.6,163.2z"/>
				</g>
				<g>
					<path class="st1" d="M253.2,157.9c0,0-0.2,4.9-1.6,7.2c-1.4,2.3-3.1,7.1-3.1,7.1"/>
					<path class="st2" d="M248.9,172.3L248,172c0.1-0.2,1.7-4.8,3.2-7.2c1.3-2.2,1.5-6.9,1.5-7l1,0c0,0.2-0.2,5-1.7,7.4
						C250.6,167.6,249,172.3,248.9,172.3z"/>
				</g>
				<g>
					<path class="st1" d="M215.2,160.8c0,0-1.2,4.1-2.5,7.8c-1.3,3.7,0.1,9.5,1.3,10.6"/>
					<path class="st2" d="M213.6,179.5c-1.3-1.2-2.8-7.2-1.4-11.1c1.3-3.7,2.5-7.8,2.5-7.8l1,0.3c0,0-1.2,4.1-2.5,7.9
						c-1.3,3.6,0.1,9.1,1.1,10L213.6,179.5z"/>
				</g>
				<g>
					<path class="st1" d="M263.2,154.8c0,0,4,11.9,6.3,16c2.2,4.1,3.6,6.1,3.6,6.1"/>
					<path class="st2" d="M272.6,177.2c0,0-1.4-2.1-3.6-6.2c-2.2-4.1-6.1-15.6-6.3-16.1l0.9-0.3c0,0.1,4.1,11.9,6.2,15.9
						c2.2,4,3.5,6.1,3.6,6.1L272.6,177.2z"/>
				</g>
			</g>
			<g>
				<path class="st1" d="M229.1,78l-3.2,3.8c0,0,1.4-2.6-1.6-5.2c-3-2.6-1.2-4.8-1.2-4.8l4-2l6.3,11.1L229.1,78z"/>
				<path class="st2" d="M226,82.3c-0.1,0-0.2,0-0.3-0.1c-0.2-0.1-0.3-0.4-0.2-0.6c0-0.1,1.1-2.3-1.5-4.6c-3.3-2.8-1.3-5.5-1.3-5.5
					c0-0.1,0.1-0.1,0.2-0.1l4-2c0.2-0.1,0.5,0,0.7,0.2l6.3,11.1c0.1,0.2,0.1,0.5-0.1,0.6s-0.4,0.2-0.6,0.1l-3.9-2.6l-2.9,3.4
					C226.3,82.3,226.1,82.3,226,82.3z M223.5,72.2c-0.2,0.4-1.1,2.1,1.2,4.1c1.6,1.3,2,2.7,2.1,3.8l2-2.4c0.2-0.2,0.4-0.2,0.7-0.1
					l2.5,1.7l-5-8.8L223.5,72.2z"/>
			</g>
			<g>
				<path class="st1" d="M252.5,73.2c1.2,0.9,3.8,6.2,3.8,6.2l-3.6-0.3l-2.1,2.2l-2.8,5.4c0,0,3.1-5.9,2.8-8.7
					c-0.3-2.8-0.8-5.9-0.8-5.9S251.4,72.4,252.5,73.2z"/>
				<path class="st2" d="M247.8,87.3c-0.1,0-0.2,0-0.2-0.1c-0.2-0.1-0.3-0.4-0.2-0.7l0-0.1c0.4-0.7,3-5.9,2.7-8.3
					c-0.3-2.7-0.8-5.9-0.8-5.9c0-0.2,0-0.3,0.1-0.4c0.1-0.1,0.3-0.2,0.4-0.1c0.1,0,1.7,0.2,2.9,1.2l0,0c1.2,0.9,3.7,5.9,4,6.4
					c0.1,0.2,0.1,0.4,0,0.5c-0.1,0.1-0.3,0.2-0.5,0.2l-3.4-0.3l-1.9,2l-2.7,5.2c0,0.1-0.1,0.2-0.1,0.2
					C248.1,87.2,247.9,87.3,247.8,87.3z M250.4,72.8c0.2,1.1,0.5,3.3,0.7,5.2c0.1,0.7,0,1.4-0.2,2.3l1.5-1.6
					c0.1-0.1,0.3-0.2,0.4-0.1l2.7,0.3c-1-2-2.6-4.8-3.3-5.3C251.6,73.2,250.9,72.9,250.4,72.8z"/>
			</g>
			<g>
				<g>
					<circle cx="244.1" cy="97.5" r="1.2"/>
				</g>
				<g>
					<circle cx="244.1" cy="108.2" r="1.2"/>
				</g>
				<g>
					<circle cx="244.1" cy="118.2" r="1.2"/>
				</g>
				<g>
					<circle cx="244.1" cy="126.5" r="1.2"/>
				</g>
				<g>
					<circle cx="244.1" cy="137.1" r="1.2"/>
				</g>
				<g>
					<circle cx="244.1" cy="147.1" r="1.2"/>
				</g>
			</g>
			<g>
				<g>
					<g>
						<g>
							<g>
								<polygon class="st3" points="238.5,99.2 269.1,95.9 269.1,135.3 239.1,139.4 								"/>
								<path class="st2" d="M238.6,139.9L238,98.7l31.6-3.4v40.4L238.6,139.9z M239,99.6l0.6,39.2l29-4V96.5L239,99.6z"/>
							</g>
						</g>
						<g>
							<g>
								<circle class="st2" cx="256.4" cy="111.4" r="1.3"/>
							</g>
							<g>
								<circle class="st2" cx="251.6" cy="110.2" r="1.3"/>
							</g>
							<g>
								<circle class="st2" cx="253.5" cy="109.9" r="1.3"/>
							</g>
							<g>
								<circle class="st2" cx="253" cy="111.2" r="1.3"/>
							</g>
							<g>
								<circle class="st2" cx="254.8" cy="110.5" r="1.3"/>
							</g>
							<g>
								<circle class="st2" cx="257.3" cy="110.2" r="1.3"/>
							</g>
							<g>
								<circle class="st2" cx="254.4" cy="111.8" r="1.3"/>
							</g>
							<g>
								<circle class="st2" cx="255.5" cy="112.7" r="1.3"/>
							</g>
							<g>
								<circle class="st2" cx="252.5" cy="115.3" r="1.3"/>
							</g>
							<g>
								<circle class="st2" cx="252.7" cy="113.1" r="1.3"/>
							</g>
							<g>
								<circle class="st2" cx="254.6" cy="114" r="1.3"/>
							</g>
							<g>
								<path class="st2" d="M254.7,109.8c0,0,0.9-1.1,1-1.7c0.1-0.5-0.2-1.6-0.2-1.6h-1.1c0,0,0.9,0.5,0.7,1.3
									S254.7,109.8,254.7,109.8z"/>
							</g>
						</g>
						<g>
							<circle class="st0" cx="242.5" cy="103" r="1.5"/>
							<path class="st2" d="M242.5,105c-1.1,0-2-0.9-2-2s0.9-2,2-2s2,0.9,2,2S243.7,105,242.5,105z M242.5,102c-0.6,0-1,0.5-1,1
								s0.5,1,1,1s1-0.5,1-1S243.1,102,242.5,102z"/>
						</g>
					</g>
					<g>
						<path class="st4" d="M207.9,114.4c0,0-1.7,5.3-1.7,13.9c0,3,0.1,4.4,0.1,4.4c5.9-2.2,24.6-8.5,27.3-11.9
							c2.2-2.5,5.5-6.4,6.6-6.8c1.6-0.6,11-0.6,11.7,2.6c0.7,3.2-0.1,3.1-0.1,3.1s3.2,0.7,2.7,1.8c-0.6,1.1-2.3,2.4-2.3,2.4
							s4.1,1.6,3.4,2.1s-0.9,3.2-2.3,3.4c-1.4,0.2-7.7,4.3-11.1,4.4c-5.4,0.1-6.1-0.3-6.4-0.2c-6.2,3.2-39.3,15-41.3,12.9
							s-2.2-32.1-2.2-32.1H207.9z"/>
						<path class="st2" d="M195.4,147.2c-0.7,0-1.2-0.1-1.4-0.3c-2.1-2.2-2.3-27.4-2.3-32.5l0-0.5h16.9l-0.2,0.7
							c0,0.1-1.7,5.3-1.7,13.7c0,1.8,0.1,3,0.1,3.7c0.6-0.2,1.3-0.5,2.1-0.7c7.2-2.6,22.1-7.9,24.3-10.8c5.5-6.4,6.5-6.8,6.8-6.9
							c1.4-0.5,7.7-0.6,10.6,1c1,0.5,1.5,1.2,1.7,2c0.4,1.6,0.4,2.4,0.2,2.9c0.8,0.3,2,0.7,2.3,1.4c0.1,0.3,0.1,0.6,0,0.9
							c-0.4,0.7-1.2,1.5-1.8,2c2.9,1.2,3,1.8,3,2c0,0.3-0.1,0.5-0.3,0.6c-0.2,0.1-0.4,0.7-0.5,1.1c-0.4,1-0.9,2.3-2,2.5
							c-0.4,0.1-1.6,0.7-2.8,1.3c-2.6,1.3-6,3.1-8.4,3.1c-3.5,0.1-5.1-0.1-5.8-0.2c-0.2,0-0.4,0-0.4,0
							C231.3,136.5,202.5,147.2,195.4,147.2z M192.7,114.9c0.1,11.5,0.7,29.8,2.1,31.3c1.9,1.5,33.2-9.1,40.7-13
							c0.2-0.1,0.5-0.1,0.9-0.1c0.7,0.1,2.2,0.2,5.7,0.2c2.1,0,5.5-1.8,8-3c1.6-0.8,2.6-1.3,3.1-1.4c0.6-0.1,0.9-1,1.2-1.8
							c0.2-0.5,0.4-1,0.6-1.3c-0.5-0.4-1.9-1-3.1-1.5l-0.8-0.3l0.7-0.5c0.4-0.3,1.7-1.4,2.1-2.2c0-0.3-1.1-0.8-2.3-1.1l0.2-1
							c-0.2,0-0.3,0.1-0.3,0.1c0,0,0.3-0.4-0.2-2.6c-0.1-0.5-0.5-0.9-1.2-1.3c-2.7-1.5-8.7-1.4-9.8-0.9c-0.3,0.1-1.5,0.9-6.4,6.6
							c-2.4,3.1-17,8.3-24.8,11.1c-1.1,0.4-2,0.7-2.7,1l-0.6,0.2l-0.1-0.6c0-0.1-0.1-1.5-0.1-4.4c0-7,1.1-11.7,1.5-13.4H192.7z"/>
					</g>
				</g>
				<g>
					<path class="st6" d="M207,100.4c0,0,2.4,18.3,1.7,21.3s-19.4,2.5-19.4,2.5c1.5-22.4,0.7-28.6,2.7-33.4
						c3.5-8.4,3.1-11.6,17.6-16c3.1-0.9,5.2,1.6,5.2,1.6"/>
					<path class="st2" d="M193.4,124.7c-1.7,0-3.2,0-4.2-0.1l-0.5,0l0-0.5c0.6-8.4,0.8-14.6,1-19.2c0.3-7.8,0.4-11.3,1.7-14.4
						c0.4-0.9,0.7-1.8,1-2.5c2.6-6.7,3.8-9.7,16.9-13.7c3.4-1,5.7,1.6,5.8,1.8l-0.8,0.6c-0.1-0.1-2-2.3-4.7-1.4
						c-12.6,3.8-13.7,6.6-16.2,13.1c-0.3,0.8-0.6,1.6-1,2.6c-1.2,2.9-1.3,6.4-1.6,14c-0.2,4.4-0.4,10.5-1,18.7
						c8.7,0.2,18.1-0.5,18.4-2.1c0.5-2.3-0.9-14.8-1.8-21.1l1-0.1c0.1,0.7,2.4,18.4,1.7,21.5C208.7,124.3,199.5,124.7,193.4,124.7z"
						/>
				</g>
			</g>
			<g>
				<g>
					<g>
						<path class="st0" d="M227.7,97.2V93c0-0.7-0.6-1.3-1.3-1.3c-0.3,0-0.5,0.1-0.8,0.2c-0.2-0.5-0.7-0.9-1.3-0.9
							c-0.6,0-1.1,0.4-1.3,0.9c-0.2-0.1-0.5-0.2-0.8-0.2c-0.7,0-1.3,0.6-1.3,1.3v0.9c-0.2-0.1-0.4-0.2-0.7-0.2
							c-0.7,0-1.3,0.6-1.3,1.3v3.2v0.9v4.6c0,0.8,0,1.1,0.2,1.3c0.2,0.1,0.4,0.1,0.8,0.1h3.7h0h3.4c0.7,0,1.4-0.6,1.4-1.4v-2v-3.4
							C228.4,97.9,228.1,97.5,227.7,97.2z"/>
					</g>
					<g>
						<g id="Grupo_620_3_" transform="translate(4276 -95)">
							<g id="Rectngulo_140_3_" transform="translate(-4273 96)">
								<g>
									<g>
										<path class="st2" d="M220.3,96.9c-0.2,0-0.3-0.1-0.3-0.3V92c0-0.4-0.3-0.7-0.7-0.7c-0.4,0-0.7,0.3-0.7,0.7v4.5
											c0,0.2-0.1,0.3-0.3,0.3c-0.2,0-0.3-0.1-0.3-0.3V92c0-0.7,0.6-1.3,1.3-1.3c0.7,0,1.3,0.6,1.3,1.3v4.5
											C220.7,96.7,220.5,96.9,220.3,96.9z"/>
										<path class="st2" d="M220.3,97c-0.2,0-0.4-0.2-0.4-0.4V92c0-0.3-0.3-0.6-0.6-0.6s-0.6,0.3-0.6,0.6v4.5
											c0,0.2-0.2,0.4-0.4,0.4s-0.4-0.2-0.4-0.4V92c0-0.8,0.7-1.4,1.4-1.4c0.8,0,1.4,0.7,1.4,1.4v4.5c0,0.1,0,0.2-0.1,0.3
											C220.6,96.9,220.4,97,220.3,97z M219.3,91.2c0.4,0,0.8,0.4,0.8,0.8v4.5c0,0.1,0.1,0.2,0.2,0.2c0.1,0,0.1,0,0.2-0.1
											c0,0,0.1-0.1,0-0.1V92c0-0.7-0.6-1.2-1.2-1.2c-0.7,0-1.2,0.6-1.2,1.2v4.5c0,0.1,0.1,0.2,0.2,0.2s0.2-0.1,0.2-0.2V92
											C218.5,91.6,218.9,91.2,219.3,91.2z"/>
									</g>
								</g>
							</g>
							<g id="Rectngulo_143_3_" transform="translate(-4276 99)">
								<g>
									<g>
										<path class="st2" d="M219.3,95.4c-0.2,0-0.3-0.1-0.3-0.3V91c0-0.7,0.6-1.3,1.3-1.3c0.7,0,1.3,0.6,1.3,1.3v2
											c0,0.2-0.1,0.3-0.3,0.3c-0.2,0-0.3-0.1-0.3-0.3v-2c0-0.4-0.3-0.7-0.7-0.7c-0.4,0-0.7,0.3-0.7,0.7v4.1
											C219.6,95.3,219.4,95.4,219.3,95.4z"/>
										<path class="st2" d="M219.3,95.5c-0.2,0-0.4-0.2-0.4-0.4V91c0-0.8,0.7-1.4,1.4-1.4c0.8,0,1.4,0.7,1.4,1.4v2
											c0,0.2-0.2,0.4-0.4,0.4s-0.4-0.2-0.4-0.4v-2c0-0.3-0.3-0.6-0.6-0.6s-0.6,0.3-0.6,0.6v4.1
											C219.7,95.3,219.5,95.5,219.3,95.5z M220.3,89.8c-0.7,0-1.2,0.6-1.2,1.2v4.1c0,0.1,0.1,0.2,0.2,0.2c0.1,0,0.2-0.1,0.2-0.2
											V91c0-0.4,0.4-0.8,0.8-0.8s0.8,0.4,0.8,0.8v2c0,0.1,0.1,0.2,0.2,0.2s0.2-0.1,0.2-0.2v-2C221.5,90.3,220.9,89.8,220.3,89.8
											z"/>
									</g>
								</g>
							</g>
							<g id="Rectngulo_141_3_" transform="translate(-4270 95)">
								<g>
									<g>
										<path class="st2" d="M219.4,97.9c-0.2,0-0.3-0.1-0.3-0.3v-5.3c0-0.4-0.3-0.7-0.7-0.7c-0.4,0-0.7,0.3-0.7,0.7v5.1
											c0,0.2-0.1,0.3-0.3,0.3s-0.4-0.1-0.4-0.3v-5.1c0-0.7,0.6-1.3,1.3-1.3c0.7,0,1.3,0.6,1.3,1.3v5.3
											C219.7,97.8,219.5,97.9,219.4,97.9z"/>
										<path class="st2" d="M219.4,98c-0.2,0-0.4-0.2-0.4-0.4v-5.3c0-0.3-0.3-0.6-0.6-0.6s-0.6,0.3-0.6,0.6v5.1
											c0,0.2-0.2,0.4-0.4,0.4c-0.2,0-0.5-0.2-0.5-0.4v-5.1c0-0.8,0.7-1.4,1.4-1.4c0.8,0,1.4,0.7,1.4,1.4v5.3
											c0,0.1,0,0.2-0.1,0.3C219.6,98,219.5,98,219.4,98z M218.3,91.5c0.4,0,0.8,0.4,0.8,0.8v5.3c0,0.1,0.1,0.2,0.2,0.2
											c0.1,0,0.1,0,0.2-0.1c0,0,0.1-0.1,0-0.2v-5.3c0-0.7-0.6-1.2-1.2-1.2c-0.7,0-1.2,0.6-1.2,1.2v5.1c0,0.1,0.1,0.2,0.3,0.2
											c0.1,0,0.2-0.1,0.2-0.2v-5.1C217.6,91.9,217.9,91.5,218.3,91.5z"/>
									</g>
								</g>
							</g>
							<g id="Rectngulo_142_3_" transform="translate(-4267 96)">
								<g>
									<g>
										<path class="st2" d="M216.4,96.9c-0.2,0-0.3-0.1-0.3-0.3V92c0-0.7,0.6-1.3,1.3-1.3c0.7,0,1.3,0.6,1.3,1.3v4.3
											c0,0.2-0.1,0.3-0.3,0.3c-0.2,0-0.3-0.1-0.3-0.3V92c0-0.4-0.3-0.7-0.7-0.7c-0.4,0-0.7,0.3-0.7,0.7v4.5
											C216.7,96.7,216.5,96.9,216.4,96.9z"/>
										<path class="st2" d="M216.4,97c-0.2,0-0.4-0.2-0.4-0.4V92c0-0.8,0.7-1.4,1.4-1.4c0.8,0,1.4,0.7,1.4,1.4v4.3
											c0,0.2-0.2,0.4-0.4,0.4s-0.4-0.2-0.4-0.4V92c0-0.3-0.3-0.6-0.6-0.6c-0.3,0-0.6,0.3-0.6,0.6v4.5
											C216.8,96.8,216.6,97,216.4,97z M217.4,90.7c-0.7,0-1.2,0.6-1.2,1.2v4.5c0,0.1,0.1,0.2,0.2,0.2s0.2-0.1,0.2-0.2V92
											c0-0.4,0.4-0.8,0.8-0.8s0.8,0.4,0.8,0.8v4.3c0,0.1,0.1,0.2,0.2,0.2c0.1,0,0.2-0.1,0.2-0.2V92
											C218.6,91.3,218,90.7,217.4,90.7z"/>
									</g>
								</g>
							</g>
							<g id="Unin_4_3_" transform="translate(-4271 104)">
								<g>
									<path class="st2" d="M222.1,95.5c0.4,0,0.7-0.3,0.7-0.7v-2v-3.4c0-0.4-0.3-0.7-0.7-0.7c-0.4,0-0.7,0.3-0.7,0.7v2.9v0.6
										l-0.6,0.1c-0.4,0-0.8,0.1-1.1,0.1c-0.9,0.3-1.2,1.1-1.2,1.2c-0.1,0.5,0,1,0.1,1.2c0.1,0.1,0.1,0.1,0.1,0.1L222.1,95.5
										 M222.1,96.2h-3.4c-0.7,0-1.2-1-0.9-2.1c0,0,0.3-1.4,1.7-1.7c0.3-0.1,0.7-0.1,1.2-0.2v-2.8c0-0.7,0.6-1.4,1.4-1.4
										c0.7,0,1.4,0.6,1.4,1.4v3.4v2C223.4,95.6,222.8,96.2,222.1,96.2z"/>
									<path class="st2" d="M222.1,96.3h-3.4c-0.3,0-0.5-0.1-0.7-0.4c-0.3-0.4-0.4-1.1-0.3-1.9c0-0.1,0.4-1.4,1.8-1.8l0.2,0
										c0.3-0.1,0.6-0.1,1-0.2v-2.7c0-0.8,0.7-1.5,1.5-1.5s1.5,0.7,1.5,1.5v5.4C223.5,95.6,222.9,96.3,222.1,96.3z M222.1,88.1
										c-0.7,0-1.3,0.6-1.3,1.3v2.9l-0.1,0c-0.4,0.1-0.8,0.1-1.1,0.2l-0.2,0c-1.3,0.3-1.6,1.6-1.6,1.6c-0.2,0.6-0.1,1.3,0.2,1.7
										c0.2,0.2,0.3,0.3,0.6,0.3h3.4c0.7,0,1.2-0.6,1.3-1.3v-5.4C223.3,88.7,222.7,88.1,222.1,88.1z M218.7,95.6
										c-0.1,0-0.1,0-0.2-0.1c-0.1-0.1-0.4-0.6-0.2-1.2c0-0.2,0.4-1,1.3-1.3c0.3-0.1,0.7-0.1,1.1-0.1l0.5-0.1v-3.4
										c0-0.5,0.3-0.8,0.8-0.8s0.8,0.3,0.8,0.8v5.4c0,0.5-0.3,0.8-0.8,0.8L218.7,95.6z M222.1,88.8c-0.4,0-0.6,0.2-0.6,0.6V93
										l-0.7,0.1c-0.4,0-0.8,0.1-1.1,0.1c-0.8,0.3-1.1,1-1.1,1.1l0,0c-0.1,0.5,0,0.9,0.1,1.1c0,0,0,0,0,0c0,0,0,0,0,0l3.3,0
										c0.4,0,0.6-0.2,0.6-0.6v-5.4C222.6,89,222.4,88.8,222.1,88.8z"/>
								</g>
							</g>
						</g>
						<g>
							<g>
								<path class="st2" d="M224,105.2h-4.1c-0.3,0-0.6,0-0.8-0.1c-0.2-0.2-0.2-0.5-0.2-1.3v-5.5h0.7v5.5c0,0.4,0,0.7,0,0.8
									c0.1,0,0.2,0,0.3,0h4.1V105.2z"/>
								<path class="st2" d="M224.1,105.3h-4.2c-0.3,0-0.6,0-0.8-0.2c-0.3-0.2-0.3-0.5-0.3-1.4v-5.6h0.9v5.6c0,0.3,0,0.5,0,0.7h4.4
									V105.3z M219,98.3v5.4c0,0.9,0,1.1,0.2,1.2c0.2,0.1,0.4,0.1,0.7,0.1h4v-0.5h-4.4l0-0.1c0-0.1,0-0.4,0-0.8v-5.4H219z"/>
							</g>
						</g>
					</g>
				</g>
				<g>
					<g>
						<circle class="st6" cx="217.8" cy="99.7" r="2.6"/>
						<path class="st2" d="M217.8,102.6c-1.6,0-3-1.3-3-3s1.3-3,3-3s3,1.3,3,3S219.4,102.6,217.8,102.6z M217.8,97.5
							c-1.2,0-2.2,1-2.2,2.2s1,2.2,2.2,2.2s2.2-1,2.2-2.2S219,97.5,217.8,97.5z"/>
					</g>
					<g>
						<polygon class="st1" points="217.1,98 217.1,101.3 218.8,99.7 						"/>
						<path class="st1" d="M217.1,101.6C217.1,101.6,217,101.6,217.1,101.6c-0.2-0.1-0.3-0.1-0.3-0.3V98c0-0.1,0.1-0.2,0.2-0.2
							s0.2,0,0.3,0.1l1.7,1.7c0,0,0.1,0.1,0.1,0.2s0,0.1-0.1,0.2l-1.7,1.6C217.2,101.6,217.2,101.6,217.1,101.6z M217.4,98.6v2.1
							l1-1L217.4,98.6z"/>
					</g>
				</g>
			</g>
		</g>
	</g>
</g>
</svg>
