<svg xmlns="http://www.w3.org/2000/svg" width="145" height="105" viewBox="0 0 145 105">
  <g id="Grupo_930" data-name="Grupo 930" transform="translate(-216 -2225)">
    <g id="Grupo_900" data-name="Grupo 900" transform="translate(149 58)">
      <g id="Rect치ngulo_195" data-name="Rect치ngulo 195" transform="translate(67 2167)" fill="#fd7e7e" stroke="#333" stroke-width="1">
        <rect width="145" height="65" stroke="none"/>
        <rect x="0.5" y="0.5" width="144" height="64" fill="none"/>
      </g>
      <g id="Trazado_215" data-name="Trazado 215" transform="translate(67 2230)" fill="#95a6fa">
        <path d="M 72.5 41.5 L 0.5 41.5 L 0.5 0.5 L 72.5 0.5 L 72.5 41.5 Z" stroke="none"/>
        <path d="M 1 1 L 1 41 L 72 41 L 72 1 L 1 1 M 0 0 L 73 0 L 73 42 L 0 42 L 0 0 Z" stroke="none" fill="#333"/>
      </g>
      <g id="Trazado_216" data-name="Trazado 216" transform="translate(139 2230)" fill="#ffd072">
        <path d="M 72.5 41.5 L 0.5 41.5 L 0.5 0.5 L 72.5 0.5 L 72.5 41.5 Z" stroke="none"/>
        <path d="M 1 1 L 1 41 L 72 41 L 72 1 L 1 1 M 0 0 L 73 0 L 73 42 L 0 42 L 0 0 Z" stroke="none" fill="#333"/>
      </g>
    </g>
    <g id="Grupo_924" data-name="Grupo 924" transform="translate(9.576 -69.075)">
      <path id="Trazado_198" data-name="Trazado 198" d="M1025.257,5802.2H1011v24h23.334v-13.4" transform="translate(6128.624 1354.075) rotate(90)" fill="none" stroke="#5909ac" stroke-linecap="round" stroke-width="2"/>
      <path id="Trazado_212" data-name="Trazado 212" d="M0,14.106V0" transform="translate(320.56 2383.472) rotate(135)" fill="none" stroke="#5909ac" stroke-linecap="round" stroke-width="2"/>
      <g id="Elipse_43" data-name="Elipse 43" transform="translate(321.603 2380.286) rotate(30)" fill="none" stroke="#5909ac" stroke-width="2">
        <ellipse cx="4.5" cy="4" rx="4.5" ry="4" stroke="none"/>
        <ellipse cx="4.5" cy="4" rx="3.5" ry="3" fill="none"/>
      </g>
    </g>
    <g id="Grupo_925" data-name="Grupo 925" transform="translate(-82 -60.075)">
      <g id="Grupo_921" data-name="Grupo 921" transform="translate(320.424 2356.075)">
        <path id="Trazado_198-2" data-name="Trazado 198" d="M15.8,0H0V28.91H24.158V10.361" transform="translate(28.91) rotate(90)" fill="none" stroke="#5909ac" stroke-linecap="round" stroke-width="2"/>
      </g>
      <g id="Rect치ngulo_200" data-name="Rect치ngulo 200" transform="translate(326 2361)" fill="none" stroke="#5909ac" stroke-width="2">
        <rect width="18" height="14" stroke="none"/>
        <rect x="1" y="1" width="16" height="12" fill="none"/>
      </g>
    </g>
    <g id="Grupo_926" data-name="Grupo 926" transform="translate(-127 -112.075)">
      <g id="Elipse_45" data-name="Elipse 45" transform="translate(421 2361.5) rotate(90)" fill="none" stroke="#5909ac" stroke-width="2">
        <ellipse cx="6" cy="5.5" rx="6" ry="5.5" stroke="none"/>
        <ellipse cx="6" cy="5.5" rx="5" ry="4.5" fill="none"/>
      </g>
      <path id="Trazado_213" data-name="Trazado 213" d="M1025.125,5802.2H1011v21.212h21.6l.3-17.763" transform="translate(6227.912 1347.075) rotate(90)" fill="none" stroke="#5909ac" stroke-linecap="round" stroke-width="2"/>
      <path id="Trazado_214" data-name="Trazado 214" d="M-4322.187,5690s.936-3.375,6.712-3.375,6.413,3.125,6.7,3.9a7.922,7.922,0,0,1,.35,1.9" transform="translate(4730.688 -3313)" fill="none" stroke="#5909ac" stroke-linecap="round" stroke-width="2"/>
    </g>
  </g>
</svg>
