<?xml version="1.0" encoding="utf-8"?>
<!-- Generator: Adobe Illustrator 24.2.1, SVG Export Plug-In . SVG Version: 6.00 Build 0)  -->
<svg version="1.1" id="Capa_1" xmlns="http://www.w3.org/2000/svg" xmlns:xlink="http://www.w3.org/1999/xlink" x="0px" y="0px"
	 viewBox="0 0 259.4 240.9" style="enable-background:new 0 0 259.4 240.9;" xml:space="preserve">
<style type="text/css">
	.st0{fill:#89D5E0;}
	.st1{fill:#333333;}
	.st2{fill:none;stroke:#333333;stroke-miterlimit:10;}
	.st3{fill:#333333;stroke:#8B57CE;stroke-miterlimit:10;}
	.st4{fill:#333333;stroke:#333333;stroke-width:0.2;}
	.st5{fill:#FFFFFF;stroke:#333333;stroke-width:2;stroke-linecap:round;stroke-linejoin:round;}
	.st6{fill:#8B57CE;stroke:#8B57CE;stroke-width:0.5;stroke-linecap:round;stroke-linejoin:round;}
	.st7{opacity:0.3;fill:#FFFFFF;}
	.st8{fill:#8B57CE;}
	.st9{fill:#FFFFFF;}
	.st10{fill:#1D1D1B;}
	.st11{fill:#EDEDED;}
	.st12{fill:#C6C6C6;}
</style>
<g>
	<g>
		<circle class="st0" cx="153.7" cy="134.2" r="104.5"/>
	</g>
	<g>
		<g>
			<path class="st1" d="M44.2,187c0,1.7,1.3,3,3,3h169.7c1.7,0,3-1.3,3-3V86c0-1.7-1.3-3-3-3H47.2c-1.7,0-3,1.3-3,3V187z"/>
			<path class="st2" d="M44.2,187c0,1.7,1.3,3,3,3h169.7c1.7,0,3-1.3,3-3V86c0-1.7-1.3-3-3-3H47.2c-1.7,0-3,1.3-3,3V187z"/>
		</g>
		<g>
			<path class="st1" d="M36.1,198.6c0,2.7,1.5,4.9,3.3,4.9h185.3c1.8,0,3.3-2.2,3.3-4.9c0,0-9.4-8.5-11.1-8.5H47.2
				C45.5,190.1,36.1,198.6,36.1,198.6z"/>
		</g>
		<path class="st0" d="M51.3,177.4c0,1.7,1.3,3,3,3h155.4c1.7,0,3-1.3,3-3V95.6c0-1.7-1.3-3-3-3H54.3c-1.7,0-3,1.3-3,3V177.4z"/>
		<polygon class="st3" points="153.1,199.8 111,199.8 115.9,195.5 148.1,195.5 		"/>
		<g>
			<g>
				<path class="st0" d="M149.4,138.4v-12.5c0-2.1-1.8-3.9-3.9-3.9c-0.8,0-1.6,0.2-2.2,0.7c-0.5-1.6-2-2.7-3.8-2.7
					c-1.7,0-3.2,1.2-3.8,2.7c-0.7-0.4-1.4-0.7-2.2-0.7c-2.1,0-3.9,1.8-3.9,3.9v2.6c-0.6-0.4-1.3-0.6-2-0.6c-2.1,0-3.9,1.8-3.9,3.9
					v9.3v2.6v13.6c0,2.5,0,3.2,0.7,3.8c0.5,0.4,1.3,0.4,2.2,0.4h10.9h0.1h9.9c2.2,0,4-1.8,4-4v-5.9v-9.9
					C151.4,140.3,150.6,139.1,149.4,138.4z"/>
				<g>
					<g id="Grupo_620_4_" transform="translate(4276 -95)">
						<g id="Rectángulo_140_4_" transform="translate(-4273 96)">
							<g>
								<path class="st4" d="M133.4,139.2c-0.5,0-1-0.4-1-1v-13.3c0-1-1-2-2-2c-1,0-2,1-2,2v13.3c0,0.5-0.4,1-1,1s-1-0.4-1-1v-13.3
									c0-2.1,1.8-3.9,3.9-3.9c2.1,0,3.9,1.8,3.9,3.9v13.3C134.5,138.7,134,139.2,133.4,139.2z"/>
							</g>
						</g>
						<g id="Rectángulo_143_4_" transform="translate(-4276 99)">
							<g>
								<path class="st4" d="M124.6,140.8c-0.5,0-1-0.4-1-1v-11.9c0-2.1,1.8-3.9,3.9-3.9c2.1,0,3.9,1.8,3.9,3.9v5.8c0,0.5-0.4,1-1,1
									s-1-0.4-1-1v-5.8c0-1-1-2-2-2s-2,1-2,2v11.9C125.5,140.3,125.1,140.8,124.6,140.8z"/>
							</g>
						</g>
						<g id="Rectángulo_141_4_" transform="translate(-4270 95)">
							<g>
								<path class="st4" d="M136.4,140.4c-0.5,0-1-0.4-1-1v-15.5c0-1-1-2-2-2s-2,1-2,2V139c0,0.5-0.4,1-1,1s-1-0.4-1-1v-15.1
									c0-2.1,1.8-3.9,3.9-3.9s3.9,1.8,3.9,3.9v15.5C137.4,140,137,140.4,136.4,140.4z"/>
							</g>
						</g>
						<g id="Rectángulo_142_4_" transform="translate(-4267 96)">
							<g>
								<path class="st4" d="M133.4,139.2c-0.5,0-1-0.4-1-1v-13.3c0-2.1,1.8-3.9,3.9-3.9s3.9,1.8,3.9,3.9v12.7c0,0.5-0.4,1-1,1
									s-1-0.4-1-1v-12.7c0-1-1-2-2-2s-2,1-2,2v13.3C134.4,138.7,134,139.2,133.4,139.2z"/>
							</g>
						</g>
						<g id="Unión_4_4_" transform="translate(-4271 104)">
							<path class="st4" d="M142.4,150.7c1.2,0,2-0.8,2-2v-5.9v-9.9c0-1.2-0.8-2-2-2c-1.2,0-2,0.8-2,2v8.4v1.8l-1.8,0.2
								c-1.2,0-2.4,0.2-3.2,0.4c-2.6,0.8-3.6,3.2-3.6,3.6c-0.4,1.6,0,2.8,0.4,3.4c0.2,0.2,0.2,0.2,0.4,0.2L142.4,150.7 M142.4,152.7
								h-9.9c-2.2,0-3.4-3-2.6-6.2c0,0,1-4,5-5c1-0.2,2.2-0.4,3.6-0.6v-8.1c0-2.2,1.8-4,4-4c2.2,0,4,1.8,4,4v9.9v5.9
								C146.4,150.9,144.6,152.7,142.4,152.7z"/>
						</g>
					</g>
					<g>
						<path class="st4" d="M138.4,161.7h-11.9c-1,0-1.7,0-2.2-0.4c-0.7-0.6-0.7-1.3-0.7-3.8v-16.2h1.9v16.2c0,1.1,0,1.9,0.1,2.3
							c0.2,0,0.6,0,1,0h11.9V161.7z"/>
					</g>
				</g>
			</g>
			<g>
				<circle class="st5" cx="120.2" cy="145.6" r="7.6"/>
				<polygon class="st6" points="118.3,140.8 118.3,150.4 123.1,145.6 				"/>
			</g>
		</g>
		<polygon class="st7" points="166.6,180.4 116.3,180.4 97.4,92.6 147.7,92.6 		"/>
	</g>
	<g>
		<path class="st8" d="M1.2,156.7c0,1.7,1.3,3,3,3h90c1.7,0,3-1.3,3-3v-44c0-1.7-1.3-3-3-3h-90c-1.7,0-3,1.3-3,3V156.7z"/>
		<polygon class="st9" points="43.8,125.5 43.8,143.4 54.7,135.3 		"/>
		<g>
			<rect x="3.8" y="153.6" class="st1" width="90.9" height="3.7"/>
			<rect x="3.8" y="153.6" class="st0" width="16.1" height="3.7"/>
		</g>
	</g>
	<g>
		<path class="st10" d="M122.5,112.7c0,1.7,1.3,3,3,3l56.5,5c1.7,0,3-1.3,3-3V36.2c0-1.7-1.3-3-3-3l-55.2-5c-1.7,0-4.2,1.3-4.2,3
			V112.7z"/>
		<polygon class="st11" points="125.4,34 177.8,17.9 177.8,104.2 125.4,114.5 		"/>
		<path class="st8" d="M122.5,112.8c0,1.7,1.3,3,3,3l32.5-26c2.5-2.1,3-4.2,3-5.9V5.3c0-1.7-1.3-3-3-3l-32.5,25c-2.7,1.6-3,3-3,4.6
			V112.8z"/>
		<polygon class="st12" points="160.9,39.1 173.5,35.1 173.5,27.5 160.9,31.5 		"/>
		<polygon class="st12" points="160.9,53.9 173.5,49.9 173.5,44.3 160.9,48.3 		"/>
		<polygon class="st12" points="160.9,64.2 173.5,60.2 173.5,54.6 160.9,58.6 		"/>
		<polygon class="st12" points="160.9,74.6 173.5,70.6 173.5,64.9 160.9,68.9 		"/>
		<polygon class="st12" points="160.9,84.2 173.5,80.2 173.5,74.6 160.9,78.6 		"/>
	</g>
</g>
</svg>
