<svg xmlns="http://www.w3.org/2000/svg" width="16.933" height="14.116" viewBox="0 0 16.933 14.116">
  <g id="Grupo_21" data-name="Grupo 21" transform="translate(-970.067 -872.85)">
    <g id="Rectángulo_126" data-name="Rectángulo 126" transform="translate(987 883) rotate(180)" fill="#4fe0f5" stroke="#8b57ce" stroke-width="1">
      <rect width="10" height="8" stroke="none"/>
      <rect x="0.5" y="0.5" width="9" height="7" fill="none"/>
    </g>
    <g id="Rectángulo_128" data-name="Rectángulo 128" transform="translate(985 885) rotate(180)" fill="#fff" stroke="#8b57ce" stroke-width="1">
      <rect width="10" height="8" stroke="none"/>
      <rect x="0.5" y="0.5" width="9" height="7" fill="none"/>
    </g>
    <g id="Grupo_1203" data-name="Grupo 1203" transform="translate(-2934.5 6153.717)">
      <g id="Elipse_71" data-name="Elipse 71" transform="translate(3906.486 -5280.867)" fill="#fff" stroke="#8b57ce" stroke-width="1">
        <circle cx="3.12" cy="3.12" r="3.12" stroke="none"/>
        <circle cx="3.12" cy="3.12" r="2.62" fill="none"/>
      </g>
      <g id="Rectángulo_231" data-name="Rectángulo 231" transform="translate(3904.5 -5274.123)">
        <path id="Trazado_21" data-name="Trazado 21" d="M3.837,1H7.568A2.837,2.837,0,0,1,10.4,3.836v2.9a.567.567,0,0,1-.567.567H1.567A.567.567,0,0,1,1,6.737v-2.9A2.837,2.837,0,0,1,3.837,1Z" transform="translate(-0.433 -0.433)" fill="#4fe0f5" stroke="#8b57ce" stroke-width="1"/>
      </g>
    </g>
  </g>
</svg>
