<svg xmlns="http://www.w3.org/2000/svg" width="20.845" height="28.104" viewBox="0 0 20.845 28.104">
  <g id="Grupo_300" data-name="Grupo 300" transform="translate(11.901 -0.509) rotate(30)">
    <g id="Grupo_296" data-name="Grupo 296">
      <g id="Trazado_171" data-name="Trazado 171" transform="translate(1.75 1)" fill="#fff" stroke-linecap="round" stroke-linejoin="round">
        <path d="M 4.59375 24.83325576782227 C 4.221010208129883 24.83325576782227 3.569370031356812 24.29366493225098 2.858309984207153 22.77925491333008 C 2.378226041793823 21.75674819946289 2.07837176322937 20.72724914550781 1.993618607521057 20.41970634460449 L 1.049781203269958 1.000005006790161 L 7.950218677520752 1.000005006790161 L 7.005554676055908 20.43671798706055 C 6.936415672302246 20.72584915161133 6.666803359985352 21.79046630859375 6.213129997253418 22.8294849395752 C 5.568049907684326 24.30686569213867 4.953649997711182 24.83325576782227 4.59375 24.83325576782227 Z" stroke="none"/>
        <path d="M 2.099562644958496 1.999994277954102 L 2.986907958984375 20.25736236572266 C 3.077921390533447 20.57431221008301 3.29109525680542 21.26857757568359 3.605780124664307 22.00251579284668 C 4.00175952911377 22.92604064941406 4.355795860290527 23.43743515014648 4.578834533691406 23.6855583190918 C 4.787193298339844 23.43466758728027 5.111127853393555 22.92790603637695 5.461489677429199 22.02969551086426 C 5.751581192016602 21.28597259521484 5.938048839569092 20.58759880065918 6.01136589050293 20.29287719726563 L 6.900437355041504 1.999994277954102 L 2.099562644958496 1.999994277954102 M 0 -5.7220458984375e-06 L 9 -5.7220458984375e-06 L 8 20.57526397705078 C 8 20.57526397705078 6.84375 25.83324432373047 4.59375 25.83324432373047 C 2.34375 25.83324432373047 1 20.57526397705078 1 20.57526397705078 L 0 -5.7220458984375e-06 Z" stroke="none" fill="#00a55e"/>
      </g>
      <path id="Trazado_173" data-name="Trazado 173" d="M582.625-2142.333l-2.687.458v5.167l.484-.207" transform="translate(-579.938 2147.175)" fill="none" stroke="#00a55e" stroke-linecap="round" stroke-linejoin="round" stroke-width="2"/>
      <path id="Trazado_176" data-name="Trazado 176" d="M583-2145.062h7" transform="translate(-580.25 2145.063)" fill="none" stroke="#00a55e" stroke-width="2"/>
    </g>
  </g>
</svg>
