<?xml version="1.0" encoding="utf-8"?>
<!-- Generator: Adobe Illustrator 24.2.0, SVG Export Plug-In . SVG Version: 6.00 Build 0)  -->
<svg version="1.1" id="Capa_1" xmlns="http://www.w3.org/2000/svg" xmlns:xlink="http://www.w3.org/1999/xlink" x="0px" y="0px"
	 viewBox="0 0 216.5 414" style="enable-background:new 0 0 216.5 414;" xml:space="preserve">
<style type="text/css">
	.st0{fill:#252525;stroke:#5909AC;stroke-miterlimit:10;}
	.st1{fill:#5909AC;stroke:#252525;stroke-miterlimit:10;}
	.st2{fill:#FFFFFF;stroke:#5909AC;stroke-miterlimit:10;}
	.st3{fill:#FFFFFF;stroke:#1D1D1B;stroke-miterlimit:10;}
	.st4{fill:#252525;stroke:#252525;stroke-miterlimit:10;}
	.st5{fill:#252525;}
	.st6{fill:#4FE0F5;}
	.st7{fill:#5909AC;stroke:#5909AC;stroke-miterlimit:10;}
	.st8{fill:#FFFFFF;stroke:#FFFFFF;stroke-miterlimit:10;}
	.st9{fill:#FFFFFF;stroke:#252525;stroke-miterlimit:10;}
	.st10{fill:#FFFFFF;}
	.st11{fill:#89D5E0;}
	.st12{fill:#333333;stroke:#333333;stroke-width:0.2;}
	.st13{fill:#333333;stroke:#FFFFFF;stroke-width:2.5;stroke-linecap:round;stroke-linejoin:round;}
	.st14{fill:#8B57CE;stroke:#8B57CE;stroke-linecap:round;stroke-linejoin:round;}
	.st15{fill:#4FE0F5;stroke:#5909AC;stroke-miterlimit:10;}
</style>
<g>
	<g>
		<path class="st0" d="M55.9,43.5c-1,1.6-2.2,4.7-2.7,7.8c-0.5,3.1,0.9,7.9,4.1,10c3.2,2,4.7,3.8,6.4,3.6s12.4-1.4,9.2-8.3
			c-3.2-6.9-10-19-13.9-16.3C56.9,41.7,56.9,41.9,55.9,43.5z"/>
		<path class="st0" d="M123,222.3c-0.3,7.7,3.4,29.6,3.7,46.1c0.5,28.7-0.3,33,0.3,38.4c0.6,5.8-3.8,46.1-3.8,64.8
			c0,5.7-1.8,10.3-1.8,10.3s-11.2,3.6-14,3.6c-2.8,0.1-9.8-1.8-9.8-1.8s-5.3-5.4-2-10.2c2.6-3.8,3-39.6,2.1-46.2
			c-0.9-7.2,1.6-14.9,1.4-16c-0.2-1.1-1.7-2-1.9-3c-0.2-1,1-2,1.7-3.8c0.1-0.3-3.5-8.2-4.3-12.7c-4.3-26.3-14.2-72.8-15.4-84.2"/>
		<path class="st0" d="M97.2,216.7c0,0-21.9,83.6-21.9,91.1c0,6.3-12.6,43.8-15.3,59.7c-0.5,3.3-0.7,6.7,0.5,7.3
			c1.2,0.6-0.6,4.7-0.6,7c0,0-12.6-0.9-14.3-1c-2.8-0.2-13.6,0-13.6,0s-1.7-1.6-0.4-6.8c1.3-5.2,9.7-55.1,9.5-62.6
			c-0.2-7.3,3.9-8.9,3.8-10c-0.1-1.1-1.5-2.2-1.6-3.2s1.2-1.9,2.1-3.6c0.2-0.3-1.3-2.4-1-7c1.3-23.3-5.4-41.2-2.1-58"/>
		<path class="st0" d="M122.6,216.7c-1.2-0.4-0.4-2.3,0.4-3.2c0.8-0.9-0.6-1.3-0.5-3.1c0.5-8.1,2.9-24.8,1.2-26.1L96,186.5
			c0,0-44.6-2.6-44.8-3.2s-6.2,0-6.2,0s-1.9,3.6-3.3,12.2c-1.4,8.6-0.6,23.7,0.6,26.7c1.2,3-1.3,1.3-1.3,2s1.7,1.9,1.2,2.4
			c-0.5,0.5-2.1,1.6-1.6,2.4s1.3,3.4,1.3,3.4"/>
		<path class="st0" d="M97.2,66.5c0,0,6.4,1.4,11.8,4.4c9.4,5.2,10.5,10.6,15.5,25.8c5,15.1,8.1,34.1,8.1,34.1l-31.6-0.1L97.2,66.5z
			"/>
		<path class="st0" d="M37.8,119.5c7.6,18,4.7,39.1,5,43.3c0.3,4.3-13.7,60.6-13.7,60.6s4.1,4.7,9.9,7c0.8,0.3,10.6,2.2,11.4,2.4
			c15.7,3.7,23.6,1.4,27.8-2.6c4.2-4,14.9-59.6,14.9-59.6s9.1,55.7,15.1,60.3c6.1,4.6,20.6-4.1,20.6-4.1s-2.9-63.5-10.9-96.3
			c-7.8-31.9,3.9-50.2-3.8-56.6c-7.7-6.4-16.5-9.3-30.6-10.3S57.2,63.1,43,69.6C11.6,83.9,34.9,112.5,37.8,119.5z"/>
		<polygon class="st1" points="111.6,155.9 60.4,152.5 60.4,148.6 111.7,147.5 		"/>
		<path class="st2" d="M58.8,142.5c0,0,18.3-7,31.6-6.6c13.3,0.4,17.1,4.3,18.3,6.3c2.3,3.8,4.3,6.8,1.7,6.8s-4.7-4.1-7.7-3.3
			c-3,0.8-1.8,5-8.8,6.2s-9.8-1.4-9.8-1.4s-7.9,0.6-12.3,2c-4.4,1.4-11.1,3.2-11.1,3.2L58.8,142.5z"/>
		<path class="st0" d="M51.5,69.7c0,0-3.3-2.1-6.3-0.9c-12.6,5.1-20.9,13-29.2,30.5c-8.4,17.8-10.2,46.9-1.3,53.3
			c11,8,17.2,8,31.2,8.4c9.9,0.3,34.6-8.6,34.6-8.6s-1.4-14.8-4.8-16.2c-3.4-1.4-20.1,4.1-32.5,3.7c-5.8-0.2-7.7-4.8-7.7-4.8
			s-1.1-2.5,2.5-8.4c2-3.3,4.3-3.8,4.3-3.8"/>
		<path class="st3" d="M122,220.7"/>
		<polygon class="st1" points="207.7,154.4 111.7,156 111.7,94.8 207.7,93.3 		"/>
		<g>
			<path class="st2" d="M153.6,156.8c0.3,0.4,0.2,3.9,1.3,4.1c1.1,0.2,3.7,0.4,4.2-1.7c0.5-2.1,0-5-0.1-6.3
				c-0.1-2.9-2.6-5.2-4.8-3.7C151.9,150.7,153.2,156.2,153.6,156.8z"/>
			<path class="st2" d="M158.9,155.6c0.1,0.5,0.9,3.7,1.9,4.1c1.5,0.6,3.3,0.9,3.9-1.4s0.2-3.7,0.1-5c-0.1-3.1,0.1-7.3-4.2-5.9
				C158,148.2,158.5,153,158.9,155.6z"/>
			<path class="st2" d="M167.7,160.2c0.9,0.5,2.4-0.3,2.8-0.5c0.4-0.1,0.6-1.7,0.7-1.9c0.1-0.1,0.4-3.3,0.4-4.9
				c0-1.5-1.3-6.2-1.9-6.7c-0.6-0.5-2.1-1.2-3.4-1s-2.5,3-1.9,5.9c0.6,2.9,1.5,5,1.5,5.9C166,157.9,166.2,159.3,167.7,160.2z"/>
			<path class="st2" d="M177.9,155c0,0-0.5-2.8-0.5-3.7c-0.1-0.9-0.5-4-1.2-4.6s-2.3-1.8-3.3-1.7c-1.7,0.2-2.6,0.9-2.5,2.9
				c0,1,1.5,5.9,1.5,7.1s-0.2,3.6,0.7,4.3c0.9,0.7,1.9,1,3.2,0.9C177.1,160,177.8,157.2,177.9,155z"/>
		</g>
		<g>
			<path class="st1" d="M30.3,385c0.6,0.6,1.3,2.8,0.5,4c-1.2,1.8-1.3,2.6-1.6,6.1c-0.2,3.5,0,6.7,0,6.7h59.9c0,0,2-8.9-5.1-11.6
				c-10.7-4.1-20.4-1.1-20.8-5.5c-0.2-2.5-4-4.1-9.4-5.3c-3.5-0.8-22.5,0.1-23.4,0.6C29.5,380.6,29.6,384.4,30.3,385z"/>
			<rect x="28.1" y="401.4" class="st4" width="61.6" height="4.5"/>
			<path class="st5" d="M76.6,390c-0.3,0.7-0.4,0.9-0.4,1.7c0,0.8,1.4,0.1,1.7-0.8c0.2-0.9,0.3-1.8,0.8-2c0.5-0.2,0.5-0.2,0.5-0.2
				s0.5-0.5-0.8-0.5S76.9,389.3,76.6,390z"/>
			<path class="st5" d="M70.7,389.4c-0.3,0.7-1.2,1.1-0.7,1.8c0.6,0.9,1.3-0.2,1.8-1c0.6-0.8,0.7-1.3,1.1-1.5
				c0.5-0.3,0.5-0.7,0.5-0.7s0.7-0.5-0.6-0.5S71,388.7,70.7,389.4z"/>
			<path class="st5" d="M65.1,388.7c-0.3,0.7-0.9,1.3-0.2,1.8c0.9,0.6,1-0.1,1.3-1c0.2-0.9,0.7-1.6,1.2-1.8c0.5-0.2,0.6-0.3,0.6-0.3
				s0.3-0.6-1-0.6S65.4,388,65.1,388.7z"/>
			<path class="st1" d="M65.2,386.9c0,0-4.6,0.7-5.2-3.2c-0.6-3.8,1-5.4,2.3-5c1.2,0.3,1.9,2,1.9,2s-1.2,1.3-0.9,2.7
				C63.6,384.7,65.2,386.9,65.2,386.9z"/>
			<path class="st5" d="M61.2,387.4c-0.6,0.8-1,0.8-0.4,1.6c0.8,1.1,1.2,0.2,1.8-0.9s0.9-1.2,1.6-1.3c0.7-0.1,0.8-0.1,0.8-0.1
				s0.6-0.6-1-1.1C62.6,385.2,61.8,386.6,61.2,387.4z"/>
		</g>
		<g>
			<path class="st1" d="M94.2,385c0.6,0.6,1.3,2.8,0.5,4c-1.2,1.8-1.3,2.6-1.6,6.1c-0.2,3.5,0,6.7,0,6.7H153c0,0,2-8.9-5.1-11.6
				c-10.7-4.1-20.4-1.1-20.8-5.5c-0.2-2.5-4-4.1-9.4-5.3c-3.5-0.8-22.5,0.1-23.4,0.6C93.4,380.6,93.6,384.4,94.2,385z"/>
			<rect x="92.1" y="401.4" class="st4" width="61.6" height="4.5"/>
			<path class="st5" d="M140.5,390c-0.3,0.7-0.4,0.9-0.4,1.7s1.4,0.1,1.7-0.8c0.2-0.9,0.3-1.8,0.8-2c0.5-0.2,0.5-0.2,0.5-0.2
				s0.5-0.5-0.8-0.5C140.9,388.2,140.8,389.3,140.5,390z"/>
			<path class="st5" d="M134.6,389.4c-0.3,0.7-1.2,1.1-0.7,1.8c0.6,0.9,1.3-0.2,1.8-1c0.6-0.8,0.7-1.3,1.1-1.5
				c0.5-0.3,0.5-0.7,0.5-0.7s0.7-0.5-0.6-0.5C135.4,387.6,134.9,388.7,134.6,389.4z"/>
			<path class="st5" d="M129,388.7c-0.3,0.7-0.9,1.3-0.2,1.8c0.9,0.6,1-0.1,1.3-1s0.7-1.6,1.2-1.8c0.5-0.2,0.6-0.3,0.6-0.3
				s0.3-0.6-1-0.6C129.6,386.9,129.3,388,129,388.7z"/>
			<path class="st1" d="M129.1,386.9c0,0-4.6,0.7-5.2-3.2c-0.6-3.8,1-5.4,2.3-5c1.2,0.3,1.9,2,1.9,2s-1.2,1.3-0.9,2.7
				C127.5,384.7,129.1,386.9,129.1,386.9z"/>
			<path class="st5" d="M125.2,387.4c-0.6,0.8-1,0.8-0.4,1.6c0.8,1.1,1.2,0.2,1.8-0.9c0.6-1.1,0.9-1.2,1.6-1.3
				c0.7-0.1,0.8-0.1,0.8-0.1s0.6-0.6-1-1.1C126.5,385.2,125.8,386.6,125.2,387.4z"/>
		</g>
		<path class="st2" d="M90.9,66.3c0,0,1.4,5.4-5.6,5.8c-7,0.4-16.1-5.6-19.2-7.7l3.6-13.9h20.2L90.9,66.3z"/>
		<g>
			<path class="st2" d="M62.6,48c1.9,4.8,6.8,10.8,11.4,12.5c8.1,3,22.5,1.3,25.3-3.1c3.3-5.3,8.3-31.7-4.4-40.2
				c-12.3-8.2-30.8-4.8-34,6.6C58.5,32.5,59.5,39.9,62.6,48z"/>
			<path class="st2" d="M91,39.6c0,0-0.1,3.2,1.3,3.8c1,0.5,1.6,1.6,1.3,2.6c-0.4,1.2-1.5,1.6-2.5,1.4c-0.5-0.1-1-0.8-1.6-0.4
				c-0.5,0.4-0.6,0.6-1.3,0.2c-0.7-0.4-0.2-1.1-0.2-1.1"/>
			<path class="st4" d="M73.2,31.4c0,0,1.5-2.4,4-3.1c2.5-0.6,4.8-1.5,4.9-1.8c0.1-0.3-0.2-0.9-0.8-1.3c-0.4-0.3-1.9-0.6-2.9-0.3
				c-2.4,0.7-4.9,2.5-5.4,3.4C72.5,29.3,72.3,31.4,73.2,31.4z"/>
			<path class="st4" d="M99.9,31c0,0-1.1-2-3.6-2.7c-2.5-0.7-3.6-1.3-3.7-1.5c-0.1-0.3,0.2-0.9,0.8-1.2c0.4-0.3,1.2-0.5,2.2-0.2
				c2.3,0.7,3.8,1.8,4.3,2.8C100.3,29.1,100.7,31.1,99.9,31z"/>
			<path class="st0" d="M63.3,33.3l1.6,3.2c0,0,0.5,6.3,1.2,7s2,0.9,2,0.9s-1.3-9.9-1.1-12.6c0.2-2.7,4-3.6,4-3.6s-1.9-5.7-1.4-6.6
				c0.4-0.9,6.1-7.3,9.7-6.7c3.6,0.6,9.3,3.1,10.5,3.1c1.3,0,0.9-2.3,2.1-2.4c1.2-0.1,3.1,1.4,3.8,1.9c0.7,0.5,0-0.8-2.4-3.7
				c-2.4-2.9-9.6-7.6-19.5-5.3s-13.4,5.1-16.4,10.2c-6.1,10.2-1.5,21.4-1.5,21.4s3.6-3.8,4.7-4.3C61.8,35.5,63.3,33.3,63.3,33.3z"/>
			<g>
				<path class="st2" d="M64.1,34.8c-2.1-2.7-7.8-2.3-8.1,2.1s0.5,8.1,3.3,8.7c3.8,0.9,6.1,0.4,6-1.3"/>
				<path class="st2" d="M58,39.8c0.1-2.3,0.6-3.9,3.2-3.1c2.9,0.9,2.4,6.4,0.4,6.2c-3.8-0.4-1.3-3.1-0.2-2.2"/>
			</g>
			<path class="st6" d="M76.8,37.5c0,0-0.8-0.4-1,2.9c-0.2,3.2,2,3,0.5,5.6c-1.5,2.7-3.5,4.9-2.6,6.5c0.9,1.6,0.5,6,0.5,6.8
				c0,0.8,5,1.8,5,1.8s-1.5-1.4-1.4-3.2c0.1-1.7-0.8-4.2-0.9-5.6c-0.1-1.3,0.3-3.4,1.5-5.9c1.2-2.5,0.4-2.8,0.5-5
				c0-2.2,0.8-2.9,0.8-2.9L76.8,37.5z"/>
			<path class="st6" d="M95.1,39.4c0,0-0.1,0.2,0,2.1s0.1,4,0.9,4.6c0.7,0.6,0.4,0.9,0.6,3.2c0.3,2.2,1.2,2,0.7,4
				c-0.5,2-1.4,5.3-1.2,5.9c0.2,0.6,1.7-0.9,2.4-1.8c0.7-0.9,0.4-1.8,0.5-3s1.5-3.8,0-4.6c-1.5-0.9-1.4-3.5-1-4.5s0-1.7-0.6-3.3
				c-0.6-1.6-0.6-2.6-0.6-2.6L95.1,39.4z"/>
			<g>
				<path class="st7" d="M76.9,38.1c0,0,1,1.4,2.1,1.2c1.1-0.2,1.9-0.5,1.7-1.7s-0.5-3.2-2-3.1C77.2,34.6,76.4,36.9,76.9,38.1z"/>
				<path class="st8" d="M79.5,35.3c-0.1-0.2-0.5-0.2-0.6-0.1c-0.1,0.1-0.3,0.5-0.1,0.7c0.2,0.2,0.3,0.4,0.7,0.3
					S79.7,35.6,79.5,35.3z"/>
			</g>
			<g>
				<path class="st7" d="M97.4,37c0,0,0,2.4-1,2.6c-1,0.2-2-0.3-2.2-1c-0.4-1.3-0.1-3.2,1-3.2S97,36.2,97.4,37z"/>
				<path class="st8" d="M96.4,36.6c-0.1-0.2-0.4-0.2-0.5-0.1c-0.1,0.1-0.3,0.4-0.2,0.6c0.1,0.2,0.4,0.3,0.7,0.2
					C96.8,37.3,96.6,36.8,96.4,36.6z"/>
			</g>
		</g>
		<path class="st9" d="M60.1,64.1c0,0,4.6,15.6,6.1,19.8c1.5,4.2,6,19.4,8.9,23.9c2.9,4.5,6.6,7.8,8.6,8.1c2,0.3,8.2-7.8,9.8-13.4
			c1.5-5.6,1-18.9,1.3-25.7c0.3-6.8-1.7-13-3.1-12.9s-0.7,6.8-5.6,8.2c-1.1,0.3-6.3-0.5-10.8-2.6c-4.5-2.1-11.4-6.9-11.4-6.9
			L60.1,64.1z"/>
		<g>
			<g>
				<path class="st4" d="M84.7,79.7c0,0,0.8,6.1,0.5,8.1c-0.3,2-0.8,3.9-0.8,5.6c0,1.7-2,15.9-1.7,20.3c0.3,4.5-0.5,7.4-0.5,7.4
					l1.2,0.2c0,0,1.3-4.2,1-7.3c-0.3-3.1,1-10,0.9-12.7c-0.1-2.7-0.2-9.9,0.5-11.7c0.7-1.8,0.1-3.6,0.2-5.4c0.1-1.8-0.4-4.7-0.4-4.7
					L84.7,79.7z"/>
				<path class="st7" d="M86.2,74c0,0-0.8-0.2-1.4-0.1c-0.6,0.1-3.1,0.7-3.2,1.8c-0.1,1-0.2,2.5,0.4,3.3c0.6,0.8,3.3,1.1,3.6,1.1
					c0.3,0,1.6-0.6,2.2-2.2c0.7-1.6,0.4-2.5-0.3-3C86.8,74.4,86.2,74,86.2,74z"/>
				<path class="st4" d="M85.2,75.5c0,0-1-0.1-1.1,0.6s-0.7,2-0.1,2.3c0.6,0.3,1.5-0.5,1.6-0.7c0.2-0.3,0.4-1.2,0.2-1.5
					C85.7,76,85.7,75.5,85.2,75.5z"/>
			</g>
			<path class="st2" d="M65.3,60.6L63.3,64c0,0,3.6,5.1,6.6,8.2c3,3.1,7.3,8.6,7.3,8.6l8.1-8.7c0,0-6-1.5-10.2-4.8
				C71,64,65.3,60.6,65.3,60.6z"/>
			<path class="st2" d="M90.9,63.4c0,0-0.9,3-2.1,5.3s-3.5,3.4-3.5,3.4l6.7,7.4c0,0,1.4-5.5,1.8-6.2c1.3-2.1-1-8.9-1-8.9L90.9,63.4z
				"/>
		</g>
		<path class="st2" d="M87.2,51c0,0,1.4-2.1,3.2-0.9c0.8,0.5,1.4-0.4,1.8-0.1c0.8,0.5,1.5,1.9,1.5,1.9"/>
		<g>
			<path class="st10" d="M206.5,127v-3.4c0-2.4-1.2-3.5-3.5-3.5H200c-2.4,0-3.5,1.2-3.5,3.5v4.7c0,2.4,1.2,3.5,3.5,3.5h4.8l0,0h1.6
				l-0.8-2.3h-0.2h-2.9h-2.3c-0.7,0-1-0.4-1-1v-1.5L206.5,127L206.5,127z M199.1,123.5c0-0.7,0.4-1.1,1-1.1h2.7
				c0.7,0,1.1,0.4,1.1,1.1v1.5h-4.7L199.1,123.5L199.1,123.5z"/>
			<g>
				<polygon class="st10" points="191.1,114 186.5,124 181.8,114 178.5,114 178.5,124 178.5,125.2 178.5,135.2 181.2,135.2 
					181.2,118.6 185.2,127.3 187.7,127.3 191.8,118.6 191.8,135.2 194.5,135.2 194.5,114 				"/>
			</g>
			<path class="st10" d="M142.2,127v-3.4c0-2.4-1.2-3.5-3.5-3.5h-2.9c-2.4,0-3.5,1.2-3.5,3.5v4.7c0,2.4,1.2,3.5,3.5,3.5h2.9l0,0h3.6
				l-0.8-2.3h-1h-2.1h-2.3c-0.7,0-1-0.4-1-1v-1.5L142.2,127L142.2,127z M134.9,123.5c0-0.7,0.4-1.1,1-1.1h2.7c0.7,0,1.1,0.4,1.1,1.1
				v1.5h-4.7L134.9,123.5L134.9,123.5z"/>
			<path class="st10" d="M172.9,120.2h-3.8V118l0,0v-4l-2.3,0.8v1.2v2v13.9h2.3v-9.5h3.7c0.7,0,1.1,0.4,1.1,1.1v9l2.6,0.6v-9.3
				C176.4,121.3,175.3,120.2,172.9,120.2z"/>
			<polygon class="st10" points="134.1,114 133,114 122.7,114 122.7,116.3 127.5,116.3 127.5,135.2 130.3,135.2 130.3,116.3 
				133,116.3 134.1,116.3 136.1,116.3 137,114 			"/>
			<path class="st10" d="M159.5,122.4h5.3v-0.7c0-0.4-0.1-0.8-0.4-1c-0.4-0.4-0.7-0.5-1.1-0.5h-4c-2.4,0-3.5,1.2-3.5,3.5v4.7
				c0,2.4,1.2,3.5,3.5,3.5h2.8h0h2.6l-0.8-2.3h-0.6h-2.6h-1.3c-0.7,0-1-0.4-1-1v-5.1C158.5,122.8,158.8,122.4,159.5,122.4z"/>
			<path class="st10" d="M150.6,120.2L150.6,120.2h-0.2h-3.7h-2.4l0.8,2.3h5.4c0.6,0.1,0.8,0.4,0.8,1v1.5h-3.5
				c-2.4,0-3.5,1.2-3.5,3.5s1.2,3.5,3.5,3.5h6.1v-8.2C153.9,121.4,152.8,120.2,150.6,120.2z M151.3,129.6h-3.4c-0.7,0-1-0.4-1-1V128
				c0-0.7,0.4-1,1-1h3.4V129.6z"/>
			<g>
				<path class="st11" d="M125,124.1v-3.4c0-0.6-0.5-1.1-1.1-1.1c-0.2,0-0.4,0.1-0.6,0.2c-0.2-0.4-0.6-0.8-1-0.8
					c-0.5,0-0.9,0.3-1,0.8c-0.2-0.1-0.4-0.2-0.6-0.2c-0.6,0-1.1,0.5-1.1,1.1v0.7c-0.2-0.1-0.4-0.2-0.6-0.2c-0.6,0-1.1,0.5-1.1,1.1
					v2.6v0.7v3.7c0,0.7,0,0.9,0.2,1.1c0.2,0.1,0.4,0.1,0.6,0.1h3h0h2.7c0.6,0,1.1-0.5,1.1-1.1v-1.6V125
					C125.5,124.6,125.3,124.2,125,124.1z"/>
				<g>
					<g id="Grupo_620_9_" transform="translate(4276 -95)">
						<g id="Rectángulo_140_9_" transform="translate(-4273 96)">
							<g>
								<path class="st12" d="M118.4,123.6c-0.2,0-0.3-0.1-0.3-0.3v-3.7c0-0.3-0.3-0.6-0.6-0.6s-0.6,0.3-0.6,0.6v3.7
									c0,0.2-0.1,0.3-0.3,0.3c-0.2,0-0.3-0.1-0.3-0.3v-3.7c0-0.6,0.5-1.1,1.1-1.1c0.6,0,1.1,0.5,1.1,1.1v3.7
									C118.7,123.4,118.6,123.6,118.4,123.6z"/>
							</g>
						</g>
						<g id="Rectángulo_143_9_" transform="translate(-4276 99)">
							<g>
								<path class="st12" d="M118.2,121.8c-0.2,0-0.3-0.1-0.3-0.3v-3.3c0-0.6,0.5-1.1,1.1-1.1c0.6,0,1.1,0.5,1.1,1.1v1.6
									c0,0.2-0.1,0.3-0.3,0.3c-0.2,0-0.3-0.1-0.3-0.3v-1.6c0-0.3-0.3-0.6-0.6-0.6s-0.6,0.3-0.6,0.6v3.3
									C118.4,121.7,118.3,121.8,118.2,121.8z"/>
							</g>
						</g>
						<g id="Rectángulo_141_9_" transform="translate(-4270 95)">
							<g>
								<path class="st12" d="M117.1,124.6c-0.2,0-0.3-0.1-0.3-0.3v-4.3c0-0.3-0.3-0.6-0.6-0.6s-0.6,0.3-0.6,0.6v4.2
									c0,0.2-0.1,0.3-0.3,0.3s-0.3-0.1-0.3-0.3v-4.2c0-0.6,0.5-1.1,1.1-1.1c0.6,0,1.1,0.5,1.1,1.1v4.3
									C117.4,124.5,117.2,124.6,117.1,124.6z"/>
							</g>
						</g>
						<g id="Rectángulo_142_9_" transform="translate(-4267 96)">
							<g>
								<path class="st12" d="M114.1,123.6c-0.2,0-0.3-0.1-0.3-0.3v-3.7c0-0.6,0.5-1.1,1.1-1.1c0.6,0,1.1,0.5,1.1,1.1v3.5
									c0,0.2-0.1,0.3-0.3,0.3s-0.3-0.1-0.3-0.3v-3.5c0-0.3-0.3-0.6-0.6-0.6s-0.6,0.3-0.6,0.6v3.7
									C114.4,123.4,114.2,123.6,114.1,123.6z"/>
							</g>
						</g>
						<g id="Unión_4_9_" transform="translate(-4271 104)">
							<path class="st12" d="M119.5,120.9c0.3,0,0.6-0.2,0.6-0.6v-1.6V116c0-0.3-0.2-0.6-0.6-0.6s-0.6,0.2-0.6,0.6v2.3v0.5l-0.5,0.1
								c-0.3,0-0.7,0.1-0.9,0.1c-0.7,0.2-1,0.9-1,1c-0.1,0.4,0,0.8,0.1,0.9c0.1,0.1,0.1,0.1,0.1,0.1L119.5,120.9 M119.5,121.5h-2.7
								c-0.6,0-0.9-0.8-0.7-1.7c0,0,0.3-1.1,1.4-1.4c0.3-0.1,0.6-0.1,1-0.2V116c0-0.6,0.5-1.1,1.1-1.1s1.1,0.5,1.1,1.1v2.7v1.6
								C120.5,121,120.1,121.5,119.5,121.5z"/>
						</g>
					</g>
					<g>
						<path class="st12" d="M122,130.5h-3.3c-0.3,0-0.5,0-0.6-0.1c-0.2-0.2-0.2-0.4-0.2-1.1v-4.5h0.5v4.5c0,0.3,0,0.5,0,0.6
							c0.1,0,0.2,0,0.3,0h3.3V130.5z"/>
					</g>
				</g>
			</g>
			<g>
				<circle class="st13" cx="117" cy="126" r="2.1"/>
				<polygon class="st14" points="116.4,124.7 116.4,127.4 117.8,126 				"/>
			</g>
			<polygon class="st10" points="181.2,135.2 181.2,133.1 173.9,129.1 173.9,132.6 178.5,135.2 			"/>
			<path class="st10" d="M178.5,135.1"/>
		</g>
	</g>
	<path class="st0" d="M62.6,63c0,0,8,24.5,10.8,35s10,17.9,10,17.9s-15.4-6.6-18.7-13.8c-3.3-7.1-6-11.9-6-11.9l6.7-5.4
		c0,0-7.1-1.9-8.2-1.8c-1.1,0.1-4.5-0.3-4.5-0.3s-1.5-10,1.8-14S62.6,63,62.6,63z"/>
	<path class="st0" d="M93.7,64.7c0,0,2.7,13.6,0.9,24.8c-1.8,11.2-5.7,18.9-7.2,21.7s-3.2,4.3-3.2,4.3s12.9-3.4,14.7-9.6
		c1.8-6.2,4.7-14.9,4.8-15.7c0.1-0.8-4.5-3.2-4.5-3.2l7.1-1.9c0,0-0.9-4.3-0.9-6.6s-3.1-9.2-4.4-10.6S93.7,64.7,93.7,64.7z"/>
	<path class="st15" d="M72.6,136.8c0,0-2.8-3.5-5.6-3.7s-7.3,1.6-8.7,1.7c-1.4,0.1-4.4-3-6.7-3.2c-2.3-0.2-3.2,1.6-3.2,1.6
		s-0.7-4.5-2-4c-1.4,0.5-4.4-2.8-8,2c-3.6,4.9-7.4,13.6-7.6,20.5c-0.2,6.9-3.8,15.7-6,18.4c-2.1,2.7-12.9,5.9-12.9,5.9
		s4.6,9.8,12.4,11c7.8,1.2,17.6,0,17.6,0s-2-2.9-1-3.1c1-0.2,6.8,0.1,9.6-0.8c2.8-0.9,8.4-1.8,3.9-10s1.8-19.2,5.5-21.4s8-8,8-8
		s-0.8-3.6-0.2-3.1c0.5,0.5,1,1.2,1.9,1.2c0.9,0,0.1-3.5,0.1-3.5L72.6,136.8z"/>
</g>
</svg>
