<svg xmlns="http://www.w3.org/2000/svg" width="20.699" height="21.45" viewBox="0 0 20.699 21.45">
  <g id="Grupo_7728" data-name="Grupo 7728" transform="translate(23227.729 6340.7)">
    <g id="levanta-la-mano-black" transform="translate(-23223.801 -6340.8)">
      <g id="Grupo_620" transform="translate(4276 -95)">
        <g id="Rectángulo_140" transform="translate(-4273 96)">
          <path id="Trazado_315" data-name="Trazado 315" d="M.8,10.3v-8A1.538,1.538,0,0,1,2.3.8h0A1.538,1.538,0,0,1,3.8,2.3v8" fill="none" stroke="#333" stroke-linecap="round" stroke-width="1.4"/>
        </g>
        <g id="Rectángulo_143" transform="translate(-4276 99)">
          <path id="Trazado_316" data-name="Trazado 316" d="M.8,8.3v-6A1.538,1.538,0,0,1,2.3.8h0A1.538,1.538,0,0,1,3.8,2.3V6.5" fill="none" stroke="#333" stroke-linecap="round" stroke-width="1.4"/>
        </g>
        <g id="Rectángulo_141" transform="translate(-4270 95)">
          <path id="Trazado_317" data-name="Trazado 317" d="M.8,11.2V2.3A1.538,1.538,0,0,1,2.3.8h0A1.538,1.538,0,0,1,3.8,2.3v9.1" fill="none" stroke="#333" stroke-linecap="round" stroke-width="1.4"/>
        </g>
        <g id="Rectángulo_142" transform="translate(-4267 96)">
          <path id="Trazado_318" data-name="Trazado 318" d="M.8,10.3v-8A1.538,1.538,0,0,1,2.3.8h0A1.538,1.538,0,0,1,3.8,2.3V8.7" fill="none" stroke="#333" stroke-linecap="round" stroke-width="1.4"/>
        </g>
        <g id="Unión_4" transform="translate(-4271 104)">
          <path id="Trazado_319" data-name="Trazado 319" d="M7.3,11.3a.945.945,0,0,0,1-1v-8a.945.945,0,0,0-1-1,.945.945,0,0,0-1,1V7.4l-.9.1a6.959,6.959,0,0,0-1.6.2A2.681,2.681,0,0,0,2,9.5a2.152,2.152,0,0,0,.2,1.7c.1.1.1.1.2.1H7.3m0,1h-5C1.2,12.3.6,10.8,1,9.2A3.636,3.636,0,0,1,3.5,6.7q.75-.15,1.8-.3V2.3a2,2,0,0,1,4,0v8A2.006,2.006,0,0,1,7.3,12.3Z" fill="#333" stroke="#333" stroke-width="0.5"/>
        </g>
      </g>
      <path id="Trazado_320" data-name="Trazado 320" d="M7.8,20.8h-6s-.7.1-.8-.3S.8,18.4.8,18.4V11" fill="none" stroke="#333" stroke-width="1.4"/>
    </g>
    <path id="Trazado_322" data-name="Trazado 322" d="M-23233.441-6328.763l-17.875,16.674" transform="translate(25 -9)" fill="none" stroke="#333" stroke-linecap="round" stroke-width="2"/>
  </g>
</svg>
