<svg id="Grupo_268" data-name="Grupo 268" xmlns="http://www.w3.org/2000/svg" width="30.952" height="26.343" viewBox="0 0 30.952 26.343">
  <g id="Trazado_163" data-name="Trazado 163">
    <path id="Trazado_93" data-name="Trazado 93" d="M13.476,25c-2.643,0-5.988-2.128-9.674-6.154A53.849,53.849,0,0,1-.8,13,53.843,53.843,0,0,1,3.8,7.154C7.488,3.128,10.834,1,13.476,1s5.988,2.128,9.674,6.154A53.853,53.853,0,0,1,27.752,13a53.841,53.841,0,0,1-4.6,5.846C19.464,22.872,16.119,25,13.476,25Z" transform="translate(2)" fill="#fff"/>
    <path id="Trazado_94" data-name="Trazado 94" d="M13.476,2C11.16,2,7.993,4.063,4.558,7.81A52.494,52.494,0,0,0,.415,13a52.492,52.492,0,0,0,4.143,5.19C7.993,21.937,11.16,24,13.476,24s5.483-2.063,8.918-5.81A52.509,52.509,0,0,0,26.537,13a52.5,52.5,0,0,0-4.143-5.19C18.96,4.063,15.793,2,13.476,2m0-2c7.18,0,15.476,13,15.476,13s-8.3,13-15.476,13S-2,13-2,13,6.3,0,13.476,0Z" transform="translate(2)" fill="#5909ac"/>
  </g>
  <g id="Grupo_244" data-name="Grupo 244" transform="translate(7.879 4.727)">
    <g id="Elipse_1" data-name="Elipse 1" transform="translate(0 0)" fill="#fff" stroke="#5909ac" stroke-linecap="round" stroke-linejoin="round" stroke-width="2">
      <circle cx="7.116" cy="7.116" r="7.116" stroke="none"/>
      <circle cx="7.116" cy="7.116" r="6.116" fill="none"/>
    </g>
    <path id="Trazado_1" data-name="Trazado 1" d="M0,0V8.963" transform="translate(11.849 11.849) rotate(-45)" fill="none" stroke="#5909ac" stroke-linecap="round" stroke-width="2"/>
  </g>
  <path id="Trazado_166" data-name="Trazado 166" d="M15.476-7.25V25.883" transform="translate(10.859 -4.317) rotate(45)" fill="none" stroke="#5909ac" stroke-linecap="round" stroke-width="2"/>
</svg>
