<svg xmlns="http://www.w3.org/2000/svg" width="30.952" height="26" viewBox="0 0 30.952 26">
  <g id="Grupo_268" data-name="Grupo 268" transform="translate(-1172 745)">
    <g id="Trazado_163" data-name="Trazado 163" transform="translate(1174 -745)" fill="#fff" stroke-linecap="round" stroke-linejoin="round">
      <path d="M 13.47618961334229 25 C 10.83360958099365 25 7.488429546356201 22.8718204498291 3.802309513092041 18.84552955627441 C 1.619085669517517 16.46083068847656 -0.0894261971116066 14.04612922668457 -0.7994080781936646 12.99999618530273 C -0.08947394043207169 11.95394039154053 1.619085669517517 9.539169311523438 3.802309513092041 7.154469966888428 C 7.488429546356201 3.128180027008057 10.83360958099365 1 13.47618961334229 1 C 16.1187686920166 1 19.46394920349121 3.128180027008057 23.15007019042969 7.154469966888428 C 25.33329391479492 9.539169311523438 27.04180526733398 11.95387077331543 27.75178718566895 13.00000381469727 C 27.0418529510498 14.04605960845947 25.33329391479492 16.46083068847656 23.15007019042969 18.84552955627441 C 19.46394920349121 22.8718204498291 16.1187686920166 25 13.47618961334229 25 Z" stroke="none"/>
      <path d="M 13.47618961334229 2 C 11.15977001190186 2 7.992660522460938 4.063249588012695 4.558269500732422 7.809669494628906 C 2.736860275268555 9.796562194824219 1.24925422668457 11.80977821350098 0.4154148101806641 12.99999332427979 C 1.24937629699707 14.19039630889893 2.736860275268555 16.20343780517578 4.558269500732422 18.19033050537109 C 7.992660522460938 21.9367504119873 11.15977001190186 24 13.47618961334229 24 C 15.79260921478271 24 18.95972061157227 21.9367504119873 22.39410972595215 18.19033050537109 C 24.21551895141602 16.20343780517578 25.703125 14.19022178649902 26.53696441650391 13.00000667572021 C 25.7030029296875 11.80960369110107 24.21551895141602 9.796562194824219 22.39410972595215 7.809669494628906 C 18.95972061157227 4.063249588012695 15.79260921478271 2 13.47618961334229 2 M 13.47618961334229 0 C 20.6558895111084 0 28.95237922668457 13 28.95237922668457 13 C 28.95237922668457 13 20.6558895111084 26 13.47618961334229 26 C 6.296489715576172 26 -2 13 -2 13 C -2 13 6.296489715576172 0 13.47618961334229 0 Z" stroke="none" fill="#00a55e"/>
    </g>
    <g id="Grupo_244" data-name="Grupo 244" transform="translate(1179.879 -740.273)">
      <g id="Elipse_1" data-name="Elipse 1" fill="#fff" stroke="#00a55e" stroke-linecap="round" stroke-linejoin="round" stroke-width="2">
        <ellipse cx="7.116" cy="7.116" rx="7.116" ry="7.116" stroke="none"/>
        <ellipse cx="7.116" cy="7.116" rx="6.116" ry="6.116" fill="none"/>
      </g>
      <path id="Trazado_1" data-name="Trazado 1" d="M0,0V8.963" transform="translate(11.849 11.849) rotate(-45)" fill="none" stroke="#00a55e" stroke-linecap="round" stroke-width="2"/>
    </g>
  </g>
</svg>
